<svg id="_035-branching" data-name="035-branching" xmlns="http://www.w3.org/2000/svg" xmlns:xlink="http://www.w3.org/1999/xlink" width="24" height="23.959" viewBox="0 0 24 23.959">
  <defs>
    <linearGradient id="linear-gradient" y1="0.5" x2="1" y2="0.5" gradientUnits="objectBoundingBox">
      <stop offset="0" stop-color="#2af598"/>
      <stop offset="1" stop-color="#009efd"/>
    </linearGradient>
  </defs>
  <path id="_035-branching-2" data-name="035-branching" d="M4.679,5.615A2.807,2.807,0,1,0,1.872,2.807,2.811,2.811,0,0,0,4.679,5.615Zm0-3.743a.936.936,0,1,1-.936.936A.937.937,0,0,1,4.679,1.872Zm10.06,11.044h3.326a3.041,3.041,0,1,0,0-1.872H14.739V4.026h3.342a3.04,3.04,0,1,0-.031-1.872H12.867v8.89H9.358V9.311A2.811,2.811,0,0,0,6.551,6.5H2.807A2.811,2.811,0,0,0,0,9.311v7.861H1.872v6.785H3.743V15.3H1.872V9.311a.937.937,0,0,1,.936-.936H6.551a.937.937,0,0,1,.936.936V15.3H5.615v8.656H7.487V17.172H9.358V12.916h3.509v8.89H18.05a3.043,3.043,0,1,0,.031-1.872H14.739Zm6.22-2.106a1.17,1.17,0,1,1-1.17,1.17A1.171,1.171,0,0,1,20.959,10.81Zm0-8.937a1.17,1.17,0,1,1-1.17,1.17A1.171,1.171,0,0,1,20.959,1.873Zm0,17.874a1.17,1.17,0,1,1-1.17,1.17A1.171,1.171,0,0,1,20.959,19.747Zm0,0" transform="translate(0 0)" fill="url(#linear-gradient)"/>
</svg>
