<svg id="Component_9_2" data-name="Component 9 – 2" xmlns="http://www.w3.org/2000/svg" xmlns:xlink="http://www.w3.org/1999/xlink" width="264.868" height="251.405" viewBox="0 0 264.868 251.405">
  <defs>
    <linearGradient id="linear-gradient" x1="0.5" x2="0.5" y2="1" gradientUnits="objectBoundingBox">
      <stop offset="0" stop-color="#00b0e8"/>
      <stop offset="1" stop-color="#00d9b0"/>
    </linearGradient>
    <linearGradient id="linear-gradient-5" x1="0.5" x2="0.5" y2="1" gradientUnits="objectBoundingBox">
      <stop offset="0" stop-color="#009efd"/>
      <stop offset="1" stop-color="#2af598"/>
    </linearGradient>
  </defs>
  <g id="_029-chat" data-name="029-chat" transform="translate(255.993 269.999)">
    <g id="_029-chat-2" data-name="029-chat" transform="translate(-255.993 -255.999)">
      <g id="Group_1783" data-name="Group 1783">
        <g id="Group_1782" data-name="Group 1782">
          <rect id="Rectangle_1126" data-name="Rectangle 1126" width="18.547" height="18.547" transform="translate(89.023 76.042)" fill="url(#linear-gradient)"/>
          <rect id="Rectangle_1127" data-name="Rectangle 1127" width="18.547" height="18.547" transform="translate(163.21 76.042)" fill="url(#linear-gradient)"/>
          <rect id="Rectangle_1128" data-name="Rectangle 1128" width="18.547" height="18.547" transform="translate(126.116 76.042)" fill="url(#linear-gradient)"/>
          <path id="Path_886" data-name="Path 886" d="M200.868,153.821c23.939-14.471,36.535-38.209,36.535-69.1,0-14.439-2.769-27.425-8.23-38.6A71.787,71.787,0,0,0,206.4,19.27C188.951,6.664,164.4,0,135.4,0s-53.555,6.664-71,19.269A71.783,71.783,0,0,0,41.62,46.121c-5.461,11.17-8.229,24.156-8.229,38.6a104.282,104.282,0,0,0,.634,11.561A62,62,0,0,0,10.56,117.034c-7,10.6-10.553,23.484-10.553,38.309,0,24.878,9.95,44.122,28.879,56.1a54.969,54.969,0,0,1-5.043,11.592L14.117,237.4H31.581c.182,0,.38.005.593.005A50.216,50.216,0,0,0,66.02,223.9a142.912,142.912,0,0,0,17.447.98c22.332,0,41.557-4.889,55.6-14.138a59.953,59.953,0,0,0,25.8-37,62.693,62.693,0,0,0,35.2,11.725h.177l16.786.03-8.913-14.2A79.693,79.693,0,0,1,200.868,153.821ZM128.86,195.253c-11,7.248-26.7,11.079-45.394,11.079a114.946,114.946,0,0,1-19.284-1.439l-5.163-.877L55.6,207.985a30.719,30.719,0,0,1-8.35,6.83c.536-1.847,1.048-3.821,1.512-5.917l1.574-7.1-6.525-3.218c-16.761-8.268-25.26-22.814-25.26-43.232,0-18.039,6.628-31.48,19.723-40.077a74.162,74.162,0,0,0,3.347,8.021A71.53,71.53,0,0,0,64.406,150.08c17.42,12.536,41.967,19.162,70.989,19.162,4.071,0,7.906-.1,11.544-.3a41.517,41.517,0,0,1-18.078,26.311Zm57.128-54.415-6.525,3.218,1.573,7.1a117.35,117.35,0,0,0,3.5,12.507,42.389,42.389,0,0,1-16.073-11.635l-3.417-3.969-5.163.877a147.074,147.074,0,0,1-24.493,1.752c-31.169,0-83.46-8.571-83.46-65.974,0-57.574,52.29-66.17,83.46-66.17s83.46,8.6,83.46,66.17c.007,26.486-11.05,45.365-32.861,56.124Z" transform="translate(-0.007)" fill="url(#linear-gradient)"/>
        </g>
      </g>
    </g>
  </g>
  <path id="Icon_map-expand" data-name="Icon map-expand" d="M1.44,21.479V1.44H22.267l7.664,5.826H17.159L30.57,21.479l-8.3,7.635L8.723,16.371V29.143Zm67,26.209V68.44H47.613l-7.664-5.826H52.721L39.31,48.044l8.3-7.813L61.157,52.8V40.023Z" transform="translate(196.429 -1.44)" fill="url(#linear-gradient-5)"/>
</svg>