<svg xmlns="http://www.w3.org/2000/svg" width="528" height="477" viewBox="0 0 528 477">
  <g id="Group_2073" data-name="Group 2073" transform="translate(-7587 -1189)">
    <g id="Collapse_White" data-name="Collapse White" transform="translate(7859 1433.5)">
      <g id="Collapse_White-2" data-name="Collapse White" transform="translate(-256 -232.5)">
        <g id="_160-chat" data-name="160-chat" transform="translate(256 232.5)">
          <path id="_160-chat-2" data-name="160-chat" d="M91.419,465H91l-35.955-.053,18.983-30.52c.1-.162,11.107-18.3,19.591-48.232C32.285,350.172,0,290.284,0,212c0-36.2,6.924-68.709,20.578-96.641a179.13,179.13,0,0,1,56.831-67C121.2,16.722,182.953,0,256,0S390.8,16.723,434.591,48.36a179.13,179.13,0,0,1,56.831,67C505.076,143.29,512,175.8,512,212s-6.924,68.709-20.578,96.641a179.137,179.137,0,0,1-56.831,67C390.8,407.277,329.047,424,256,424a428.4,428.4,0,0,1-58.846-3.909C154.825,462.552,102.766,465,91.419,465Z" transform="translate(-256 -232.5)" fill="#737373"/>
        </g>
        <g id="Group_1952" data-name="Group 1952" transform="matrix(0.985, -0.174, 0.174, 0.985, -7625.628, 725.351)">
          <g id="_156-up-arrow-1" data-name="156-up-arrow-1" transform="matrix(-0.875, 0.485, -0.485, -0.875, 7881.784, 832.765)">
            <path id="_156-up-arrow-1-2" data-name="156-up-arrow-1" d="M100.34,82.212l-50.078-50.4L0,82.184V45.009L41.95,3.43A11.671,11.671,0,0,1,50.251,0h.012A11.68,11.68,0,0,1,58.58,3.459l41.76,41.554Z" fill="#737373"/>
          </g>
          <g id="_155-right-arrow" data-name="155-right-arrow" transform="translate(7868.59 980.238) rotate(-128)">
            <path id="_155-right-arrow-2" data-name="155-right-arrow" d="M37.2,100.34H0L50.4,50.262.029,0H37.2L78.782,41.95a11.758,11.758,0,0,1-.028,16.63Z" fill="#737373"/>
          </g>
        </g>
      </g>
    </g>
    <g id="Collapse_White-3" data-name="Collapse White" transform="translate(7843 1421.5)">
      <g id="Collapse_White-4" data-name="Collapse White" transform="translate(-256 -232.5)">
        <g id="_160-chat-3" data-name="160-chat" transform="translate(256 232.5)">
          <path id="_160-chat-4" data-name="160-chat" d="M91.419,465H91l-35.955-.053,18.983-30.52c.1-.162,11.107-18.3,19.591-48.232C32.285,350.172,0,290.284,0,212c0-36.2,6.924-68.709,20.578-96.641a179.13,179.13,0,0,1,56.831-67C121.2,16.722,182.953,0,256,0S390.8,16.723,434.591,48.36a179.13,179.13,0,0,1,56.831,67C505.076,143.29,512,175.8,512,212s-6.924,68.709-20.578,96.641a179.137,179.137,0,0,1-56.831,67C390.8,407.277,329.047,424,256,424a428.4,428.4,0,0,1-58.846-3.909C154.825,462.552,102.766,465,91.419,465Z" transform="translate(-256 -232.5)" fill="#fff"/>
        </g>
        <g id="Group_1952-2" data-name="Group 1952" transform="matrix(0.985, -0.174, 0.174, 0.985, -7625.628, 725.351)">
          <g id="_156-up-arrow-1-3" data-name="156-up-arrow-1" transform="matrix(-0.829, 0.559, -0.559, -0.829, 7882.555, 827.16)">
            <path id="_156-up-arrow-1-4" data-name="156-up-arrow-1" d="M100.34,82.212l-50.078-50.4L0,82.184V45.009L41.95,3.43A11.671,11.671,0,0,1,50.251,0h.012A11.68,11.68,0,0,1,58.58,3.459l41.76,41.554Z" fill="#303fe1"/>
          </g>
          <g id="_155-right-arrow-3" data-name="155-right-arrow" transform="matrix(-0.574, -0.819, 0.819, -0.574, 7865.297, 979.407)">
            <path id="_155-right-arrow-4" data-name="155-right-arrow" d="M37.2,100.34H0L50.4,50.262.029,0H37.2L78.782,41.95a11.758,11.758,0,0,1-.028,16.63Z" fill="#303fe1"/>
          </g>
        </g>
      </g>
    </g>
  </g>
</svg>
