<svg xmlns="http://www.w3.org/2000/svg" xmlns:xlink="http://www.w3.org/1999/xlink" width="237.396" height="237.402" viewBox="0 0 237.396 237.402">
  <defs>
    <linearGradient id="linear-gradient" x1="0.5" x2="0.5" y2="1" gradientUnits="objectBoundingBox">
      <stop offset="0" stop-color="#00b0e8"/>
      <stop offset="1" stop-color="#00d9b0"/>
    </linearGradient>
  </defs>
  <g id="_029-chat" data-name="029-chat" transform="translate(255.993 256)">
    <g id="_029-chat-2" data-name="029-chat" transform="translate(-255.993 -255.999)">
      <g id="Group_1783" data-name="Group 1783">
        <g id="Group_1782" data-name="Group 1782">
          <rect id="Rectangle_1126" data-name="Rectangle 1126" width="18.547" height="18.547" transform="translate(89.023 76.042)" fill="url(#linear-gradient)"/>
          <rect id="Rectangle_1127" data-name="Rectangle 1127" width="18.547" height="18.547" transform="translate(163.21 76.042)" fill="url(#linear-gradient)"/>
          <rect id="Rectangle_1128" data-name="Rectangle 1128" width="18.547" height="18.547" transform="translate(126.116 76.042)" fill="url(#linear-gradient)"/>
          <path id="Path_886" data-name="Path 886" d="M200.868,153.821c23.939-14.471,36.535-38.209,36.535-69.1,0-14.439-2.769-27.425-8.23-38.6A71.787,71.787,0,0,0,206.4,19.27C188.951,6.664,164.4,0,135.4,0s-53.555,6.664-71,19.269A71.783,71.783,0,0,0,41.62,46.121c-5.461,11.17-8.229,24.156-8.229,38.6a104.283,104.283,0,0,0,.634,11.561A62,62,0,0,0,10.56,117.034c-7,10.6-10.553,23.484-10.553,38.309,0,24.878,9.95,44.122,28.879,56.1a54.969,54.969,0,0,1-5.043,11.592L14.117,237.4H31.581c.182,0,.38.005.593.005A50.216,50.216,0,0,0,66.02,223.9a142.907,142.907,0,0,0,17.447.98c22.332,0,41.557-4.889,55.6-14.138a59.953,59.953,0,0,0,25.8-37,62.693,62.693,0,0,0,35.2,11.725h.177l16.786.03-8.913-14.2A79.692,79.692,0,0,1,200.868,153.821Zm-72.008,41.432c-11,7.248-26.7,11.079-45.394,11.079a114.948,114.948,0,0,1-19.284-1.439l-5.163-.877L55.6,207.985a30.719,30.719,0,0,1-8.35,6.83c.536-1.847,1.048-3.821,1.512-5.917l1.574-7.1-6.525-3.218c-16.761-8.268-25.26-22.814-25.26-43.232,0-18.039,6.628-31.48,19.723-40.077a74.165,74.165,0,0,0,3.347,8.021,71.53,71.53,0,0,0,22.785,26.788c17.42,12.536,41.967,19.162,70.989,19.162,4.071,0,7.906-.1,11.544-.3A41.517,41.517,0,0,1,128.861,195.253Zm57.128-54.415-6.525,3.218,1.573,7.1a117.354,117.354,0,0,0,3.5,12.507,42.389,42.389,0,0,1-16.073-11.635l-3.417-3.969-5.163.877a147.073,147.073,0,0,1-24.493,1.752c-31.169,0-83.46-8.571-83.46-65.974,0-57.574,52.29-66.17,83.46-66.17s83.46,8.6,83.46,66.17C218.857,111.2,207.8,130.079,185.989,140.838Z" transform="translate(-0.007 0)" fill="url(#linear-gradient)"/>
        </g>
      </g>
    </g>
  </g>
</svg>
