<svg xmlns="http://www.w3.org/2000/svg" width="524" height="468" viewBox="0 0 524 468">
  <g id="Group_2072" data-name="Group 2072" transform="translate(-6933 -1177)">
    <g id="Expand_-_White" data-name="Expand - White" transform="translate(7201 1412.5)">
      <g id="Expand_-_White-2" data-name="Expand - White" transform="translate(-256 -232.5)">
        <g id="_160-chat" data-name="160-chat" transform="translate(256 232.5)">
          <path id="_160-chat-2" data-name="160-chat" d="M91.419,465H91l-35.955-.053,18.983-30.52c.1-.162,11.107-18.3,19.591-48.232C32.285,350.172,0,290.284,0,212c0-36.2,6.924-68.709,20.578-96.641a179.13,179.13,0,0,1,56.831-67C121.2,16.722,182.953,0,256,0S390.8,16.723,434.591,48.36a179.13,179.13,0,0,1,56.831,67C505.076,143.29,512,175.8,512,212s-6.924,68.709-20.578,96.641a179.137,179.137,0,0,1-56.831,67C390.8,407.277,329.047,424,256,424a428.4,428.4,0,0,1-58.846-3.909C154.825,462.552,102.766,465,91.419,465Z" transform="translate(-256 -232.5)" fill="#707070"/>
        </g>
        <g id="Group_1951" data-name="Group 1951" transform="matrix(0.985, -0.174, 0.174, 0.985, -7629.488, 725.351)">
          <g id="_156-up-arrow-1" data-name="156-up-arrow-1" transform="matrix(0.788, -0.616, 0.616, 0.788, 7753.134, 819.631)">
            <path id="_156-up-arrow-1-2" data-name="156-up-arrow-1" d="M100.34,82.212l-50.078-50.4L0,82.184V45.009L41.95,3.43A11.671,11.671,0,0,1,50.251,0h.012A11.68,11.68,0,0,1,58.58,3.459l41.76,41.554Z" fill="#707070" stroke="#707070" stroke-width="1"/>
          </g>
          <g id="_155-right-arrow" data-name="155-right-arrow" transform="matrix(0.53, 0.848, -0.848, 0.53, 7903.581, 855.512)">
            <path id="_155-right-arrow-2" data-name="155-right-arrow" d="M37.2,100.34H0L50.4,50.262.029,0H37.2L78.782,41.95a11.758,11.758,0,0,1-.028,16.63ZM33.941,92.5Z" fill="#707070"/>
          </g>
        </g>
      </g>
    </g>
    <g id="Expand_-_White-3" data-name="Expand - White" transform="translate(7189 1409.5)">
      <g id="Expand_-_White-4" data-name="Expand - White" transform="translate(-256 -232.5)">
        <g id="_160-chat-3" data-name="160-chat" transform="translate(256 232.5)">
          <path id="_160-chat-4" data-name="160-chat" d="M91.419,465H91l-35.955-.053,18.983-30.52c.1-.162,11.107-18.3,19.591-48.232C32.285,350.172,0,290.284,0,212c0-36.2,6.924-68.709,20.578-96.641a179.13,179.13,0,0,1,56.831-67C121.2,16.722,182.953,0,256,0S390.8,16.723,434.591,48.36a179.13,179.13,0,0,1,56.831,67C505.076,143.29,512,175.8,512,212s-6.924,68.709-20.578,96.641a179.137,179.137,0,0,1-56.831,67C390.8,407.277,329.047,424,256,424a428.4,428.4,0,0,1-58.846-3.909C154.825,462.552,102.766,465,91.419,465Z" transform="translate(-256 -232.5)" fill="#fff"/>
        </g>
        <g id="Group_1951-2" data-name="Group 1951" transform="matrix(0.985, -0.174, 0.174, 0.985, -7629.488, 725.351)">
          <g id="_156-up-arrow-1-3" data-name="156-up-arrow-1" transform="translate(7753.302 816.221) rotate(-35)">
            <path id="_156-up-arrow-1-4" data-name="156-up-arrow-1" d="M100.34,82.212l-50.078-50.4L0,82.184V45.009L41.95,3.43A11.671,11.671,0,0,1,50.251,0h.012A11.68,11.68,0,0,1,58.58,3.459l41.76,41.554Z" fill="#303fe1"/>
          </g>
          <g id="_155-right-arrow-3" data-name="155-right-arrow" transform="translate(7902.022 850.747) rotate(55)">
            <path id="_155-right-arrow-4" data-name="155-right-arrow" d="M37.2,100.34H0L50.4,50.262.029,0H37.2L78.782,41.95a11.758,11.758,0,0,1-.028,16.63ZM33.941,92.5Z" fill="#303fe1"/>
          </g>
        </g>
      </g>
    </g>
    <g id="Path_1459" data-name="Path 1459" transform="translate(7133 1339)" fill="#303fe1" opacity="0.16">
      <path d="M 42.02952194213867 109.3042297363281 C 41.58217620849609 108.8387680053711 40.91535568237305 108.1483688354492 40.09604263305664 107.3000717163086 C 31.36305046081543 98.25818634033203 4.890016078948975 70.84891510009766 0.5 63.88167953491211 L 0.5 16 C 0.5 11.85980033874512 2.112285614013672 7.967414855957031 5.039843082427979 5.039843082427979 C 7.96598482131958 2.113715648651123 11.85635280609131 0.50157630443573 15.99428939819336 0.5000026226043701 L 77.10871124267578 1.897764801979065 C 78.82720184326172 3.799391269683838 81.54019927978516 6.536434173583984 84.66780090332031 9.691771507263184 C 90.07534027099609 15.14725780487061 96.80519866943359 21.93678665161133 102.1862411499023 28.2140007019043 C 108.3664016723633 35.42341613769531 111.5 40.51881408691406 111.5 43.358642578125 L 111.5 90 C 111.5 94.14019775390625 109.8877105712891 98.03258514404297 106.9601593017578 100.9601593017578 C 104.032585144043 103.8877182006836 100.1401977539063 105.5 96 105.5 L 95.98239898681641 105.5 L 95.96482849121094 105.5012435913086 L 42.02952194213867 109.3042297363281 Z" stroke="none"/>
      <path d="M 15.98876190185547 0.9999923706054688 C 11.98622131347656 1.002845764160156 8.223930358886719 2.562858581542969 5.393402099609375 5.393386840820313 C 2.560279846191406 8.226516723632813 1 11.99334716796875 1 15.99999237060547 L 1 63.73587036132813 C 2.926078796386719 66.72279357910156 8.965965270996094 73.66766357421875 18.96379852294922 84.39077758789063 C 27.30009460449219 93.33180236816406 36.18587493896484 102.531867980957 40.45615386962891 106.9531936645508 C 41.18159484863281 107.7042999267578 41.78758239746094 108.3317184448242 42.22772216796875 108.7890014648438 L 95.92965698242188 105.0024642944336 L 95.96478271484375 104.9999923706055 L 96 104.9999923706055 C 100.0066452026367 104.9999923706055 103.7734756469727 103.4397125244141 106.6065979003906 100.6065902709961 C 109.4397201538086 97.77346801757813 111 94.00663757324219 111 89.99999237060547 L 111 43.35863494873047 C 111 41.95722198486328 110.1456604003906 39.89955902099609 108.4607391357422 37.24279022216797 C 106.9385528564453 34.84263610839844 104.6997833251953 31.91439056396484 101.8066177368164 28.53939056396484 C 96.43733978271484 22.27591705322266 89.71453857421875 15.49349975585938 84.31267547607422 10.04374694824219 C 81.26718139648438 6.97125244140625 78.61415100097656 4.294685363769531 76.88262939453125 2.392730712890625 L 15.98876190185547 0.9999923706054688 M 16 -7.62939453125e-06 L 77.3359375 1.402839660644531 C 84.72266387939453 9.64501953125 112 34.52207946777344 112 43.35863494873047 L 112 89.99999237060547 C 112 98.83656311035156 104.836555480957 105.9999923706055 96 105.9999923706055 L 41.83106231689453 109.819450378418 C 37.39305877685547 105.1912841796875 4.646003723144531 71.58837890625 0 64.02452850341797 L 0 15.99999237060547 C 0 7.163436889648438 7.163444519042969 -7.62939453125e-06 16 -7.62939453125e-06 Z" stroke="none" fill="#707070"/>
    </g>
    <rect id="Rectangle_1229" data-name="Rectangle 1229" width="76" height="73" transform="translate(7151 1355)" fill="#fff"/>
  </g>
</svg>
