<svg id="Messenger-Collapse-banner" xmlns="http://www.w3.org/2000/svg" width="30" height="27.246" viewBox="0 0 30 27.246">
  <g id="_160-chat" data-name="160-chat">
    <path id="_160-chat-2" data-name="160-chat" d="M5.357,27.246H5.332l-2.107,0,1.112-1.788a12.442,12.442,0,0,0,1.148-2.826C1.892,20.518,0,17.009,0,12.422A12.794,12.794,0,0,1,1.206,6.759a10.5,10.5,0,0,1,3.33-3.926C7.1.98,10.72,0,15,0s7.9.98,10.464,2.834a10.5,10.5,0,0,1,3.33,3.926A12.793,12.793,0,0,1,30,12.422a12.794,12.794,0,0,1-1.206,5.663,10.5,10.5,0,0,1-3.33,3.926C22.9,23.864,19.28,24.844,15,24.844a25.1,25.1,0,0,1-3.448-.229A9.078,9.078,0,0,1,5.357,27.246ZM15,2.344c-3.784,0-6.928.826-9.092,2.39-2.365,1.709-3.565,4.3-3.565,7.688,0,4.036,1.689,6.915,5.019,8.558l.825.407-.2.9a17.347,17.347,0,0,1-.668,2.273A6.575,6.575,0,0,0,10.228,22.6l.432-.5.653.111A22.128,22.128,0,0,0,15,22.5c3.784,0,6.928-.826,9.092-2.39,2.365-1.709,3.565-4.3,3.565-7.688s-1.2-5.98-3.565-7.688C21.928,3.17,18.784,2.344,15,2.344Z" fill="#fff"/>
  </g>
  <g id="Group_1952" data-name="Group 1952" transform="matrix(0.985, -0.174, 0.174, 0.985, 6.564, 6.293)">
    <g id="_155-right-arrow" data-name="155-right-arrow" transform="translate(8.449 15.677) rotate(-128)">
      <path id="_155-right-arrow-2" data-name="155-right-arrow" d="M2.9,7.834H0l3.935-3.91L0,0H2.9L6.151,3.275a.918.918,0,0,1,0,1.3Zm-1.42-.612H2.65L5.716,4.141a.306.306,0,0,0,0-.434L2.65.612H1.482L4.8,3.925Z" transform="translate(0 0)" fill="#fff"/>
    </g>
    <g id="_155-right-arrow-3" data-name="155-right-arrow" transform="matrix(0.53, 0.848, -0.848, 0.53, 6.644, 0)">
      <path id="_155-right-arrow-4" data-name="155-right-arrow" d="M2.9,7.834H0l3.935-3.91L0,0H2.9L6.151,3.275a.918.918,0,0,1,0,1.3Zm-1.42-.612H2.65L5.716,4.141a.306.306,0,0,0,0-.434L2.65.612H1.482L4.8,3.925Z" transform="translate(0 0)" fill="#fff"/>
    </g>
  </g>
</svg>
