<svg id="Messenger-Expand-banner" xmlns="http://www.w3.org/2000/svg" width="30" height="27.246" viewBox="0 0 30 27.246">
  <path id="_160-chat" data-name="160-chat" d="M5.357,27.246H5.332l-2.107,0,1.112-1.788a12.442,12.442,0,0,0,1.148-2.826C1.892,20.518,0,17.009,0,12.422A12.794,12.794,0,0,1,1.206,6.759a10.5,10.5,0,0,1,3.33-3.926C7.1.98,10.72,0,15,0s7.9.98,10.464,2.834a10.5,10.5,0,0,1,3.33,3.926A12.793,12.793,0,0,1,30,12.422a12.794,12.794,0,0,1-1.206,5.663,10.5,10.5,0,0,1-3.33,3.926C22.9,23.864,19.28,24.844,15,24.844a25.1,25.1,0,0,1-3.448-.229A9.078,9.078,0,0,1,5.357,27.246ZM15,2.344c-3.784,0-6.928.826-9.092,2.39-2.365,1.709-3.565,4.3-3.565,7.688,0,4.036,1.689,6.915,5.019,8.558l.825.407-.2.9a17.347,17.347,0,0,1-.668,2.273A6.575,6.575,0,0,0,10.228,22.6l.432-.5.653.111A22.128,22.128,0,0,0,15,22.5c3.784,0,6.928-.826,9.092-2.39,2.365-1.709,3.565-4.3,3.565-7.688s-1.2-5.98-3.565-7.688C21.928,3.17,18.784,2.344,15,2.344Z" fill="#fff"/>
</svg>
