<?xml version="1.0" encoding="iso-8859-1"?>
<!-- Generator: Adobe Illustrator 19.0.0, SVG Export Plug-In . SVG Version: 6.00 Build 0)  -->
<svg version="1.1" id="Capa_1" xmlns="http://www.w3.org/2000/svg" xmlns:xlink="http://www.w3.org/1999/xlink" x="0px" y="0px"
	 viewBox="0 0 512 512" style="enable-background:new 0 0 512 512;" xml:space="preserve">
<linearGradient id="SVGID_1_" gradientUnits="userSpaceOnUse" x1="256" y1="514" x2="256" y2="2" gradientTransform="matrix(1 0 0 -1 0 514)">
	<stop  offset="0" style="stop-color:#2AF598"/>
	<stop  offset="1" style="stop-color:#009EFD"/>
</linearGradient>
<path style="fill:url(#SVGID_1_);" d="M452,40h-24V0h-40v40H124V0H84v40H60C26.916,40,0,66.916,0,100v352c0,33.084,26.916,60,60,60
	h176v-40H60c-11.028,0-20-8.972-20-20V188h432v42h40V100C512,66.916,485.084,40,452,40z M40,148v-48c0-11.028,8.972-20,20-20h24v40
	h40V80h264v40h40V80h24c11.028,0,20,8.972,20,20v48H40z M116,270H76v-40h40V270z M196,270h-40v-40h40V270z M276,270h-40v-40h40V270z
	 M116,350H76v-40h40V350z M196,350h-40v-40h40V350z M236,310h40v40h-40V310z M76,390h40v40H76V390z M156,390h40v40h-40V390z
	 M483,375v-30c0-23.591-9.086-45.861-25.585-62.708c-12.055-12.309-27.055-20.66-43.415-24.424V230h-40v27.868
	c-16.36,3.764-31.36,12.115-43.415,24.424C314.086,299.138,305,321.408,305,345v33.244c0,4.564-1.258,8.367-3.542,10.707
	C285.041,405.766,276,427.538,276,450.257v21.816h116.564C382.207,472.814,374,481.457,374,492c0,11.027,8.973,20,20,20
	s20-8.973,20-20c0-10.543-8.207-19.186-18.564-19.927H512v-23.375c0-22.058-8.822-43.172-24.843-59.454
	C484.516,386.559,483,381.367,483,375z M319.81,432.073c2.381-5.498,5.84-10.643,10.271-15.181
	c9.621-9.855,14.92-23.581,14.92-38.648V345c0-26.847,21.616-48.986,48.21-49.41h1.58C421.384,296.014,443,318.153,443,345v30
	c0,21.818,8.508,35.044,15.646,42.298c4.334,4.404,7.688,9.417,9.95,14.774H319.81V432.073z"/>
<g>
</g>
<g>
</g>
<g>
</g>
<g>
</g>
<g>
</g>
<g>
</g>
<g>
</g>
<g>
</g>
<g>
</g>
<g>
</g>
<g>
</g>
<g>
</g>
<g>
</g>
<g>
</g>
<g>
</g>
</svg>
