<?xml version="1.0" encoding="iso-8859-1"?>
<!-- Generator: Adobe Illustrator 19.0.0, SVG Export Plug-In . SVG Version: 6.00 Build 0)  -->
<svg version="1.1" id="Capa_1" xmlns="http://www.w3.org/2000/svg" xmlns:xlink="http://www.w3.org/1999/xlink" x="0px" y="0px"
	 viewBox="0 0 512 512" style="enable-background:new 0 0 512 512;" xml:space="preserve">
<linearGradient id="SVGID_1_" gradientUnits="userSpaceOnUse" x1="256" y1="514" x2="256" y2="2" gradientTransform="matrix(1 0 0 -1 0 514)">
	<stop  offset="0" style="stop-color:#2AF598"/>
	<stop  offset="1" style="stop-color:#009EFD"/>
</linearGradient>
<path style="fill:url(#SVGID_1_);" d="M135,205c0,52.383,42.617,95,95,95s95-42.617,95-95s-42.617-95-95-95S135,152.617,135,205z
	 M285,205c0,30.327-24.673,55-55,55s-55-24.673-55-55s24.673-55,55-55S285,174.673,285,205z M487,428h-84v84h-40v-84h-84v-40h84v-84
	h40v84h84V428z M230,459.729c11.758,9.72,21.998,18.395,30.914,26.123c-10.747,9.538-17.621,15.121-18.345,15.706L230,511.712
	l-12.569-10.155c-1.944-1.57-48.151-39.086-95.013-92.888C57.776,334.453,25,267.835,25,210.667V205C25,91.963,116.963,0,230,0
	s205,91.963,205,205v5.667c0,16.96-2.908,34.758-8.654,53.333h-42.162c6.8-18.04,10.817-36.014,10.817-53.333V205
	c0-90.981-74.019-165-165-165S65,114.019,65,205v5.667C65,307.271,189.469,424.215,230,459.729z"/>
<g>
</g>
<g>
</g>
<g>
</g>
<g>
</g>
<g>
</g>
<g>
</g>
<g>
</g>
<g>
</g>
<g>
</g>
<g>
</g>
<g>
</g>
<g>
</g>
<g>
</g>
<g>
</g>
<g>
</g>
</svg>
