<?xml version="1.0" encoding="iso-8859-1"?>
<!-- Generator: Adobe Illustrator 19.0.0, SVG Export Plug-In . SVG Version: 6.00 Build 0)  -->
<svg version="1.1" id="Capa_1" xmlns="http://www.w3.org/2000/svg" xmlns:xlink="http://www.w3.org/1999/xlink" x="0px" y="0px"
	 viewBox="0 0 512 512" style="enable-background:new 0 0 512 512;" xml:space="preserve">
<linearGradient id="SVGID_1_" gradientUnits="userSpaceOnUse" x1="255.8284" y1="514.0782" x2="255.8284" y2="2.3662" gradientTransform="matrix(1.0006 0 0 -1.0006 0.0276 514.3675)">
	<stop  offset="0" style="stop-color:#2AF598"/>
	<stop  offset="1" style="stop-color:#009EFD"/>
</linearGradient>
<path style="fill:url(#SVGID_1_);" d="M256,0C142.899,0,50.885,92.015,50.885,205.115v5.67c0,57.2,32.794,123.856,97.473,198.113
	c46.887,53.832,93.12,91.368,95.066,92.94L256,512l12.576-10.161c1.945-1.572,48.178-39.108,95.066-92.94
	c64.678-74.258,97.473-140.913,97.473-198.113v-5.67C461.115,92.015,369.101,0,256,0z M421.093,210.786
	c0,96.665-124.551,213.68-165.093,249.202C215.446,424.455,90.907,307.444,90.907,210.786v-5.67
	c0-91.032,74.061-165.093,165.093-165.093s165.093,74.061,165.093,165.093V210.786z M304.937,194.8
	c6.977-9.809,11.097-21.783,11.097-34.71c0-33.103-26.931-60.034-60.034-60.034s-60.034,26.931-60.034,60.034
	c0,12.926,4.12,24.901,11.097,34.71c-27.036,16.539-45.116,46.342-45.116,80.29h40.023c0-29.793,24.238-54.03,54.03-54.03
	s54.03,24.238,54.03,54.03h40.023C350.053,241.142,331.973,211.339,304.937,194.8z M256,140.079
	c11.034,0,20.011,8.977,20.011,20.011c0,11.034-8.977,20.011-20.011,20.011c-11.034,0-20.011-8.977-20.011-20.011
	C235.989,149.056,244.966,140.079,256,140.079z"/>
<g>
</g>
<g>
</g>
<g>
</g>
<g>
</g>
<g>
</g>
<g>
</g>
<g>
</g>
<g>
</g>
<g>
</g>
<g>
</g>
<g>
</g>
<g>
</g>
<g>
</g>
<g>
</g>
<g>
</g>
</svg>
