<svg xmlns="http://www.w3.org/2000/svg" xmlns:xlink="http://www.w3.org/1999/xlink" viewBox="0 0 372.86 401.57"><defs><style>.cls-1{fill:none;}.cls-2{isolation:isolate;}.cls-3{fill:#f36f21;}.cls-4{opacity:0.3;mix-blend-mode:multiply;}.cls-5{clip-path:url(#clip-path);}.cls-6{fill:#231f20;}.cls-7{opacity:0.8;}.cls-8{fill:#fff;}</style><clipPath id="clip-path"><rect class="cls-1" width="333" height="333" rx="47.28"/></clipPath></defs><g class="cls-2"><g id="Layer_2" data-name="Layer 2"><g id="Layer_1-2" data-name="Layer 1"><rect class="cls-3" width="333" height="333" rx="47.28"/><g class="cls-4"><g class="cls-5"><g id="Group_1984" data-name="Group 1984"><g id="Assign_Task" data-name="Assign Task"><g id="Assign_Task-2" data-name="Assign Task-2"><path id="_014-audit" data-name=" 014-audit" class="cls-6" d="M157.69,87v-9a9,9,0,0,1,18.08,0v9h18.08v17.63H139.61V87Zm68.7-18.08H192.3a27.13,27.13,0,0,0-51.15,0H106.61A27.16,27.16,0,0,0,79.49,96v159.1a27.14,27.14,0,0,0,27.12,27.12H226.42a27.15,27.15,0,0,0,27.09-27.12V96A27.16,27.16,0,0,0,226.39,68.87Zm9,186.22a9,9,0,0,1-9,9H106.61a9,9,0,0,1-9-9V96a9.06,9.06,0,0,1,9-9h14.92v35.71h90.4V87h14.46a9.06,9.06,0,0,1,9,9Z"/></g></g><g id="_062-check" data-name=" 062-check"><path id="_062-check-2" data-name=" 062-check-2" class="cls-6" d="M162.09,226.79l-20.68-32.47,10.35-6.44,10.33,20.28,36.76-39.85,6.66,10Z"/></g></g><path class="cls-6" d="M158.39,87.66v-9a9,9,0,1,1,18.08,0v9h18.08v17.63H140.31V87.66ZM227.1,69.58H193a27.12,27.12,0,0,0-51.14,0H107.32A27.15,27.15,0,0,0,80.2,96.7V255.8a27.15,27.15,0,0,0,27.12,27.12h119.8a27.16,27.16,0,0,0,27.1-27.12V96.7A27.16,27.16,0,0,0,227.1,69.58Zm9,186.22a9.06,9.06,0,0,1-9,9H107.32a9,9,0,0,1-9-9V96.7a9,9,0,0,1,9-9h14.91v35.71h90.4V87.66H227.1a9,9,0,0,1,9,9Z"/><polygon class="cls-6" points="162.79 227.5 142.12 195.03 152.47 188.59 162.79 208.87 199.56 169.02 206.22 179 162.79 227.5"/><path class="cls-6" d="M159.1,88.37v-9a9,9,0,0,1,18.08,0v9h18.08V106H141V88.37Zm68.7-18.08H193.71a27.12,27.12,0,0,0-51.14,0H108A27.14,27.14,0,0,0,80.9,97.4V256.51A27.16,27.16,0,0,0,108,283.63H227.83a27.16,27.16,0,0,0,27.09-27.12V97.4A27.14,27.14,0,0,0,227.8,70.29Zm9,186.22a9.05,9.05,0,0,1-9,9H108a9.06,9.06,0,0,1-9-9V97.4a9,9,0,0,1,9-9h14.92v35.7h90.4V88.37H227.8a9,9,0,0,1,9,9Z"/><polygon class="cls-6" points="163.5 228.2 142.83 195.73 153.18 189.29 163.5 209.58 200.27 169.72 206.92 179.71 163.5 228.2"/><path class="cls-6" d="M159.8,89.07V80a9,9,0,0,1,18.08,0v9H196V106.7H141.73V89.07ZM228.51,71H194.42a27.13,27.13,0,0,0-51.15,0H108.73A27.16,27.16,0,0,0,81.61,98.11v159.1a27.15,27.15,0,0,0,27.12,27.12H228.54a27.16,27.16,0,0,0,27.09-27.12V98.11A27.16,27.16,0,0,0,228.51,71Zm9,186.22a9,9,0,0,1-9,9H108.73a9,9,0,0,1-9-9V98.11a9.06,9.06,0,0,1,9-9h14.92v35.71H214V89.07h14.47a9.06,9.06,0,0,1,9,9Z"/><polygon class="cls-6" points="164.21 228.91 143.53 196.44 153.88 190 164.21 210.28 200.97 170.43 207.63 180.41 164.21 228.91"/><path class="cls-6" d="M160.51,89.78v-9a9,9,0,1,1,18.08,0v9h18.08v17.63H142.43V89.78Zm68.7-18.08H195.12a27.12,27.12,0,0,0-51.14,0H109.44A27.14,27.14,0,0,0,82.32,98.82v159.1A27.14,27.14,0,0,0,109.44,285h119.8a27.16,27.16,0,0,0,27.09-27.12V98.82A27.14,27.14,0,0,0,229.21,71.7Zm9,186.22a9,9,0,0,1-9,9H109.44a9,9,0,0,1-9-9V98.82a9,9,0,0,1,9-9h14.91v35.71h90.4V89.78h14.46a9,9,0,0,1,9,9Z"/><polygon class="cls-6" points="164.91 229.62 144.24 197.14 154.59 190.7 164.91 210.99 201.68 171.14 208.34 181.12 164.91 229.62"/><path class="cls-6" d="M161.22,90.48v-9a9,9,0,0,1,18.08,0v9h18.08v17.63H143.14V90.48Zm68.7-18.08H195.83a27.12,27.12,0,0,0-51.14,0H110.14A27.16,27.16,0,0,0,83,99.52V258.63a27.16,27.16,0,0,0,27.12,27.12H230A27.16,27.16,0,0,0,257,258.63V99.52A27.16,27.16,0,0,0,229.92,72.4Zm9,186.23a9.06,9.06,0,0,1-9,9H110.14a9.06,9.06,0,0,1-9-9V99.52a9.06,9.06,0,0,1,9-9h14.92v35.71h90.4V90.48h14.46a9.06,9.06,0,0,1,9,9Z"/><polygon class="cls-6" points="165.62 230.32 144.95 197.85 155.29 191.41 165.62 211.69 202.38 171.84 209.04 181.83 165.62 230.32"/><path class="cls-6" d="M161.92,91.19v-9a9,9,0,1,1,18.08,0v9h18.08v17.63H143.84V91.19Zm68.71-18.08h-34.1a27.12,27.12,0,0,0-51.14,0H110.85a27.15,27.15,0,0,0-27.12,27.12v159.1a27.14,27.14,0,0,0,27.12,27.12H230.66a27.16,27.16,0,0,0,27.09-27.12V100.23A27.16,27.16,0,0,0,230.63,73.11Zm9,186.22a9.06,9.06,0,0,1-9,9H110.85a9,9,0,0,1-9-9V100.23a9,9,0,0,1,9-9h14.91V126.9h90.4V91.19h14.47a9.06,9.06,0,0,1,9,9Z"/><polygon class="cls-6" points="166.32 231.03 145.65 198.56 156 192.12 166.32 212.4 203.09 172.55 209.75 182.53 166.32 231.03"/><path class="cls-6" d="M162.63,91.9v-9a9,9,0,0,1,18.08,0v9h18.08v17.62H144.55V91.9Zm68.7-18.08H197.24a27.12,27.12,0,0,0-51.14,0H111.55a27.15,27.15,0,0,0-27.12,27.12V260a27.16,27.16,0,0,0,27.12,27.12H231.36A27.16,27.16,0,0,0,258.45,260V100.94A27.14,27.14,0,0,0,231.33,73.82Zm9,186.22a9.05,9.05,0,0,1-9,9H111.55a9.06,9.06,0,0,1-9-9V100.94a9,9,0,0,1,9-9h14.92v35.7h90.4V91.9h14.46a9,9,0,0,1,9,9Z"/><polygon class="cls-6" points="167.03 231.73 146.36 199.26 156.71 192.82 167.03 213.11 203.8 173.26 210.46 183.24 167.03 231.73"/><path class="cls-6" d="M163.34,92.6v-9a9,9,0,1,1,18.08,0v9H199.5v17.63H145.26V92.6ZM232,74.52H198a27.13,27.13,0,0,0-51.15,0H112.26a27.16,27.16,0,0,0-27.12,27.12v159.1a27.14,27.14,0,0,0,27.12,27.12H232.07a27.15,27.15,0,0,0,27.09-27.12V101.64A27.16,27.16,0,0,0,232,74.52Zm9,186.22a9,9,0,0,1-9,9H112.26a9,9,0,0,1-9-9V101.64a9.06,9.06,0,0,1,9-9h14.92v35.71h90.4V92.6H232a9.06,9.06,0,0,1,9,9Z"/><polygon class="cls-6" points="167.74 232.44 147.06 199.97 157.41 193.53 167.74 213.81 204.5 173.96 211.16 183.95 167.74 232.44"/><path class="cls-6" d="M164,93.31v-9a9,9,0,1,1,18.08,0v9H200.2v17.63H146V93.31Zm68.71-18.08h-34.1a27.12,27.12,0,0,0-51.14,0H113a27.15,27.15,0,0,0-27.12,27.12v159.1A27.15,27.15,0,0,0,113,288.57h119.8a27.15,27.15,0,0,0,27.09-27.12V102.35A27.14,27.14,0,0,0,232.75,75.23Zm9,186.22a9.06,9.06,0,0,1-9,9H113a9,9,0,0,1-9-9V102.35a9,9,0,0,1,9-9h14.91V129h90.4V93.31h14.47a9,9,0,0,1,9,9Z"/><polygon class="cls-6" points="168.44 233.15 147.77 200.68 158.12 194.23 168.44 214.52 205.21 174.67 211.87 184.65 168.44 233.15"/><path class="cls-6" d="M164.75,94V85a9,9,0,0,1,18.08,0v9h18.08v17.63H146.67V94Zm68.7-18.07H199.36a27.12,27.12,0,0,0-51.14,0H113.67a27.14,27.14,0,0,0-27.12,27.11V262.16a27.16,27.16,0,0,0,27.12,27.12H233.48a27.16,27.16,0,0,0,27.09-27.12V103.05A27.14,27.14,0,0,0,233.45,75.94Zm9,186.22a9.05,9.05,0,0,1-9,9H113.67a9.06,9.06,0,0,1-9-9V103.05a9.06,9.06,0,0,1,9-9h14.92v35.71H219V94h14.46a9,9,0,0,1,9,9Z"/><polygon class="cls-6" points="169.15 233.85 148.48 201.38 158.83 194.94 169.15 215.23 205.92 175.37 212.57 185.36 169.15 233.85"/><path class="cls-6" d="M165.45,94.72v-9a9,9,0,1,1,18.08,0v9h18.08v17.63H147.37V94.72Zm68.71-18.08H200.07a27.13,27.13,0,0,0-51.15,0H114.38a27.16,27.16,0,0,0-27.12,27.12v159.1A27.15,27.15,0,0,0,114.38,290H234.19a27.16,27.16,0,0,0,27.09-27.12V103.76A27.16,27.16,0,0,0,234.16,76.64Zm9,186.22a9,9,0,0,1-9,9H114.38a9,9,0,0,1-9-9V103.76a9.06,9.06,0,0,1,9-9H129.3v35.71h90.39V94.72h14.47a9.06,9.06,0,0,1,9,9Z"/><polygon class="cls-6" points="169.86 234.56 149.18 202.09 159.53 195.65 169.86 215.93 206.62 176.08 213.28 186.06 169.86 234.56"/><path class="cls-6" d="M166.16,95.43v-9a9,9,0,0,1,18.08,0v9h18.08v17.63H148.08V95.43Zm68.7-18.08H200.77a27.12,27.12,0,0,0-51.14,0H115.09A27.14,27.14,0,0,0,88,104.47v159.1a27.14,27.14,0,0,0,27.12,27.12h119.8A27.16,27.16,0,0,0,262,263.57V104.47A27.14,27.14,0,0,0,234.86,77.35Zm9,186.22a9,9,0,0,1-9,9H115.09a9,9,0,0,1-9-9V104.47a9,9,0,0,1,9-9H130v35.7h90.4V95.43h14.46a9,9,0,0,1,9,9Z"/><polygon class="cls-6" points="170.56 235.26 149.89 202.79 160.24 196.35 170.56 216.64 207.33 176.79 213.99 186.77 170.56 235.26"/><path class="cls-6" d="M166.87,96.13v-9a9,9,0,1,1,18.08,0v9H203v17.63H148.79V96.13Zm68.7-18.08H201.48a27.12,27.12,0,0,0-51.14,0H115.79a27.16,27.16,0,0,0-27.12,27.12V264.28a27.16,27.16,0,0,0,27.12,27.12H235.6a27.16,27.16,0,0,0,27.09-27.12V105.17A27.16,27.16,0,0,0,235.57,78.05Zm9,186.23a9.06,9.06,0,0,1-9,9H115.79a9.06,9.06,0,0,1-9-9V105.17a9.06,9.06,0,0,1,9-9h14.92v35.71h90.4V96.13h14.46a9.06,9.06,0,0,1,9,9Z"/><polygon class="cls-6" points="171.27 235.97 150.59 203.5 160.94 197.06 171.27 217.34 208.03 177.49 214.69 187.48 171.27 235.97"/><path class="cls-6" d="M167.57,96.84v-9a9,9,0,1,1,18.08,0v9h18.08v17.63H149.49V96.84Zm68.71-18.08h-34.1a27.12,27.12,0,0,0-51.14,0H116.5a27.15,27.15,0,0,0-27.12,27.12V265A27.15,27.15,0,0,0,116.5,292.1H236.31A27.16,27.16,0,0,0,263.4,265V105.88A27.16,27.16,0,0,0,236.28,78.76Zm9,186.22a9.06,9.06,0,0,1-9,9H116.5a9,9,0,0,1-9-9V105.88a9,9,0,0,1,9-9h14.91v35.71h90.4V96.84h14.47a9.06,9.06,0,0,1,9,9Z"/><polygon class="cls-6" points="171.97 236.68 151.3 204.21 161.65 197.77 171.97 218.05 208.74 178.2 215.4 188.18 171.97 236.68"/><path class="cls-6" d="M168.28,97.55v-9a9,9,0,0,1,18.08,0v9h18.08v17.62H150.2V97.55ZM237,79.47H202.89a27.12,27.12,0,0,0-51.14,0H117.2a27.15,27.15,0,0,0-27.12,27.12v159.1a27.16,27.16,0,0,0,27.12,27.12H237a27.16,27.16,0,0,0,27.09-27.12V106.59A27.14,27.14,0,0,0,237,79.47Zm9,186.22a9.05,9.05,0,0,1-9,9H117.2a9.06,9.06,0,0,1-9-9V106.59a9,9,0,0,1,9-9h14.92v35.7h90.4V97.55H237a9,9,0,0,1,9,9Z"/><polygon class="cls-6" points="172.68 237.38 152.01 204.91 162.36 198.47 172.68 218.76 209.45 178.91 216.1 188.89 172.68 237.38"/><path class="cls-6" d="M169,98.25v-9a9,9,0,0,1,18.08,0v9h18.08v17.63H150.91V98.25Zm68.7-18.08H203.6a27.13,27.13,0,0,0-51.15,0H117.91a27.16,27.16,0,0,0-27.12,27.12v159.1a27.14,27.14,0,0,0,27.12,27.12H237.72a27.15,27.15,0,0,0,27.09-27.12V107.29A27.16,27.16,0,0,0,237.69,80.17Zm9,186.22a9,9,0,0,1-9,9H117.91a9,9,0,0,1-9-9V107.29a9.06,9.06,0,0,1,9-9h14.92V134h90.4V98.25h14.46a9.06,9.06,0,0,1,9,9Z"/><polygon class="cls-6" points="173.39 238.09 152.71 205.62 163.06 199.18 173.39 219.46 210.15 179.61 216.81 189.6 173.39 238.09"/><path class="cls-6" d="M169.69,99v-9a9,9,0,0,1,18.08,0v9h18.08v17.63H151.61V99ZM238.4,80.88H204.3a27.12,27.12,0,0,0-51.14,0H118.62A27.15,27.15,0,0,0,91.5,108V267.1a27.15,27.15,0,0,0,27.12,27.12h119.8a27.15,27.15,0,0,0,27.09-27.12V108A27.14,27.14,0,0,0,238.4,80.88Zm9,186.22a9.06,9.06,0,0,1-9,9H118.62a9,9,0,0,1-9-9V108a9,9,0,0,1,9-9h14.91v35.71h90.4V99H238.4a9,9,0,0,1,9,9Z"/><polygon class="cls-6" points="174.09 238.8 153.42 206.32 163.77 199.88 174.09 220.17 210.86 180.32 217.52 190.3 174.09 238.8"/><path class="cls-6" d="M170.4,99.66v-9a9,9,0,0,1,18.08,0v9h18.08v17.63H152.32V99.66Zm68.7-18.07H205a27.12,27.12,0,0,0-51.14,0H119.32A27.14,27.14,0,0,0,92.2,108.7V267.81a27.16,27.16,0,0,0,27.12,27.12H239.13a27.16,27.16,0,0,0,27.09-27.12V108.7A27.14,27.14,0,0,0,239.1,81.59Zm9,186.22a9.05,9.05,0,0,1-9,9H119.32a9.06,9.06,0,0,1-9-9V108.7a9.06,9.06,0,0,1,9-9h14.92v35.71h90.4V99.66H239.1a9,9,0,0,1,9,9Z"/><polygon class="cls-6" points="174.8 239.5 154.13 207.03 164.48 200.59 174.8 220.88 211.57 181.02 218.22 191.01 174.8 239.5"/><path class="cls-6" d="M171.1,100.37v-9a9,9,0,0,1,18.08,0v9h18.08V118H153V100.37Zm68.71-18.08H205.72a27.13,27.13,0,0,0-51.15,0H120a27.16,27.16,0,0,0-27.12,27.12v159.1A27.15,27.15,0,0,0,120,295.63H239.84a27.16,27.16,0,0,0,27.09-27.12V109.41A27.16,27.16,0,0,0,239.81,82.29Zm9,186.22a9,9,0,0,1-9,9H120a9,9,0,0,1-9-9V109.41a9.06,9.06,0,0,1,9-9H135v35.71h90.39V100.37h14.47a9.06,9.06,0,0,1,9,9Z"/><polygon class="cls-6" points="175.51 240.21 154.83 207.74 165.18 201.3 175.51 221.58 212.27 181.73 218.93 191.72 175.51 240.21"/><path class="cls-6" d="M171.81,101.08V92a9,9,0,0,1,18.08,0v9H208v17.63H153.73V101.08ZM240.51,83H206.42a27.12,27.12,0,0,0-51.14,0H120.74a27.14,27.14,0,0,0-27.12,27.12v159.1a27.14,27.14,0,0,0,27.12,27.12h119.8a27.16,27.16,0,0,0,27.09-27.12V110.12A27.14,27.14,0,0,0,240.51,83Zm9,186.22a9,9,0,0,1-9,9H120.74a9,9,0,0,1-9-9V110.12a9,9,0,0,1,9-9h14.91v35.7h90.4v-35.7h14.46a9,9,0,0,1,9,9Z"/><polygon class="cls-6" points="176.21 240.91 155.54 208.44 165.89 202 176.21 222.29 212.98 182.44 219.64 192.42 176.21 240.91"/><path class="cls-6" d="M172.52,101.78v-9a9,9,0,1,1,18.08,0v9h18.08v17.63H154.44V101.78Zm68.7-18.08H207.13a27.12,27.12,0,0,0-51.14,0H121.44a27.16,27.16,0,0,0-27.12,27.12V269.93a27.16,27.16,0,0,0,27.12,27.12H241.25a27.16,27.16,0,0,0,27.09-27.12V110.82A27.16,27.16,0,0,0,241.22,83.7Zm9,186.23a9.06,9.06,0,0,1-9,9H121.44a9.06,9.06,0,0,1-9-9V110.82a9.06,9.06,0,0,1,9-9h14.92v35.71h90.4V101.78h14.46a9.06,9.06,0,0,1,9,9Z"/><polygon class="cls-6" points="176.92 241.62 156.25 209.15 166.59 202.71 176.92 223 213.68 183.14 220.34 193.13 176.92 241.62"/><path class="cls-6" d="M173.22,102.49v-9a9,9,0,0,1,18.08,0v9h18.08v17.63H155.14V102.49Zm68.71-18.08h-34.1a27.12,27.12,0,0,0-51.14,0H122.15A27.15,27.15,0,0,0,95,111.53v159.1a27.15,27.15,0,0,0,27.12,27.12H242a27.16,27.16,0,0,0,27.1-27.12V111.53A27.16,27.16,0,0,0,241.93,84.41Zm9,186.22a9.06,9.06,0,0,1-9,9H122.15a9,9,0,0,1-9-9V111.53a9,9,0,0,1,9-9h14.91V138.2h90.4V102.49h14.47a9.06,9.06,0,0,1,9,9Z"/><polygon class="cls-6" points="177.63 242.33 156.95 209.86 167.3 203.42 177.63 223.7 214.39 183.85 221.05 193.83 177.63 242.33"/><path class="cls-6" d="M173.93,103.2v-9a9,9,0,0,1,18.08,0v9h18.08v17.62H155.85V103.2Zm68.7-18.08H208.54a27.12,27.12,0,0,0-51.14,0H122.85a27.14,27.14,0,0,0-27.12,27.12v159.1a27.16,27.16,0,0,0,27.12,27.12H242.66a27.16,27.16,0,0,0,27.09-27.12V112.24A27.14,27.14,0,0,0,242.63,85.12Zm9,186.22a9.05,9.05,0,0,1-9,9H122.85a9.06,9.06,0,0,1-9-9V112.24a9,9,0,0,1,9-9h14.92v35.7h90.4V103.2h14.46a9,9,0,0,1,9,9Z"/><polygon class="cls-6" points="178.33 243.03 157.66 210.56 168.01 204.12 178.33 224.41 215.1 184.56 221.75 194.54 178.33 243.03"/><path class="cls-6" d="M174.64,103.9v-9a9,9,0,1,1,18.08,0v9H210.8v17.63H156.56V103.9Zm68.7-18.08H209.25a27.13,27.13,0,0,0-51.15,0H123.56a27.16,27.16,0,0,0-27.12,27.12V272a27.14,27.14,0,0,0,27.12,27.12H243.37A27.15,27.15,0,0,0,270.46,272V112.94A27.16,27.16,0,0,0,243.34,85.82Zm9,186.22a9,9,0,0,1-9,9H123.56a9,9,0,0,1-9-9V112.94a9.06,9.06,0,0,1,9-9h14.92v35.71h90.4V103.9h14.46a9.06,9.06,0,0,1,9,9Z"/><polygon class="cls-6" points="179.04 243.74 158.36 211.27 168.71 204.83 179.04 225.11 215.8 185.26 222.46 195.25 179.04 243.74"/><path class="cls-6" d="M175.34,104.61v-9a9,9,0,0,1,18.08,0v9H211.5v17.63H157.26V104.61Zm68.71-18.08H210a27.12,27.12,0,0,0-51.14,0H124.27a27.15,27.15,0,0,0-27.12,27.12v159.1a27.15,27.15,0,0,0,27.12,27.12h119.8a27.16,27.16,0,0,0,27.09-27.12V113.65A27.14,27.14,0,0,0,244.05,86.53Zm9,186.22a9.06,9.06,0,0,1-9,9H124.27a9,9,0,0,1-9-9V113.65a9,9,0,0,1,9-9h14.91v35.71h90.4V104.61h14.47a9,9,0,0,1,9,9Z"/><polygon class="cls-6" points="179.74 244.45 159.07 211.97 169.42 205.53 179.74 225.82 216.51 185.97 223.17 195.95 179.74 244.45"/><path class="cls-6" d="M176.05,105.31v-9a9,9,0,0,1,18.08,0v9h18.08v17.63H158V105.31Zm68.7-18.08H210.66a27.12,27.12,0,0,0-51.14,0H125a27.16,27.16,0,0,0-27.12,27.12V273.46A27.16,27.16,0,0,0,125,300.58H244.78a27.16,27.16,0,0,0,27.09-27.12V114.35A27.16,27.16,0,0,0,244.75,87.23Zm9,186.23a9.05,9.05,0,0,1-9,9H125a9.06,9.06,0,0,1-9-9V114.35a9.06,9.06,0,0,1,9-9h14.92V141h90.4V105.31h14.46a9,9,0,0,1,9,9Z"/><polygon class="cls-6" points="180.45 245.15 159.78 212.68 170.13 206.24 180.45 226.53 217.22 186.67 223.87 196.66 180.45 245.15"/><path class="cls-6" d="M176.75,106V97a9,9,0,0,1,18.08,0v9h18.08v17.63H158.67V106Zm68.71-18.08H211.37a27.13,27.13,0,0,0-51.15,0H125.68a27.16,27.16,0,0,0-27.12,27.12v159.1a27.15,27.15,0,0,0,27.12,27.12H245.49a27.16,27.16,0,0,0,27.09-27.12V115.06A27.16,27.16,0,0,0,245.46,87.94Zm9,186.22a9,9,0,0,1-9,9H125.68a9,9,0,0,1-9-9V115.06a9.06,9.06,0,0,1,9-9h14.91v35.71H231V106h14.47a9.06,9.06,0,0,1,9,9Z"/><polygon class="cls-6" points="181.16 245.86 160.48 213.39 170.83 206.95 181.16 227.23 217.92 187.38 224.58 197.36 181.16 245.86"/><path class="cls-6" d="M177.46,106.73v-9a9,9,0,0,1,18.08,0v9h18.08v17.63H159.38V106.73Zm68.7-18.08H212.07a27.12,27.12,0,0,0-51.14,0H126.39a27.14,27.14,0,0,0-27.12,27.12v159.1A27.14,27.14,0,0,0,126.39,302h119.8a27.16,27.16,0,0,0,27.09-27.12V115.77A27.14,27.14,0,0,0,246.16,88.65Zm9,186.22a9,9,0,0,1-9,9H126.39a9,9,0,0,1-9-9V115.77a9,9,0,0,1,9-9H141.3v35.7h90.4v-35.7h14.46a9,9,0,0,1,9,9Z"/><polygon class="cls-6" points="181.86 246.56 161.19 214.09 171.54 207.65 181.86 227.94 218.63 188.09 225.29 198.07 181.86 246.56"/><path class="cls-6" d="M178.17,107.43v-9a9,9,0,1,1,18.08,0v9h18.08v17.63H160.09V107.43Zm68.7-18.08H212.78a27.12,27.12,0,0,0-51.14,0H127.09A27.16,27.16,0,0,0,100,116.47V275.58a27.14,27.14,0,0,0,27.12,27.11H246.9A27.15,27.15,0,0,0,274,275.58V116.47A27.16,27.16,0,0,0,246.87,89.35Zm9,186.23a9.06,9.06,0,0,1-9,9H127.09a9.06,9.06,0,0,1-9-9V116.47a9.06,9.06,0,0,1,9-9H142v35.71h90.4V107.43h14.46a9.06,9.06,0,0,1,9,9Z"/><polygon class="cls-6" points="182.57 247.27 161.9 214.8 172.25 208.36 182.57 228.65 219.33 188.79 225.99 198.78 182.57 247.27"/><path class="cls-6" d="M178.87,108.14v-9a9,9,0,0,1,18.08,0v9H215v17.63H160.79V108.14Zm68.71-18.08h-34.1a27.12,27.12,0,0,0-51.14,0H127.8a27.15,27.15,0,0,0-27.12,27.12v159.1A27.15,27.15,0,0,0,127.8,303.4H247.6a27.16,27.16,0,0,0,27.1-27.12V117.18A27.16,27.16,0,0,0,247.58,90.06Zm9,186.22a9.06,9.06,0,0,1-9,9H127.8a9,9,0,0,1-9-9V117.18a9,9,0,0,1,9-9h14.91v35.71h90.4V108.14h14.47a9.06,9.06,0,0,1,9,9Z"/><polygon class="cls-6" points="183.28 247.98 162.6 215.5 172.95 209.06 183.28 229.35 220.04 189.5 226.7 199.48 183.28 247.98"/><path class="cls-6" d="M179.58,108.85v-9a9,9,0,1,1,18.08,0v9h18.08v17.62H161.5V108.85Zm68.7-18.08H214.19a27.12,27.12,0,0,0-51.14,0H128.5a27.14,27.14,0,0,0-27.12,27.12V277a27.16,27.16,0,0,0,27.12,27.12H248.31A27.16,27.16,0,0,0,275.4,277V117.89A27.14,27.14,0,0,0,248.28,90.77Zm9,186.22a9.05,9.05,0,0,1-9,9H128.5a9.06,9.06,0,0,1-9-9V117.89a9,9,0,0,1,9-9h14.92v35.7h90.4v-35.7h14.46a9,9,0,0,1,9,9Z"/><polygon class="cls-6" points="183.98 248.68 163.31 216.21 173.66 209.77 183.98 230.06 220.75 190.21 227.41 200.19 183.98 248.68"/><path class="cls-6" d="M180.29,109.55v-9a9,9,0,1,1,18.08,0v9h18.08v17.63H162.21V109.55ZM249,91.47H214.9a27.13,27.13,0,0,0-51.15,0H129.21a27.16,27.16,0,0,0-27.12,27.12v159.1a27.15,27.15,0,0,0,27.12,27.12H249a27.15,27.15,0,0,0,27.09-27.12V118.59A27.16,27.16,0,0,0,249,91.47Zm9,186.22a9,9,0,0,1-9,9H129.21a9,9,0,0,1-9-9V118.59a9.06,9.06,0,0,1,9-9h14.92v35.71h90.39V109.55H249a9.06,9.06,0,0,1,9,9Z"/><polygon class="cls-6" points="184.69 249.39 164.01 216.92 174.36 210.48 184.69 230.76 221.45 190.91 228.11 200.9 184.69 249.39"/><path class="cls-6" d="M181,110.26v-9a9,9,0,0,1,18.08,0v9h18.08v17.63H162.91V110.26ZM249.7,92.18H215.6a27.12,27.12,0,0,0-51.14,0H129.92A27.15,27.15,0,0,0,102.8,119.3V278.4a27.15,27.15,0,0,0,27.12,27.12h119.8a27.16,27.16,0,0,0,27.09-27.12V119.3A27.14,27.14,0,0,0,249.7,92.18Zm9,186.22a9,9,0,0,1-9,9H129.92a9,9,0,0,1-9-9V119.3a9,9,0,0,1,9-9h14.91V146h90.4V110.26H249.7a9,9,0,0,1,9,9Z"/><polygon class="cls-6" points="185.39 250.09 164.72 217.62 175.07 211.18 185.39 231.47 222.16 191.62 228.82 201.6 185.39 250.09"/><path class="cls-6" d="M181.7,111v-9a9,9,0,1,1,18.08,0v9h18.08v17.63H163.62V111Zm68.7-18.08H216.31a27.12,27.12,0,0,0-51.14,0H130.62A27.16,27.16,0,0,0,103.5,120V279.11a27.16,27.16,0,0,0,27.12,27.12H250.43a27.16,27.16,0,0,0,27.09-27.12V120A27.16,27.16,0,0,0,250.4,92.88Zm9,186.23a9.06,9.06,0,0,1-9,9H130.62a9.06,9.06,0,0,1-9-9V120a9.06,9.06,0,0,1,9-9h14.92v35.71h90.4V111H250.4a9,9,0,0,1,9,9Z"/><polygon class="cls-6" points="186.1 250.8 165.43 218.33 175.78 211.89 186.1 232.18 222.87 192.32 229.52 202.31 186.1 250.8"/><path class="cls-6" d="M182.4,111.67v-9a9,9,0,0,1,18.08,0v9h18.08V129.3H164.32V111.67Zm68.71-18.08H217a27.13,27.13,0,0,0-51.15,0H131.33a27.16,27.16,0,0,0-27.12,27.12v159.1a27.15,27.15,0,0,0,27.12,27.12H251.14a27.16,27.16,0,0,0,27.09-27.12V120.71A27.16,27.16,0,0,0,251.11,93.59Zm9,186.22a9,9,0,0,1-9,9H131.33a9,9,0,0,1-9-9V120.71a9.06,9.06,0,0,1,9-9h14.91v35.71h90.4V111.67h14.47a9.06,9.06,0,0,1,9,9Z"/><polygon class="cls-6" points="186.81 251.51 166.13 219.04 176.48 212.6 186.81 232.88 223.57 193.03 230.23 203.01 186.81 251.51"/><path class="cls-6" d="M183.11,112.38v-9a9,9,0,1,1,18.08,0v9h18.08V130H165V112.38Zm68.7-18.08H217.72a27.12,27.12,0,0,0-51.14,0H132a27.14,27.14,0,0,0-27.12,27.12v159.1A27.14,27.14,0,0,0,132,307.64h119.8a27.16,27.16,0,0,0,27.09-27.12V121.42A27.14,27.14,0,0,0,251.81,94.3Zm9,186.22a9,9,0,0,1-9,9H132a9,9,0,0,1-9-9V121.42a9,9,0,0,1,9-9H147v35.7h90.4v-35.7h14.46a9,9,0,0,1,9,9Z"/><polygon class="cls-6" points="187.51 252.21 166.84 219.74 177.19 213.3 187.51 233.59 224.28 193.74 230.94 203.72 187.51 252.21"/><path class="cls-6" d="M183.82,113.08v-9a9,9,0,1,1,18.08,0v9H220v17.63H165.74V113.08ZM252.52,95H218.43a27.12,27.12,0,0,0-51.14,0H132.74a27.16,27.16,0,0,0-27.12,27.12V281.23a27.14,27.14,0,0,0,27.12,27.11H252.55a27.15,27.15,0,0,0,27.09-27.11V122.12A27.16,27.16,0,0,0,252.52,95Zm9,186.23a9.06,9.06,0,0,1-9,9H132.74a9.06,9.06,0,0,1-9-9V122.12a9.06,9.06,0,0,1,9-9h14.92v35.71h90.4V113.08h14.46a9.06,9.06,0,0,1,9,9Z"/><polygon class="cls-6" points="188.22 252.92 167.54 220.45 177.89 214.01 188.22 234.29 224.98 194.44 231.64 204.43 188.22 252.92"/><path class="cls-6" d="M184.52,113.79v-9a9,9,0,1,1,18.08,0v9h18.08v17.63H166.44V113.79Zm68.71-18.08h-34.1a27.12,27.12,0,0,0-51.14,0H133.45a27.15,27.15,0,0,0-27.12,27.12v159.1a27.15,27.15,0,0,0,27.12,27.12h119.8a27.16,27.16,0,0,0,27.1-27.12V122.83A27.16,27.16,0,0,0,253.23,95.71Zm9,186.22a9.06,9.06,0,0,1-9,9H133.45a9,9,0,0,1-9-9V122.83a9,9,0,0,1,9-9h14.91V149.5h90.4V113.79h14.47a9.06,9.06,0,0,1,9,9Z"/><polygon class="cls-6" points="188.93 253.63 168.25 221.16 178.6 214.72 188.93 235 225.69 195.15 232.35 205.13 188.93 253.63"/><path class="cls-6" d="M185.23,114.5v-9a9,9,0,1,1,18.08,0v9h18.08v17.62H167.15V114.5Zm68.7-18.08H219.84a27.12,27.12,0,0,0-51.14,0H134.15A27.14,27.14,0,0,0,107,123.54v159.1a27.16,27.16,0,0,0,27.12,27.12H254a27.16,27.16,0,0,0,27.09-27.12V123.54A27.14,27.14,0,0,0,253.93,96.42Zm9,186.22a9.05,9.05,0,0,1-9,9H134.15a9.06,9.06,0,0,1-9-9V123.54a9,9,0,0,1,9-9h14.92v35.7h90.4V114.5h14.46a9,9,0,0,1,9,9Z"/><polygon class="cls-6" points="189.63 254.33 168.96 221.86 179.31 215.42 189.63 235.71 226.4 195.85 233.06 205.84 189.63 254.33"/><path class="cls-6" d="M185.94,115.2v-9a9,9,0,0,1,18.08,0v9H222.1v17.63H167.86V115.2Zm68.7-18.08H220.55a27.13,27.13,0,0,0-51.15,0H134.86a27.16,27.16,0,0,0-27.12,27.12v159.1a27.15,27.15,0,0,0,27.12,27.12H254.67a27.15,27.15,0,0,0,27.09-27.12V124.24A27.16,27.16,0,0,0,254.64,97.12Zm9,186.22a9,9,0,0,1-9,9H134.86a9,9,0,0,1-9-9V124.24a9.06,9.06,0,0,1,9-9h14.92v35.71h90.39V115.2h14.47a9.06,9.06,0,0,1,9,9Z"/><polygon class="cls-6" points="190.34 255.04 169.66 222.57 180.01 216.13 190.34 236.41 227.1 196.56 233.76 206.55 190.34 255.04"/><path class="cls-6" d="M186.64,115.91v-9a9,9,0,1,1,18.08,0v9H222.8v17.63H168.56V115.91Zm68.7-18.08H221.25a27.12,27.12,0,0,0-51.14,0H135.57A27.14,27.14,0,0,0,108.45,125v159.1a27.15,27.15,0,0,0,27.12,27.12h119.8a27.16,27.16,0,0,0,27.09-27.12V125A27.14,27.14,0,0,0,255.34,97.83Zm9,186.22a9,9,0,0,1-9,9H135.57a9,9,0,0,1-9-9V125a9,9,0,0,1,9-9h14.91v35.71h90.4V115.91h14.46a9,9,0,0,1,9,9Z"/><polygon class="cls-6" points="191.04 255.75 170.37 223.27 180.72 216.83 191.04 237.12 227.81 197.27 234.47 207.25 191.04 255.75"/><path class="cls-6" d="M187.35,116.61v-9a9,9,0,0,1,18.08,0v9h18.08v17.63H169.27V116.61Zm68.7-18.08H222a27.12,27.12,0,0,0-51.14,0H136.27a27.16,27.16,0,0,0-27.12,27.12V284.76a27.16,27.16,0,0,0,27.12,27.12H256.08a27.16,27.16,0,0,0,27.09-27.12V125.65A27.16,27.16,0,0,0,256.05,98.53Zm9,186.23a9.06,9.06,0,0,1-9,9H136.27a9.06,9.06,0,0,1-9-9V125.65a9.06,9.06,0,0,1,9-9h14.92v35.71h90.4V116.61h14.46a9,9,0,0,1,9,9Z"/><polygon class="cls-6" points="191.75 256.45 171.08 223.98 181.43 217.54 191.75 237.83 228.51 197.97 235.17 207.96 191.75 256.45"/><path class="cls-6" d="M188.05,117.32v-9a9,9,0,1,1,18.08,0v9h18.08V135H170V117.32Zm68.71-18.08H222.67a27.13,27.13,0,0,0-51.15,0H137a27.16,27.16,0,0,0-27.12,27.12v159.1A27.15,27.15,0,0,0,137,312.58H256.79a27.16,27.16,0,0,0,27.09-27.12V126.36A27.16,27.16,0,0,0,256.76,99.24Zm9,186.22a9,9,0,0,1-9,9H137a9,9,0,0,1-9-9V126.36a9.06,9.06,0,0,1,9-9h14.91V153h90.4V117.32h14.47a9.06,9.06,0,0,1,9,9Z"/><polygon class="cls-6" points="192.46 257.16 171.78 224.69 182.13 218.25 192.46 238.53 229.22 198.68 235.88 208.66 192.46 257.16"/><path class="cls-6" d="M188.76,118v-9a9,9,0,1,1,18.08,0v9h18.08v17.62H170.68V118ZM257.46,100H223.37a27.12,27.12,0,0,0-51.14,0H137.69a27.14,27.14,0,0,0-27.12,27.12v159.1a27.14,27.14,0,0,0,27.12,27.12h119.8a27.16,27.16,0,0,0,27.09-27.12V127.07A27.14,27.14,0,0,0,257.46,100Zm9,186.22a9,9,0,0,1-9,9H137.69a9,9,0,0,1-9-9V127.07a9,9,0,0,1,9-9H152.6v35.7H243V118h14.46a9,9,0,0,1,9,9Z"/><polygon class="cls-6" points="193.16 257.86 172.49 225.39 182.84 218.95 193.16 239.24 229.93 199.39 236.59 209.37 193.16 257.86"/><path class="cls-6" d="M189.47,118.73v-9a9,9,0,0,1,18.08,0v9h18.08v17.63H171.39V118.73Zm68.7-18.08H224.08a27.12,27.12,0,0,0-51.14,0H138.39a27.16,27.16,0,0,0-27.12,27.12V286.88A27.14,27.14,0,0,0,138.39,314H258.2a27.15,27.15,0,0,0,27.09-27.11V127.77A27.16,27.16,0,0,0,258.17,100.65Zm9,186.23a9,9,0,0,1-9,9H138.39a9,9,0,0,1-9-9V127.77a9.06,9.06,0,0,1,9-9h14.92v35.71h90.4V118.73h14.46a9.06,9.06,0,0,1,9,9Z"/><polygon class="cls-6" points="193.87 258.57 173.19 226.1 183.54 219.66 193.87 239.94 230.63 200.09 237.29 210.08 193.87 258.57"/><path class="cls-6" d="M190.17,119.44v-9a9,9,0,1,1,18.08,0v9h18.08v17.63H172.09V119.44Zm68.71-18.08h-34.1a27.12,27.12,0,0,0-51.14,0H139.1A27.15,27.15,0,0,0,112,128.48v159.1A27.15,27.15,0,0,0,139.1,314.7H258.9A27.16,27.16,0,0,0,286,287.58V128.48A27.16,27.16,0,0,0,258.88,101.36Zm9,186.22a9.06,9.06,0,0,1-9,9H139.1a9,9,0,0,1-9-9V128.48a9,9,0,0,1,9-9H154v35.71h90.4V119.44h14.47a9.06,9.06,0,0,1,9,9Z"/><polygon class="cls-6" points="194.57 259.28 173.9 226.81 184.25 220.37 194.57 240.65 231.34 200.8 238 210.78 194.57 259.28"/><path class="cls-6" d="M190.88,120.15v-9a9,9,0,0,1,18.08,0v9H227v17.62H172.8V120.15Zm68.7-18.08H225.49a27.12,27.12,0,0,0-51.14,0H139.8a27.14,27.14,0,0,0-27.12,27.12v159.1a27.16,27.16,0,0,0,27.12,27.12H259.61a27.16,27.16,0,0,0,27.09-27.12V129.19A27.14,27.14,0,0,0,259.58,102.07Zm9,186.22a9.05,9.05,0,0,1-9,9H139.8a9.06,9.06,0,0,1-9-9V129.19a9,9,0,0,1,9-9h14.92v35.7h90.4v-35.7h14.46a9,9,0,0,1,9,9Z"/><polygon class="cls-6" points="195.28 259.98 174.61 227.51 184.96 221.07 195.28 241.36 232.05 201.5 238.71 211.49 195.28 259.98"/><path class="cls-6" d="M191.59,120.85v-9a9,9,0,1,1,18.08,0v9h18.07v17.63H173.51V120.85Zm68.7-18.08H226.2a27.13,27.13,0,0,0-51.15,0H140.51a27.16,27.16,0,0,0-27.12,27.12V289a27.15,27.15,0,0,0,27.12,27.12H260.32A27.15,27.15,0,0,0,287.41,289V129.89A27.16,27.16,0,0,0,260.29,102.77Zm9,186.22a9,9,0,0,1-9,9H140.51a9,9,0,0,1-9-9V129.89a9.06,9.06,0,0,1,9-9h14.92v35.71h90.39V120.85h14.47a9.06,9.06,0,0,1,9,9Z"/><polygon class="cls-6" points="195.99 260.69 175.31 228.22 185.66 221.78 195.99 242.06 232.75 202.21 239.41 212.19 195.99 260.69"/><path class="cls-6" d="M192.29,121.56v-9a9,9,0,1,1,18.08,0v9h18.08v17.63H174.21V121.56ZM261,103.48H226.9a27.12,27.12,0,0,0-51.14,0H141.22A27.14,27.14,0,0,0,114.1,130.6V289.7a27.15,27.15,0,0,0,27.12,27.12H261a27.16,27.16,0,0,0,27.09-27.12V130.6A27.14,27.14,0,0,0,261,103.48Zm9,186.22a9,9,0,0,1-9,9H141.22a9,9,0,0,1-9-9V130.6a9,9,0,0,1,9-9h14.91v35.71h90.4V121.56H261a9,9,0,0,1,9,9Z"/><polygon class="cls-6" points="196.69 261.39 176.02 228.92 186.37 222.48 196.69 242.77 233.46 202.92 240.12 212.9 196.69 261.39"/><path class="cls-6" d="M193,122.26v-9a9,9,0,0,1,18.08,0v9h18.08v17.63H174.92V122.26Zm68.7-18.08H227.61a27.12,27.12,0,0,0-51.14,0H141.92A27.16,27.16,0,0,0,114.8,131.3V290.41a27.16,27.16,0,0,0,27.12,27.12H261.73a27.16,27.16,0,0,0,27.09-27.12V131.3A27.16,27.16,0,0,0,261.7,104.18Zm9,186.23a9.06,9.06,0,0,1-9,9H141.92a9.06,9.06,0,0,1-9-9V131.3a9.06,9.06,0,0,1,9-9h14.92V158h90.4V122.26H261.7a9.06,9.06,0,0,1,9,9Z"/><polygon class="cls-6" points="197.4 262.1 176.73 229.63 187.07 223.19 197.4 243.48 234.16 203.62 240.82 213.61 197.4 262.1"/><path class="cls-6" d="M193.7,123v-9a9,9,0,1,1,18.08,0v9h18.08V140.6H175.62V123Zm68.71-18.08H228.32a27.13,27.13,0,0,0-51.15,0H142.63A27.16,27.16,0,0,0,115.51,132v159.1a27.15,27.15,0,0,0,27.12,27.12H262.44a27.16,27.16,0,0,0,27.09-27.12V132A27.16,27.16,0,0,0,262.41,104.89Zm9,186.22a9.05,9.05,0,0,1-9,9H142.63a9,9,0,0,1-9-9V132a9,9,0,0,1,9-9h14.91v35.71h90.4V123h14.47a9.06,9.06,0,0,1,9,9Z"/><polygon class="cls-6" points="198.11 262.81 177.43 230.34 187.78 223.9 198.11 244.18 234.87 204.33 241.53 214.31 198.11 262.81"/><path class="cls-6" d="M194.41,123.68v-9a9,9,0,0,1,18.08,0v9h18.08V141.3H176.33V123.68Zm68.7-18.08H229a27.12,27.12,0,0,0-51.14,0H143.34a27.14,27.14,0,0,0-27.12,27.12v159.1a27.14,27.14,0,0,0,27.12,27.12h119.8a27.16,27.16,0,0,0,27.09-27.12V132.72A27.14,27.14,0,0,0,263.11,105.6Zm9,186.22a9,9,0,0,1-9,9H143.34a9,9,0,0,1-9-9V132.72a9,9,0,0,1,9-9h14.91v35.7h90.4v-35.7h14.46a9,9,0,0,1,9,9Z"/><polygon class="cls-6" points="198.81 263.51 178.14 231.04 188.49 224.6 198.81 244.89 235.58 205.04 242.24 215.02 198.81 263.51"/><path class="cls-6" d="M195.12,124.38v-9a9,9,0,1,1,18.08,0v9h18.08V142H177V124.38Zm68.7-18.08H229.73a27.12,27.12,0,0,0-51.14,0H144a27.16,27.16,0,0,0-27.12,27.12v159.1A27.14,27.14,0,0,0,144,319.64H263.85a27.15,27.15,0,0,0,27.09-27.12V133.42A27.16,27.16,0,0,0,263.82,106.3Zm9,186.22a9,9,0,0,1-9,9H144a9,9,0,0,1-9-9V133.42a9.06,9.06,0,0,1,9-9H159v35.71h90.4V124.38h14.46a9.06,9.06,0,0,1,9,9Z"/><polygon class="cls-6" points="199.52 264.22 178.84 231.75 189.19 225.31 199.52 245.59 236.28 205.74 242.94 215.73 199.52 264.22"/><path class="cls-6" d="M195.82,125.09v-9a9,9,0,1,1,18.08,0v9H232v17.63H177.74V125.09ZM264.53,107h-34.1a27.12,27.12,0,0,0-51.14,0H144.75a27.15,27.15,0,0,0-27.12,27.12v159.1a27.15,27.15,0,0,0,27.12,27.12h119.8a27.16,27.16,0,0,0,27.1-27.12V134.13A27.16,27.16,0,0,0,264.53,107Zm9,186.22a9.06,9.06,0,0,1-9,9H144.75a9,9,0,0,1-9-9V134.13a9,9,0,0,1,9-9h14.91V160.8h90.4V125.09h14.47a9.06,9.06,0,0,1,9,9Z"/><polygon class="cls-6" points="200.22 264.93 179.55 232.46 189.9 226.01 200.22 246.3 236.99 206.45 243.65 216.43 200.22 264.93"/><path class="cls-6" d="M196.53,125.8v-9a9,9,0,0,1,18.08,0v9h18.08v17.62H178.45V125.8Zm68.7-18.08H231.14a27.12,27.12,0,0,0-51.14,0H145.45a27.14,27.14,0,0,0-27.12,27.12v159.1a27.16,27.16,0,0,0,27.12,27.12H265.26a27.16,27.16,0,0,0,27.09-27.12V134.84A27.14,27.14,0,0,0,265.23,107.72Zm9,186.22a9.05,9.05,0,0,1-9,9H145.45a9.06,9.06,0,0,1-9-9V134.84a9,9,0,0,1,9-9h14.92v35.7h90.4V125.8h14.46a9,9,0,0,1,9,9Z"/><polygon class="cls-6" points="200.93 265.63 180.26 233.16 190.61 226.72 200.93 247.01 237.7 207.16 244.35 217.14 200.93 265.63"/><path class="cls-6" d="M197.24,126.5v-9a9,9,0,0,1,18.08,0v9h18.07v17.63H179.16V126.5Zm68.7-18.08H231.85a27.13,27.13,0,0,0-51.15,0H146.16A27.16,27.16,0,0,0,119,135.54v159.1a27.15,27.15,0,0,0,27.12,27.12H266a27.15,27.15,0,0,0,27.09-27.12V135.54A27.16,27.16,0,0,0,265.94,108.42Zm9,186.22a9,9,0,0,1-9,9H146.16a9,9,0,0,1-9-9V135.54a9.06,9.06,0,0,1,9-9h14.92v35.71h90.39V126.5h14.47a9.06,9.06,0,0,1,9,9Z"/><polygon class="cls-6" points="201.64 266.34 180.96 233.87 191.31 227.43 201.64 247.71 238.4 207.86 245.06 217.84 201.64 266.34"/><path class="cls-6" d="M197.94,127.21v-9a9,9,0,0,1,18.08,0v9H234.1v17.63H179.86V127.21Zm68.7-18.08H232.55a27.12,27.12,0,0,0-51.14,0H146.87a27.14,27.14,0,0,0-27.12,27.12v159.1a27.15,27.15,0,0,0,27.12,27.12h119.8a27.16,27.16,0,0,0,27.09-27.12V136.25A27.14,27.14,0,0,0,266.64,109.13Zm9,186.22a9,9,0,0,1-9,9H146.87a9,9,0,0,1-9-9V136.25a9,9,0,0,1,9-9h14.91v35.71h90.4V127.21h14.46a9,9,0,0,1,9,9Z"/><polygon class="cls-6" points="202.34 267.05 181.67 234.57 192.02 228.13 202.34 248.42 239.11 208.57 245.77 218.55 202.34 267.05"/><path class="cls-6" d="M198.65,127.91v-9a9,9,0,1,1,18.08,0v9h18.08v17.63H180.57V127.91Zm68.7-18.08H233.26a27.12,27.12,0,0,0-51.14,0H147.57A27.16,27.16,0,0,0,120.45,137V296.06a27.16,27.16,0,0,0,27.12,27.12H267.38a27.16,27.16,0,0,0,27.09-27.12V137A27.16,27.16,0,0,0,267.35,109.83Zm9,186.23a9.06,9.06,0,0,1-9,9H147.57a9.06,9.06,0,0,1-9-9V137a9.06,9.06,0,0,1,9-9h14.92v35.71h90.4V127.91h14.46a9.06,9.06,0,0,1,9,9Z"/><polygon class="cls-6" points="203.05 267.75 182.38 235.28 192.72 228.84 203.05 249.13 239.81 209.27 246.47 219.26 203.05 267.75"/><path class="cls-6" d="M199.35,128.62v-9a9,9,0,0,1,18.08,0v9h18.08v17.63H181.27V128.62Zm68.71-18.08H234a27.13,27.13,0,0,0-51.15,0H148.28a27.16,27.16,0,0,0-27.12,27.12v159.1a27.15,27.15,0,0,0,27.12,27.12H268.09a27.16,27.16,0,0,0,27.09-27.12V137.66A27.16,27.16,0,0,0,268.06,110.54Zm9,186.22a9.05,9.05,0,0,1-9,9H148.28a9,9,0,0,1-9-9V137.66a9,9,0,0,1,9-9h14.91v35.71h90.4V128.62h14.47a9.06,9.06,0,0,1,9,9Z"/><polygon class="cls-6" points="203.76 268.46 183.08 235.99 193.43 229.55 203.76 249.83 240.52 209.98 247.18 219.96 203.76 268.46"/><path class="cls-6" d="M200.06,129.33v-9a9,9,0,1,1,18.08,0v9h18.08V147H182V129.33Zm68.7-18.08H234.67a27.12,27.12,0,0,0-51.14,0H149a27.13,27.13,0,0,0-27.11,27.12v159.1A27.14,27.14,0,0,0,149,324.59H268.79a27.16,27.16,0,0,0,27.09-27.12V138.37A27.14,27.14,0,0,0,268.76,111.25Zm9,186.22a9,9,0,0,1-9,9H149a9,9,0,0,1-9-9V138.37a9,9,0,0,1,9-9H163.9V165h90.4v-35.7h14.46a9,9,0,0,1,9,9Z"/><polygon class="cls-6" points="204.46 269.16 183.79 236.69 194.14 230.25 204.46 250.54 241.23 210.69 247.89 220.67 204.46 269.16"/><path class="cls-6" d="M200.77,130v-9a9,9,0,1,1,18.08,0v9h18.08v17.63H182.69V130ZM269.47,112H235.38a27.12,27.12,0,0,0-51.14,0H149.69a27.16,27.16,0,0,0-27.12,27.12v159.1a27.14,27.14,0,0,0,27.12,27.12H269.5a27.15,27.15,0,0,0,27.09-27.12V139.07A27.16,27.16,0,0,0,269.47,112Zm9,186.22a9,9,0,0,1-9,9H149.69a9,9,0,0,1-9-9V139.07a9.06,9.06,0,0,1,9-9h14.92v35.71H255V130h14.46a9.06,9.06,0,0,1,9,9Z"/><polygon class="cls-6" points="205.17 269.87 184.5 237.4 194.84 230.96 205.17 251.24 241.93 211.39 248.59 221.38 205.17 269.87"/><path class="cls-6" d="M201.47,130.74v-9a9,9,0,0,1,18.08,0v9h18.08v17.63H183.39V130.74Zm68.71-18.08h-34.1a27.12,27.12,0,0,0-51.14,0H150.4a27.15,27.15,0,0,0-27.12,27.12v159.1A27.15,27.15,0,0,0,150.4,326H270.2a27.16,27.16,0,0,0,27.1-27.12V139.78A27.16,27.16,0,0,0,270.18,112.66Zm9,186.22a9.06,9.06,0,0,1-9,9H150.4a9,9,0,0,1-9-9V139.78a9,9,0,0,1,9-9h14.91v35.71h90.4V130.74h14.47a9.06,9.06,0,0,1,9,9Z"/><polygon class="cls-6" points="205.87 270.58 185.2 238.1 195.55 231.66 205.87 251.95 242.64 212.1 249.3 222.08 205.87 270.58"/><path class="cls-6" d="M202.18,131.45v-9a9,9,0,0,1,18.08,0v9h18.08v17.62H184.1V131.45Zm68.7-18.08H236.79a27.12,27.12,0,0,0-51.14,0H151.1A27.14,27.14,0,0,0,124,140.49v159.1a27.16,27.16,0,0,0,27.12,27.12H270.91A27.16,27.16,0,0,0,298,299.59V140.49A27.14,27.14,0,0,0,270.88,113.37Zm9,186.22a9.05,9.05,0,0,1-9,9H151.1a9.06,9.06,0,0,1-9-9V140.49a9,9,0,0,1,9-9H166v35.7h90.4v-35.7h14.46a9,9,0,0,1,9,9Z"/><polygon class="cls-6" points="206.58 271.28 185.91 238.81 196.26 232.37 206.58 252.66 243.35 212.81 250 222.79 206.58 271.28"/><path class="cls-6" d="M202.89,132.15v-9a9,9,0,1,1,18.08,0v9H239v17.63H184.81V132.15Zm68.7-18.08H237.5a27.13,27.13,0,0,0-51.15,0H151.81a27.16,27.16,0,0,0-27.12,27.12v159.1a27.15,27.15,0,0,0,27.12,27.12H271.62a27.15,27.15,0,0,0,27.09-27.12V141.19A27.16,27.16,0,0,0,271.59,114.07Zm9,186.22a9,9,0,0,1-9,9H151.81a9,9,0,0,1-9-9V141.19a9.06,9.06,0,0,1,9-9h14.92v35.71h90.39V132.15h14.47a9.06,9.06,0,0,1,9,9Z"/><polygon class="cls-6" points="207.29 271.99 186.61 239.52 196.96 233.08 207.29 253.36 244.05 213.51 250.71 223.5 207.29 271.99"/><path class="cls-6" d="M203.59,132.86v-9a9,9,0,0,1,18.08,0v9h18.08v17.63H185.51V132.86Zm68.7-18.08H238.2a27.12,27.12,0,0,0-51.14,0H152.52A27.14,27.14,0,0,0,125.4,141.9V301a27.15,27.15,0,0,0,27.12,27.12h119.8A27.16,27.16,0,0,0,299.41,301V141.9A27.14,27.14,0,0,0,272.29,114.78Zm9,186.22a9,9,0,0,1-9,9H152.52a9,9,0,0,1-9-9V141.9a9,9,0,0,1,9-9h14.91v35.71h90.4V132.86h14.46a9,9,0,0,1,9,9Z"/><polygon class="cls-6" points="207.99 272.69 187.32 240.22 197.67 233.78 207.99 254.07 244.76 214.22 251.42 224.2 207.99 272.69"/><path class="cls-6" d="M204.3,133.56v-9a9,9,0,0,1,18.08,0v9h18.08v17.63H186.22V133.56ZM273,115.48H238.91a27.12,27.12,0,0,0-51.14,0H153.22A27.16,27.16,0,0,0,126.1,142.6V301.71a27.16,27.16,0,0,0,27.12,27.12H273a27.16,27.16,0,0,0,27.09-27.12V142.6A27.16,27.16,0,0,0,273,115.48Zm9,186.23a9.06,9.06,0,0,1-9,9H153.22a9.06,9.06,0,0,1-9-9V142.6a9.06,9.06,0,0,1,9-9h14.92v35.71h90.4V133.56H273a9.06,9.06,0,0,1,9,9Z"/><polygon class="cls-6" points="208.7 273.4 188.03 240.93 198.38 234.49 208.7 254.78 245.47 214.92 252.12 224.91 208.7 273.4"/><path class="cls-6" d="M205,134.27v-9a9,9,0,0,1,18.08,0v9h18.08V151.9H186.92V134.27Zm68.71-18.08h-34.1a27.12,27.12,0,0,0-51.14,0H153.93a27.16,27.16,0,0,0-27.12,27.12v159.1a27.15,27.15,0,0,0,27.12,27.12H273.74a27.16,27.16,0,0,0,27.09-27.12V143.31A27.16,27.16,0,0,0,273.71,116.19Zm9,186.22a9.05,9.05,0,0,1-9,9H153.93a9,9,0,0,1-9-9V143.31a9,9,0,0,1,9-9h14.91V170h90.4V134.27h14.47a9.06,9.06,0,0,1,9,9Z"/><polygon class="cls-6" points="209.41 274.11 188.73 241.64 199.08 235.2 209.41 255.48 246.17 215.63 252.83 225.61 209.41 274.11"/><path class="cls-6" d="M205.71,135v-9a9,9,0,0,1,18.08,0v9h18.08V152.6H187.63V135Zm68.7-18.08H240.32a27.12,27.12,0,0,0-51.14,0H154.63A27.13,27.13,0,0,0,127.52,144v159.1a27.14,27.14,0,0,0,27.11,27.12H274.44a27.16,27.16,0,0,0,27.09-27.12V144A27.14,27.14,0,0,0,274.41,116.9Zm9,186.22a9,9,0,0,1-9,9H154.63a9.06,9.06,0,0,1-9-9V144a9,9,0,0,1,9-9h14.92v35.7H260V135h14.46a9,9,0,0,1,9,9Z"/><polygon class="cls-6" points="210.11 274.81 189.44 242.34 199.79 235.9 210.11 256.19 246.88 216.34 253.54 226.32 210.11 274.81"/><path class="cls-6" d="M206.42,135.68v-9a9,9,0,1,1,18.08,0v9h18.08v17.63H188.34V135.68Zm68.7-18.08H241a27.12,27.12,0,0,0-51.14,0H155.34a27.16,27.16,0,0,0-27.12,27.12v159.1a27.14,27.14,0,0,0,27.12,27.12H275.15a27.15,27.15,0,0,0,27.09-27.12V144.72A27.16,27.16,0,0,0,275.12,117.6Zm9,186.22a9,9,0,0,1-9,9H155.34a9,9,0,0,1-9-9V144.72a9.06,9.06,0,0,1,9-9h14.92v35.71h90.4V135.68h14.46a9.06,9.06,0,0,1,9,9Z"/><polygon class="cls-6" points="210.82 275.52 190.15 243.05 200.49 236.61 210.82 256.89 247.58 217.04 254.24 227.03 210.82 275.52"/><path class="cls-6" d="M207.12,136.39v-9a9,9,0,0,1,18.08,0v9h18.08V154H189V136.39Zm68.71-18.08h-34.1a27.12,27.12,0,0,0-51.14,0H156.05a27.15,27.15,0,0,0-27.12,27.12v159.1a27.15,27.15,0,0,0,27.12,27.12h119.8A27.16,27.16,0,0,0,303,304.53V145.43A27.16,27.16,0,0,0,275.83,118.31Zm9,186.22a9.06,9.06,0,0,1-9,9H156.05a9,9,0,0,1-9-9V145.43a9,9,0,0,1,9-9H171V172.1h90.4V136.39h14.47a9.06,9.06,0,0,1,9,9Z"/><polygon class="cls-6" points="211.52 276.23 190.85 243.75 201.2 237.31 211.52 257.6 248.29 217.75 254.95 227.73 211.52 276.23"/><path class="cls-6" d="M207.83,137.1v-9a9,9,0,1,1,18.08,0v9H244v17.62H189.75V137.1ZM276.53,119H242.44a27.12,27.12,0,0,0-51.14,0H156.75a27.14,27.14,0,0,0-27.12,27.12v159.1a27.16,27.16,0,0,0,27.12,27.12H276.56a27.16,27.16,0,0,0,27.09-27.12V146.14A27.14,27.14,0,0,0,276.53,119Zm9,186.22a9.05,9.05,0,0,1-9,9H156.75a9.06,9.06,0,0,1-9-9V146.14a9,9,0,0,1,9-9h14.92v35.7h90.4V137.1h14.46a9,9,0,0,1,9,9Z"/><polygon class="cls-6" points="212.23 276.93 191.56 244.46 201.91 238.02 212.23 258.31 249 218.46 255.65 228.44 212.23 276.93"/><path class="cls-6" d="M208.54,137.8v-9a9,9,0,1,1,18.07,0v9h18.08v17.63H190.46V137.8Zm68.7-18.08H243.15a27.13,27.13,0,0,0-51.15,0H157.46a27.16,27.16,0,0,0-27.12,27.12v159.1a27.15,27.15,0,0,0,27.12,27.12H277.27a27.15,27.15,0,0,0,27.09-27.12V146.84A27.16,27.16,0,0,0,277.24,119.72Zm9,186.22a9,9,0,0,1-9,9H157.46a9,9,0,0,1-9-9V146.84a9.06,9.06,0,0,1,9-9h14.92v35.71h90.39V137.8h14.47a9.06,9.06,0,0,1,9,9Z"/><polygon class="cls-6" points="212.94 277.64 192.26 245.17 202.61 238.73 212.94 259.01 249.7 219.16 256.36 229.15 212.94 277.64"/><path class="cls-6" d="M209.24,138.51v-9a9,9,0,0,1,18.08,0v9H245.4v17.63H191.16V138.51Zm68.7-18.08H243.85a27.12,27.12,0,0,0-51.14,0H158.17a27.14,27.14,0,0,0-27.12,27.12v159.1a27.15,27.15,0,0,0,27.12,27.12H278a27.16,27.16,0,0,0,27.09-27.12V147.55A27.14,27.14,0,0,0,277.94,120.43Zm9,186.22a9,9,0,0,1-9,9H158.17a9,9,0,0,1-9-9V147.55a9,9,0,0,1,9-9h14.91v35.71h90.4V138.51h14.46a9,9,0,0,1,9,9Z"/><polygon class="cls-6" points="213.64 278.35 192.97 245.87 203.32 239.43 213.64 259.72 250.41 219.87 257.07 229.85 213.64 278.35"/><path class="cls-6" d="M210,139.21v-9a9,9,0,1,1,18.08,0v9h18.08v17.63H191.87V139.21Zm68.7-18.08H244.56a27.12,27.12,0,0,0-51.14,0H158.87a27.16,27.16,0,0,0-27.12,27.12V307.36a27.16,27.16,0,0,0,27.12,27.12H278.68a27.16,27.16,0,0,0,27.09-27.12V148.25A27.16,27.16,0,0,0,278.65,121.13Zm9,186.23a9.06,9.06,0,0,1-9,9H158.87a9.06,9.06,0,0,1-9-9V148.25a9.06,9.06,0,0,1,9-9h14.92v35.71h90.4V139.21h14.46a9.06,9.06,0,0,1,9,9Z"/><polygon class="cls-6" points="214.35 279.05 193.68 246.58 204.03 240.14 214.35 260.43 251.12 220.57 257.77 230.56 214.35 279.05"/><path class="cls-6" d="M210.65,139.92v-9a9,9,0,0,1,18.08,0v9h18.08v17.63H192.57V139.92Zm68.71-18.08h-34.1a27.12,27.12,0,0,0-51.14,0H159.58A27.16,27.16,0,0,0,132.46,149v159.1a27.15,27.15,0,0,0,27.12,27.12H279.39a27.16,27.16,0,0,0,27.09-27.12V149A27.16,27.16,0,0,0,279.36,121.84Zm9,186.22a9.05,9.05,0,0,1-9,9H159.58a9,9,0,0,1-9-9V149a9,9,0,0,1,9-9h14.91v35.71h90.4V139.92h14.47a9.06,9.06,0,0,1,9,9Z"/><polygon class="cls-6" points="215.06 279.76 194.38 247.29 204.73 240.85 215.06 261.13 251.82 221.28 258.48 231.26 215.06 279.76"/><path class="cls-6" d="M211.36,140.63v-9a9,9,0,0,1,18.08,0v9h18.08v17.62H193.28V140.63Zm68.7-18.08H246a27.12,27.12,0,0,0-51.14,0H160.28a27.13,27.13,0,0,0-27.11,27.12v159.1a27.14,27.14,0,0,0,27.11,27.12H280.09a27.16,27.16,0,0,0,27.09-27.12V149.67A27.14,27.14,0,0,0,280.06,122.55Zm9,186.22a9,9,0,0,1-9,9H160.28a9.06,9.06,0,0,1-9-9V149.67a9,9,0,0,1,9-9H175.2v35.7h90.4v-35.7h14.46a9,9,0,0,1,9,9Z"/><polygon class="cls-6" points="215.76 280.46 195.09 247.99 205.44 241.55 215.76 261.84 252.53 221.99 259.19 231.97 215.76 280.46"/><path class="cls-6" d="M212.07,141.33v-9a9,9,0,1,1,18.08,0v9h18.08V159H194V141.33Zm68.7-18.08H246.68a27.12,27.12,0,0,0-51.14,0H161a27.16,27.16,0,0,0-27.12,27.12v159.1A27.14,27.14,0,0,0,161,336.59H280.8a27.15,27.15,0,0,0,27.09-27.12V150.37A27.16,27.16,0,0,0,280.77,123.25Zm9,186.22a9,9,0,0,1-9,9H161a9,9,0,0,1-9-9V150.37a9.06,9.06,0,0,1,9-9h14.92V177h90.4V141.33h14.46a9.06,9.06,0,0,1,9,9Z"/><polygon class="cls-6" points="216.47 281.17 195.79 248.7 206.14 242.26 216.47 262.54 253.23 222.69 259.89 232.68 216.47 281.17"/><path class="cls-6" d="M212.77,142v-9a9,9,0,1,1,18.08,0v9h18.08v17.63H194.69V142ZM281.48,124h-34.1a27.12,27.12,0,0,0-51.14,0H161.7a27.15,27.15,0,0,0-27.12,27.12v159.1A27.15,27.15,0,0,0,161.7,337.3H281.5a27.16,27.16,0,0,0,27.1-27.12V151.08A27.16,27.16,0,0,0,281.48,124Zm9,186.22a9.06,9.06,0,0,1-9,9H161.7a9,9,0,0,1-9-9V151.08a9,9,0,0,1,9-9h14.91v35.71H267V142h14.47a9.06,9.06,0,0,1,9,9Z"/><polygon class="cls-6" points="217.17 281.88 196.5 249.41 206.85 242.97 217.17 263.25 253.94 223.4 260.6 233.38 217.17 281.88"/><path class="cls-6" d="M213.48,142.75v-9a9,9,0,1,1,18.08,0v9h18.08v17.62H195.4V142.75Zm68.7-18.08H248.09a27.12,27.12,0,0,0-51.14,0H162.4a27.14,27.14,0,0,0-27.12,27.12v159.1A27.16,27.16,0,0,0,162.4,338H282.21a27.16,27.16,0,0,0,27.09-27.12V151.79A27.14,27.14,0,0,0,282.18,124.67Zm9,186.22a9.05,9.05,0,0,1-9,9H162.4a9.06,9.06,0,0,1-9-9V151.79a9,9,0,0,1,9-9h14.92v35.7h90.4v-35.7h14.46a9,9,0,0,1,9,9Z"/><polygon class="cls-6" points="217.88 282.58 197.21 250.11 207.56 243.67 217.88 263.96 254.65 224.1 261.3 234.09 217.88 282.58"/><path class="cls-6" d="M214.19,143.45v-9a9,9,0,1,1,18.07,0v9h18.08v17.63H196.11V143.45Zm68.7-18.08H248.8a27.13,27.13,0,0,0-51.15,0H163.11A27.16,27.16,0,0,0,136,152.49v159.1a27.15,27.15,0,0,0,27.12,27.12H282.92A27.15,27.15,0,0,0,310,311.59V152.49A27.16,27.16,0,0,0,282.89,125.37Zm9,186.22a9,9,0,0,1-9,9H163.11a9,9,0,0,1-9-9V152.49a9.06,9.06,0,0,1,9-9H178v35.71h90.39V143.45h14.47a9.06,9.06,0,0,1,9,9Z"/><polygon class="cls-6" points="218.59 283.29 197.91 250.82 208.26 244.38 218.59 264.66 255.35 224.81 262.01 234.79 218.59 283.29"/><path class="cls-6" d="M214.89,144.16v-9a9,9,0,1,1,18.08,0v9h18.08v17.63H196.81V144.16Zm68.7-18.08H249.5a27.12,27.12,0,0,0-51.14,0H163.82A27.14,27.14,0,0,0,136.7,153.2V312.3a27.14,27.14,0,0,0,27.12,27.12h119.8a27.16,27.16,0,0,0,27.09-27.12V153.2A27.14,27.14,0,0,0,283.59,126.08Zm9,186.22a9,9,0,0,1-9,9H163.82a9,9,0,0,1-9-9V153.2a9,9,0,0,1,9-9h14.91v35.71h90.4V144.16h14.46a9,9,0,0,1,9,9Z"/><polygon class="cls-6" points="219.29 284 198.62 251.52 208.97 245.08 219.29 265.37 256.06 225.52 262.72 235.5 219.29 284"/><path class="cls-6" d="M215.6,144.86v-9a9,9,0,0,1,18.08,0v9h18.08v17.63H197.52V144.86Zm68.7-18.08H250.21a27.12,27.12,0,0,0-51.14,0H164.52A27.16,27.16,0,0,0,137.4,153.9V313a27.16,27.16,0,0,0,27.12,27.12H284.33A27.16,27.16,0,0,0,311.42,313V153.9A27.16,27.16,0,0,0,284.3,126.78Zm9,186.23a9.06,9.06,0,0,1-9,9H164.52a9.06,9.06,0,0,1-9-9V153.9a9.06,9.06,0,0,1,9-9h14.92v35.71h90.4V144.86H284.3a9.06,9.06,0,0,1,9,9Z"/><polygon class="cls-6" points="220 284.7 199.33 252.23 209.68 245.79 220 266.07 256.76 226.22 263.42 236.21 220 284.7"/><path class="cls-6" d="M216.3,145.57v-9a9,9,0,0,1,18.08,0v9h18.08V163.2H198.22V145.57ZM285,127.49h-34.1a27.12,27.12,0,0,0-51.14,0H165.23a27.16,27.16,0,0,0-27.12,27.12v159.1a27.15,27.15,0,0,0,27.12,27.12H285a27.16,27.16,0,0,0,27.09-27.12V154.61A27.16,27.16,0,0,0,285,127.49Zm9,186.22a9.05,9.05,0,0,1-9,9H165.23a9,9,0,0,1-9-9V154.61a9,9,0,0,1,9-9h14.91v35.71h90.4V145.57H285a9.06,9.06,0,0,1,9,9Z"/><polygon class="cls-6" points="220.71 285.41 200.03 252.94 210.38 246.5 220.71 266.78 257.47 226.93 264.13 236.91 220.71 285.41"/><path class="cls-6" d="M217,146.28v-9a9,9,0,1,1,18.08,0v9h18.08V163.9H198.93V146.28Zm68.7-18.08H251.62a27.12,27.12,0,0,0-51.14,0H165.93a27.13,27.13,0,0,0-27.11,27.12v159.1a27.14,27.14,0,0,0,27.11,27.12H285.74a27.16,27.16,0,0,0,27.09-27.12V155.32A27.14,27.14,0,0,0,285.71,128.2Zm9,186.22a9.05,9.05,0,0,1-9,9H165.93a9.06,9.06,0,0,1-9-9V155.32a9,9,0,0,1,9-9h14.92V182h90.4v-35.7h14.46a9,9,0,0,1,9,9Z"/><polygon class="cls-6" points="221.41 286.11 200.74 253.64 211.09 247.2 221.41 267.49 258.18 227.64 264.84 237.62 221.41 286.11"/><path class="cls-6" d="M217.72,147v-9a9,9,0,0,1,18.08,0v9h18.08v17.63H199.64V147Zm68.7-18.08H252.33a27.13,27.13,0,0,0-51.15,0H166.64A27.16,27.16,0,0,0,139.52,156v159.1a27.14,27.14,0,0,0,27.12,27.12H286.45a27.15,27.15,0,0,0,27.09-27.12V156A27.16,27.16,0,0,0,286.42,128.9Zm9,186.22a9,9,0,0,1-9,9H166.64a9,9,0,0,1-9-9V156a9.06,9.06,0,0,1,9-9h14.92v35.71H272V147h14.46a9.06,9.06,0,0,1,9,9Z"/><polygon class="cls-6" points="222.12 286.82 201.44 254.35 211.79 247.91 222.12 268.19 258.88 228.34 265.54 238.33 222.12 286.82"/><path class="cls-6" d="M218.42,147.69v-9a9,9,0,1,1,18.08,0v9h18.08v17.63H200.34V147.69Zm68.71-18.08H253a27.12,27.12,0,0,0-51.14,0H167.35a27.15,27.15,0,0,0-27.12,27.12v159.1A27.15,27.15,0,0,0,167.35,343h119.8a27.16,27.16,0,0,0,27.1-27.12V156.73A27.16,27.16,0,0,0,287.13,129.61Zm9,186.22a9.06,9.06,0,0,1-9,9H167.35a9,9,0,0,1-9-9V156.73a9,9,0,0,1,9-9h14.91V183.4h90.4V147.69h14.47a9,9,0,0,1,9,9Z"/><polygon class="cls-6" points="222.82 287.53 202.15 255.06 212.5 248.62 222.82 268.9 259.59 229.05 266.25 239.03 222.82 287.53"/><path class="cls-6" d="M219.13,148.4v-9a9,9,0,0,1,18.08,0v9h18.08V166H201.05V148.4Zm68.7-18.08H253.74a27.12,27.12,0,0,0-51.14,0H168.05a27.14,27.14,0,0,0-27.12,27.12v159.1a27.16,27.16,0,0,0,27.12,27.12H287.86A27.16,27.16,0,0,0,315,316.54V157.44A27.14,27.14,0,0,0,287.83,130.32Zm9,186.22a9.05,9.05,0,0,1-9,9H168.05a9.06,9.06,0,0,1-9-9V157.44a9,9,0,0,1,9-9H183v35.7h90.4V148.4h14.46a9,9,0,0,1,9,9Z"/><polygon class="cls-6" points="223.53 288.23 202.86 255.76 213.21 249.32 223.53 269.61 260.3 229.75 266.95 239.74 223.53 288.23"/><path class="cls-6" d="M219.83,149.1v-9a9,9,0,0,1,18.08,0v9H256v17.63H201.76V149.1ZM288.54,131H254.45a27.13,27.13,0,0,0-51.15,0H168.76a27.16,27.16,0,0,0-27.12,27.12v159.1a27.15,27.15,0,0,0,27.12,27.12H288.57a27.16,27.16,0,0,0,27.09-27.12V158.14A27.16,27.16,0,0,0,288.54,131Zm9,186.22a9,9,0,0,1-9,9H168.76a9,9,0,0,1-9-9V158.14a9.06,9.06,0,0,1,9-9h14.92v35.71h90.39V149.1h14.47a9.06,9.06,0,0,1,9,9Z"/><polygon class="cls-6" points="224.24 288.94 203.56 256.47 213.91 250.03 224.24 270.31 261 230.46 267.66 240.44 224.24 288.94"/><path class="cls-6" d="M220.54,149.81v-9a9,9,0,1,1,18.08,0v9H256.7v17.63H202.46V149.81Zm68.7-18.08H255.15a27.12,27.12,0,0,0-51.14,0H169.47a27.14,27.14,0,0,0-27.12,27.12V318a27.14,27.14,0,0,0,27.12,27.12h119.8A27.16,27.16,0,0,0,316.36,318V158.85A27.14,27.14,0,0,0,289.24,131.73Zm9,186.22a9,9,0,0,1-9,9H169.47a9,9,0,0,1-9-9V158.85a9,9,0,0,1,9-9h14.91v35.71h90.4V149.81h14.46a9,9,0,0,1,9,9Z"/><polygon class="cls-6" points="224.94 289.64 204.27 257.17 214.62 250.73 224.94 271.02 261.71 231.17 268.37 241.15 224.94 289.64"/><path class="cls-6" d="M221.25,150.51v-9a9,9,0,0,1,18.08,0v9h18.08v17.63H203.17V150.51ZM290,132.43H255.86a27.12,27.12,0,0,0-51.14,0H170.17a27.16,27.16,0,0,0-27.12,27.12V318.66a27.16,27.16,0,0,0,27.12,27.12H290a27.16,27.16,0,0,0,27.09-27.12V159.55A27.16,27.16,0,0,0,290,132.43Zm9,186.23a9.06,9.06,0,0,1-9,9H170.17a9.06,9.06,0,0,1-9-9V159.55a9.06,9.06,0,0,1,9-9h14.92v35.71h90.4V150.51H290a9.06,9.06,0,0,1,9,9Z"/><polygon class="cls-6" points="225.65 290.35 204.98 257.88 215.32 251.44 225.65 271.73 262.42 231.87 269.07 241.86 225.65 290.35"/><path class="cls-6" d="M222,151.22v-9a9,9,0,1,1,18.08,0v9h18.08v17.63H203.87V151.22Zm68.71-18.08h-34.1a27.12,27.12,0,0,0-51.14,0H170.88a27.16,27.16,0,0,0-27.12,27.12v159.1a27.15,27.15,0,0,0,27.12,27.12H290.69a27.16,27.16,0,0,0,27.09-27.12V160.26A27.16,27.16,0,0,0,290.66,133.14Zm9,186.22a9.06,9.06,0,0,1-9,9H170.88a9,9,0,0,1-9-9V160.26a9,9,0,0,1,9-9h14.91v35.71h90.4V151.22h14.47a9.06,9.06,0,0,1,9,9Z"/><polygon class="cls-6" points="226.35 291.06 205.68 258.59 216.03 252.15 226.35 272.43 263.12 232.58 269.78 242.56 226.35 291.06"/><path class="cls-6" d="M222.66,151.93v-9a9,9,0,0,1,18.08,0v9h18.08v17.62H204.58V151.93Zm68.7-18.08H257.27a27.12,27.12,0,0,0-51.14,0H171.58A27.15,27.15,0,0,0,144.46,161v159.1a27.16,27.16,0,0,0,27.12,27.12H291.39a27.16,27.16,0,0,0,27.09-27.12V161A27.14,27.14,0,0,0,291.36,133.85Zm9,186.22a9.05,9.05,0,0,1-9,9H171.58a9.06,9.06,0,0,1-9-9V161a9,9,0,0,1,9-9H186.5v35.7h90.4v-35.7h14.46a9,9,0,0,1,9,9Z"/><polygon class="cls-6" points="227.06 291.76 206.39 259.29 216.74 252.85 227.06 273.14 263.83 233.29 270.49 243.27 227.06 291.76"/><path class="cls-6" d="M223.37,152.63v-9a9,9,0,0,1,18.08,0v9h18.08v17.63H205.29V152.63Zm68.7-18.08H258a27.13,27.13,0,0,0-51.15,0H172.29a27.16,27.16,0,0,0-27.12,27.12v159.1a27.14,27.14,0,0,0,27.12,27.12H292.1a27.15,27.15,0,0,0,27.09-27.12V161.67A27.16,27.16,0,0,0,292.07,134.55Zm9,186.22a9,9,0,0,1-9,9H172.29a9,9,0,0,1-9-9V161.67a9.06,9.06,0,0,1,9-9h14.92v35.71h90.4V152.63h14.46a9.06,9.06,0,0,1,9,9Z"/><polygon class="cls-6" points="227.77 292.47 207.09 260 217.44 253.56 227.77 273.84 264.53 233.99 271.19 243.98 227.77 292.47"/><path class="cls-6" d="M224.07,153.34v-9a9,9,0,1,1,18.08,0v9h18.08V171H206V153.34Zm68.71-18.08h-34.1a27.12,27.12,0,0,0-51.14,0H173a27.15,27.15,0,0,0-27.12,27.12v159.1A27.15,27.15,0,0,0,173,348.6H292.8a27.16,27.16,0,0,0,27.1-27.12V162.38A27.16,27.16,0,0,0,292.78,135.26Zm9,186.22a9.06,9.06,0,0,1-9,9H173a9,9,0,0,1-9-9V162.38a9,9,0,0,1,9-9h14.91v35.71h90.4V153.34h14.47a9,9,0,0,1,9,9Z"/><polygon class="cls-6" points="228.47 293.18 207.8 260.7 218.15 254.26 228.47 274.55 265.24 234.7 271.9 244.68 228.47 293.18"/><path class="cls-6" d="M224.78,154.05v-9a9,9,0,0,1,18.08,0v9h18.08v17.62H206.7V154.05ZM293.48,136H259.39a27.12,27.12,0,0,0-51.14,0H173.7a27.14,27.14,0,0,0-27.12,27.11V322.19a27.16,27.16,0,0,0,27.12,27.12H293.51a27.16,27.16,0,0,0,27.09-27.12V163.08A27.14,27.14,0,0,0,293.48,136Zm9,186.22a9.05,9.05,0,0,1-9,9H173.7a9.06,9.06,0,0,1-9-9V163.08a9,9,0,0,1,9-9h14.92v35.7H279v-35.7h14.46a9,9,0,0,1,9,9Z"/><polygon class="cls-6" points="229.18 293.88 208.51 261.41 218.86 254.97 229.18 275.26 265.95 235.4 272.6 245.39 229.18 293.88"/><path class="cls-6" d="M225.48,154.75v-9a9,9,0,1,1,18.08,0v9h18.08v17.63H207.41V154.75Zm68.71-18.08H260.1a27.13,27.13,0,0,0-51.15,0H174.41a27.16,27.16,0,0,0-27.12,27.12v159.1A27.15,27.15,0,0,0,174.41,350H294.22a27.16,27.16,0,0,0,27.09-27.12V163.79A27.16,27.16,0,0,0,294.19,136.67Zm9,186.22a9,9,0,0,1-9,9H174.41a9,9,0,0,1-9-9V163.79a9.06,9.06,0,0,1,9-9h14.92v35.71h90.39V154.75h14.47a9.06,9.06,0,0,1,9,9Z"/><polygon class="cls-6" points="229.89 294.59 209.21 262.12 219.56 255.68 229.89 275.96 266.65 236.11 273.31 246.09 229.89 294.59"/><path class="cls-6" d="M226.19,155.46v-9a9,9,0,0,1,18.08,0v9h18.08v17.63H208.11V155.46Zm68.7-18.08H260.8a27.12,27.12,0,0,0-51.14,0H175.12A27.14,27.14,0,0,0,148,164.5V323.6a27.14,27.14,0,0,0,27.12,27.12h119.8A27.16,27.16,0,0,0,322,323.6V164.5A27.14,27.14,0,0,0,294.89,137.38Zm9,186.22a9,9,0,0,1-9,9H175.12a9,9,0,0,1-9-9V164.5a9,9,0,0,1,9-9H190v35.71h90.4V155.46h14.46a9,9,0,0,1,9,9Z"/><polygon class="cls-6" points="230.59 295.3 209.92 262.82 220.27 256.38 230.59 276.67 267.36 236.82 274.02 246.8 230.59 295.3"/><path class="cls-6" d="M226.9,156.16v-9a9,9,0,0,1,18.08,0v9h18.08v17.63H208.82V156.16Zm68.7-18.08H261.51a27.12,27.12,0,0,0-51.14,0H175.82A27.16,27.16,0,0,0,148.7,165.2V324.31a27.16,27.16,0,0,0,27.12,27.12H295.63a27.16,27.16,0,0,0,27.09-27.12V165.2A27.16,27.16,0,0,0,295.6,138.08Zm9,186.23a9.06,9.06,0,0,1-9,9H175.82a9.06,9.06,0,0,1-9-9V165.2a9.06,9.06,0,0,1,9-9h14.92v35.71h90.4V156.16H295.6a9.06,9.06,0,0,1,9,9Z"/><polygon class="cls-6" points="231.3 296 210.63 263.53 220.97 257.09 231.3 277.38 268.06 237.52 274.72 247.51 231.3 296"/><path class="cls-6" d="M227.6,156.87v-9a9,9,0,0,1,18.08,0v9h18.08V174.5H209.52V156.87Zm68.71-18.08h-34.1a27.12,27.12,0,0,0-51.14,0H176.53a27.15,27.15,0,0,0-27.12,27.12V325a27.14,27.14,0,0,0,27.12,27.12H296.34A27.16,27.16,0,0,0,323.43,325V165.91A27.16,27.16,0,0,0,296.31,138.79Zm9,186.22a9.06,9.06,0,0,1-9,9H176.53a9,9,0,0,1-9-9V165.91a9,9,0,0,1,9-9h14.91v35.71h90.4V156.87h14.47a9.06,9.06,0,0,1,9,9Z"/><polygon class="cls-6" points="232 296.71 211.33 264.24 221.68 257.8 232 278.08 268.77 238.23 275.43 248.21 232 296.71"/><path class="cls-6" d="M228.31,157.58v-9a9,9,0,0,1,18.08,0v9h18.08V175.2H210.23V157.58ZM297,139.5H262.92a27.12,27.12,0,0,0-51.14,0H177.23a27.15,27.15,0,0,0-27.12,27.12v159.1a27.16,27.16,0,0,0,27.12,27.12H297a27.16,27.16,0,0,0,27.09-27.12V166.62A27.14,27.14,0,0,0,297,139.5Zm9,186.22a9.05,9.05,0,0,1-9,9H177.23a9.06,9.06,0,0,1-9-9V166.62a9,9,0,0,1,9-9h14.92v35.7h90.4v-35.7H297a9,9,0,0,1,9,9Z"/><polygon class="cls-6" points="232.71 297.41 212.04 264.94 222.39 258.5 232.71 278.79 269.48 238.94 276.13 248.92 232.71 297.41"/><path class="cls-6" d="M229,158.28v-9a9,9,0,1,1,18.08,0v9h18.08v17.63H210.94V158.28Zm68.7-18.08H263.63a27.13,27.13,0,0,0-51.15,0H177.94a27.16,27.16,0,0,0-27.12,27.12v159.1a27.14,27.14,0,0,0,27.12,27.12H297.75a27.15,27.15,0,0,0,27.09-27.12V167.32A27.16,27.16,0,0,0,297.72,140.2Zm9,186.22a9,9,0,0,1-9,9H177.94a9,9,0,0,1-9-9V167.32a9.06,9.06,0,0,1,9-9h14.92V194h90.4V158.28h14.46a9.06,9.06,0,0,1,9,9Z"/><polygon class="cls-6" points="233.42 298.12 212.74 265.65 223.09 259.21 233.42 279.49 270.18 239.64 276.84 249.63 233.42 298.12"/><path class="cls-6" d="M229.72,159v-9a9,9,0,0,1,18.08,0v9h18.08v17.63H211.64V159Zm68.71-18.08h-34.1a27.12,27.12,0,0,0-51.14,0H178.65A27.15,27.15,0,0,0,151.53,168v159.1a27.15,27.15,0,0,0,27.12,27.12h119.8a27.15,27.15,0,0,0,27.09-27.12V168A27.14,27.14,0,0,0,298.43,140.91Zm9,186.22a9.06,9.06,0,0,1-9,9H178.65a9,9,0,0,1-9-9V168a9,9,0,0,1,9-9h14.91V194.7H284V159h14.47a9,9,0,0,1,9,9Z"/><polygon class="cls-6" points="234.12 298.83 213.45 266.36 223.8 259.91 234.12 280.2 270.89 240.35 277.55 250.33 234.12 298.83"/><path class="cls-6" d="M230.43,159.69v-9a9,9,0,0,1,18.08,0v9h18.08v17.63H212.35V159.69Zm68.7-18.07H265a27.12,27.12,0,0,0-51.14,0H179.35a27.14,27.14,0,0,0-27.12,27.11V327.84A27.16,27.16,0,0,0,179.35,355H299.16a27.16,27.16,0,0,0,27.09-27.12V168.73A27.14,27.14,0,0,0,299.13,141.62Zm9,186.22a9.05,9.05,0,0,1-9,9H179.35a9.06,9.06,0,0,1-9-9V168.73a9.06,9.06,0,0,1,9-9h14.92V195.4h90.4V159.69h14.46a9,9,0,0,1,9,9Z"/><polygon class="cls-6" points="234.83 299.53 214.16 267.06 224.51 260.62 234.83 280.91 271.6 241.05 278.25 251.04 234.83 299.53"/><path class="cls-6" d="M231.13,160.4v-9a9,9,0,0,1,18.08,0v9h18.08V178H213.05V160.4Zm68.71-18.08H265.75a27.13,27.13,0,0,0-51.15,0H180.06a27.16,27.16,0,0,0-27.12,27.12v159.1a27.15,27.15,0,0,0,27.12,27.12H299.87A27.16,27.16,0,0,0,327,328.54V169.44A27.16,27.16,0,0,0,299.84,142.32Zm9,186.22a9,9,0,0,1-9,9H180.06a9,9,0,0,1-9-9V169.44a9.06,9.06,0,0,1,9-9H195v35.71h90.39V160.4h14.47a9.06,9.06,0,0,1,9,9Z"/><polygon class="cls-6" points="235.54 300.24 214.86 267.77 225.21 261.33 235.54 281.61 272.3 241.76 278.96 251.75 235.54 300.24"/><path class="cls-6" d="M231.84,161.11v-9a9,9,0,0,1,18.08,0v9H268v17.63H213.76V161.11ZM300.54,143H266.45a27.12,27.12,0,0,0-51.14,0H180.77a27.14,27.14,0,0,0-27.12,27.12v159.1a27.14,27.14,0,0,0,27.12,27.12h119.8a27.16,27.16,0,0,0,27.09-27.12V170.15A27.14,27.14,0,0,0,300.54,143Zm9,186.22a9,9,0,0,1-9,9H180.77a9,9,0,0,1-9-9V170.15a9,9,0,0,1,9-9h14.91v35.7h90.4v-35.7h14.46a9,9,0,0,1,9,9Z"/><polygon class="cls-6" points="236.24 300.94 215.57 268.47 225.92 262.03 236.24 282.32 273.01 242.47 279.67 252.45 236.24 300.94"/><path class="cls-6" d="M232.55,161.81v-9a9,9,0,1,1,18.08,0v9h18.08v17.63H214.47V161.81Zm68.7-18.08H267.16a27.12,27.12,0,0,0-51.14,0H181.47a27.16,27.16,0,0,0-27.12,27.12V330a27.16,27.16,0,0,0,27.12,27.12H301.28A27.16,27.16,0,0,0,328.37,330V170.85A27.16,27.16,0,0,0,301.25,143.73Zm9,186.23a9.06,9.06,0,0,1-9,9H181.47a9.06,9.06,0,0,1-9-9V170.85a9.06,9.06,0,0,1,9-9h14.92v35.71h90.4V161.81h14.46a9.06,9.06,0,0,1,9,9Z"/><polygon class="cls-6" points="236.95 301.65 216.28 269.18 226.63 262.74 236.95 283.02 273.71 243.17 280.37 253.16 236.95 301.65"/><path class="cls-6" d="M233.25,162.52v-9a9,9,0,0,1,18.08,0v9h18.08v17.63H215.17V162.52ZM302,144.44h-34.1a27.12,27.12,0,0,0-51.14,0H182.18a27.15,27.15,0,0,0-27.12,27.12v159.1a27.15,27.15,0,0,0,27.12,27.12H302a27.16,27.16,0,0,0,27.09-27.12V171.56A27.16,27.16,0,0,0,302,144.44Zm9,186.22a9.06,9.06,0,0,1-9,9H182.18a9,9,0,0,1-9-9V171.56a9,9,0,0,1,9-9h14.91v35.71h90.4V162.52H302a9.06,9.06,0,0,1,9,9Z"/><polygon class="cls-6" points="237.66 302.36 216.98 269.89 227.33 263.45 237.66 283.73 274.42 243.88 281.08 253.86 237.66 302.36"/><path class="cls-6" d="M234,163.23v-9a9,9,0,0,1,18.08,0v9h18.08v17.62H215.88V163.23Zm68.7-18.08H268.57a27.12,27.12,0,0,0-51.14,0H182.88a27.15,27.15,0,0,0-27.12,27.12v159.1a27.16,27.16,0,0,0,27.12,27.12H302.69a27.16,27.16,0,0,0,27.09-27.12V172.27A27.14,27.14,0,0,0,302.66,145.15Zm9,186.22a9.05,9.05,0,0,1-9,9H182.88a9.06,9.06,0,0,1-9-9V172.27a9,9,0,0,1,9-9H197.8v35.7h90.4v-35.7h14.46a9,9,0,0,1,9,9Z"/><polygon class="cls-6" points="238.36 303.06 217.69 270.59 228.04 264.15 238.36 284.44 275.13 244.59 281.79 254.57 238.36 303.06"/><path class="cls-6" d="M234.67,163.93v-9a9,9,0,1,1,18.08,0v9h18.08v17.63H216.59V163.93Zm68.7-18.08H269.28a27.13,27.13,0,0,0-51.15,0H183.59A27.16,27.16,0,0,0,156.47,173v159.1a27.14,27.14,0,0,0,27.12,27.12H303.4a27.15,27.15,0,0,0,27.09-27.12V173A27.16,27.16,0,0,0,303.37,145.85Zm9,186.22a9,9,0,0,1-9,9H183.59a9,9,0,0,1-9-9V173a9.06,9.06,0,0,1,9-9h14.92v35.71h90.4V163.93h14.46a9.06,9.06,0,0,1,9,9Z"/><polygon class="cls-6" points="239.07 303.77 218.39 271.3 228.74 264.86 239.07 285.14 275.83 245.29 282.49 255.28 239.07 303.77"/><path class="cls-6" d="M235.37,164.64v-9a9,9,0,0,1,18.08,0v9h18.08v17.63H217.29V164.64Zm68.71-18.08H270a27.12,27.12,0,0,0-51.14,0H184.3a27.15,27.15,0,0,0-27.12,27.12v159.1A27.15,27.15,0,0,0,184.3,359.9H304.1a27.15,27.15,0,0,0,27.09-27.12V173.68A27.14,27.14,0,0,0,304.08,146.56Zm9,186.22a9.06,9.06,0,0,1-9,9H184.3a9,9,0,0,1-9-9V173.68a9,9,0,0,1,9-9h14.91v35.71h90.4V164.64h14.47a9,9,0,0,1,9,9Z"/><polygon class="cls-6" points="239.77 304.48 219.1 272 229.45 265.56 239.77 285.85 276.54 246 283.2 255.98 239.77 304.48"/><path class="cls-6" d="M236.08,165.34v-9a9,9,0,0,1,18.08,0v9h18.08V183H218V165.34Zm68.7-18.07H270.69a27.12,27.12,0,0,0-51.14,0H185a27.14,27.14,0,0,0-27.12,27.11V333.49A27.16,27.16,0,0,0,185,360.61H304.81a27.16,27.16,0,0,0,27.09-27.12V174.38A27.14,27.14,0,0,0,304.78,147.27Zm9,186.22a9.05,9.05,0,0,1-9,9H185a9.06,9.06,0,0,1-9-9V174.38a9.06,9.06,0,0,1,9-9h14.92v35.71h90.4V165.34h14.46a9,9,0,0,1,9,9Z"/><polygon class="cls-6" points="240.48 305.18 219.81 272.71 230.16 266.27 240.48 286.56 277.25 246.7 283.9 256.69 240.48 305.18"/><path class="cls-6" d="M236.78,166.05v-9a9,9,0,0,1,18.08,0v9h18.08v17.63H218.7V166.05ZM305.49,148H271.4a27.13,27.13,0,0,0-51.15,0H185.71a27.16,27.16,0,0,0-27.12,27.12v159.1a27.15,27.15,0,0,0,27.12,27.12H305.52a27.16,27.16,0,0,0,27.09-27.12V175.09A27.16,27.16,0,0,0,305.49,148Zm9,186.22a9,9,0,0,1-9,9H185.71a9,9,0,0,1-9-9V175.09a9.06,9.06,0,0,1,9-9h14.92v35.71H291V166.05h14.47a9.06,9.06,0,0,1,9,9Z"/><polygon class="cls-6" points="241.19 305.89 220.51 273.42 230.86 266.98 241.19 287.26 277.95 247.41 284.61 257.39 241.19 305.89"/><path class="cls-6" d="M237.49,166.76v-9a9,9,0,0,1,18.08,0v9h18.08v17.63H219.41V166.76Zm68.7-18.08H272.1a27.12,27.12,0,0,0-51.14,0H186.42A27.14,27.14,0,0,0,159.3,175.8V334.9A27.14,27.14,0,0,0,186.42,362h119.8a27.16,27.16,0,0,0,27.09-27.12V175.8A27.14,27.14,0,0,0,306.19,148.68Zm9,186.22a9,9,0,0,1-9,9H186.42a9,9,0,0,1-9-9V175.8a9,9,0,0,1,9-9h14.91v35.7h90.4v-35.7h14.46a9,9,0,0,1,9,9Z"/><polygon class="cls-6" points="241.89 306.59 221.22 274.12 231.57 267.68 241.89 287.97 278.66 248.12 285.32 258.1 241.89 306.59"/><path class="cls-6" d="M238.2,167.46v-9a9,9,0,1,1,18.08,0v9h18.08v17.63H220.12V167.46Zm68.7-18.08H272.81a27.12,27.12,0,0,0-51.14,0H187.12A27.16,27.16,0,0,0,160,176.5V335.61a27.16,27.16,0,0,0,27.12,27.12H306.93A27.16,27.16,0,0,0,334,335.61V176.5A27.16,27.16,0,0,0,306.9,149.38Zm9,186.23a9.06,9.06,0,0,1-9,9H187.12a9.06,9.06,0,0,1-9-9V176.5a9.06,9.06,0,0,1,9-9H202v35.71h90.4V167.46H306.9a9.06,9.06,0,0,1,9,9Z"/><polygon class="cls-6" points="242.6 307.3 221.93 274.83 232.28 268.39 242.6 288.68 279.36 248.82 286.02 258.81 242.6 307.3"/><path class="cls-6" d="M238.9,168.17v-9a9,9,0,0,1,18.08,0v9h18.08V185.8H220.82V168.17Zm68.71-18.08h-34.1a27.12,27.12,0,0,0-51.14,0H187.83a27.15,27.15,0,0,0-27.12,27.12v159.1a27.15,27.15,0,0,0,27.12,27.12h119.8a27.16,27.16,0,0,0,27.1-27.12V177.21A27.16,27.16,0,0,0,307.61,150.09Zm9,186.22a9.06,9.06,0,0,1-9,9H187.83a9,9,0,0,1-9-9V177.21a9,9,0,0,1,9-9h14.91v35.71h90.4V168.17h14.47a9.06,9.06,0,0,1,9,9Z"/><polygon class="cls-6" points="243.31 308.01 222.63 275.54 232.98 269.1 243.31 289.38 280.07 249.53 286.73 259.51 243.31 308.01"/><path class="cls-6" d="M239.61,168.88v-9a9,9,0,0,1,18.08,0v9h18.08V186.5H221.53V168.88Zm68.7-18.08H274.22a27.12,27.12,0,0,0-51.14,0H188.53a27.14,27.14,0,0,0-27.12,27.12V337a27.16,27.16,0,0,0,27.12,27.12H308.34A27.16,27.16,0,0,0,335.43,337V177.92A27.14,27.14,0,0,0,308.31,150.8Zm9,186.22a9.05,9.05,0,0,1-9,9H188.53a9.06,9.06,0,0,1-9-9V177.92a9,9,0,0,1,9-9h14.92v35.7h90.4v-35.7h14.46a9,9,0,0,1,9,9Z"/><polygon class="cls-6" points="244.01 308.71 223.34 276.24 233.69 269.8 244.01 290.09 280.78 250.24 287.44 260.22 244.01 308.71"/><path class="cls-6" d="M240.32,169.58v-9a9,9,0,1,1,18.08,0v9h18.08v17.63H222.24V169.58ZM309,151.5H274.93a27.13,27.13,0,0,0-51.15,0H189.24a27.16,27.16,0,0,0-27.12,27.12v159.1a27.14,27.14,0,0,0,27.12,27.12H309.05a27.15,27.15,0,0,0,27.09-27.12V178.62A27.16,27.16,0,0,0,309,151.5Zm9,186.22a9,9,0,0,1-9,9H189.24a9,9,0,0,1-9-9V178.62a9.06,9.06,0,0,1,9-9h14.92v35.71h90.4V169.58H309a9.06,9.06,0,0,1,9,9Z"/><polygon class="cls-6" points="244.72 309.42 224.04 276.95 234.39 270.51 244.72 290.79 281.48 250.94 288.14 260.93 244.72 309.42"/><path class="cls-6" d="M241,170.29v-9a9,9,0,0,1,18.08,0v9h18.08v17.63H222.94V170.29Zm68.71-18.08h-34.1a27.12,27.12,0,0,0-51.14,0H190a27.15,27.15,0,0,0-27.12,27.12v159.1A27.15,27.15,0,0,0,190,365.55h119.8a27.16,27.16,0,0,0,27.09-27.12V179.33A27.14,27.14,0,0,0,309.73,152.21Zm9,186.22a9.06,9.06,0,0,1-9,9H190a9,9,0,0,1-9-9V179.33a9,9,0,0,1,9-9h14.91V206h90.4V170.29h14.47a9,9,0,0,1,9,9Z"/><polygon class="cls-6" points="245.42 310.13 224.75 277.65 235.1 271.21 245.42 291.5 282.19 251.65 288.85 261.63 245.42 310.13"/><path class="cls-6" d="M241.73,171v-9a9,9,0,1,1,18.08,0v9h18.08v17.63H223.65V171Zm68.7-18.08H276.34a27.12,27.12,0,0,0-51.14,0H190.65A27.16,27.16,0,0,0,163.53,180V339.14a27.16,27.16,0,0,0,27.12,27.12H310.46a27.16,27.16,0,0,0,27.09-27.12V180A27.16,27.16,0,0,0,310.43,152.91Zm9,186.23a9.05,9.05,0,0,1-9,9H190.65a9.06,9.06,0,0,1-9-9V180a9.06,9.06,0,0,1,9-9h14.92V206.7H296V171h14.46a9,9,0,0,1,9,9Z"/><polygon class="cls-6" points="246.13 310.83 225.46 278.36 235.81 271.92 246.13 292.21 282.89 252.35 289.55 262.34 246.13 310.83"/><path class="cls-6" d="M242.43,171.7v-9a9,9,0,0,1,18.08,0v9h18.08v17.63H224.35V171.7Zm68.71-18.08H277.05a27.13,27.13,0,0,0-51.15,0H191.36a27.16,27.16,0,0,0-27.12,27.12v159.1A27.15,27.15,0,0,0,191.36,367H311.17a27.16,27.16,0,0,0,27.09-27.12V180.74A27.16,27.16,0,0,0,311.14,153.62Zm9,186.22a9,9,0,0,1-9,9H191.36a9,9,0,0,1-9-9V180.74a9.06,9.06,0,0,1,9-9h14.91v35.71h90.4V171.7h14.47a9.06,9.06,0,0,1,9,9Z"/><polygon class="cls-6" points="246.84 311.54 226.16 279.07 236.51 272.63 246.84 292.91 283.6 253.06 290.26 263.04 246.84 311.54"/><path class="cls-6" d="M243.14,172.41v-9a9,9,0,0,1,18.08,0v9H279.3V190H225.06V172.41Zm68.7-18.08H277.75a27.12,27.12,0,0,0-51.14,0H192.07A27.14,27.14,0,0,0,165,181.45v159.1a27.14,27.14,0,0,0,27.12,27.12h119.8A27.16,27.16,0,0,0,339,340.55V181.45A27.14,27.14,0,0,0,311.84,154.33Zm9,186.22a9,9,0,0,1-9,9H192.07a9,9,0,0,1-9-9V181.45a9,9,0,0,1,9-9H207v35.7h90.4v-35.7h14.46a9,9,0,0,1,9,9Z"/><polygon class="cls-6" points="247.54 312.24 226.87 279.77 237.22 273.33 247.54 293.62 284.31 253.77 290.97 263.75 247.54 312.24"/><path class="cls-6" d="M243.85,173.11v-9a9,9,0,0,1,18.08,0v9H280v17.63H225.77V173.11ZM312.55,155H278.46a27.12,27.12,0,0,0-51.14,0H192.77a27.16,27.16,0,0,0-27.12,27.12V341.26a27.14,27.14,0,0,0,27.12,27.11H312.58a27.15,27.15,0,0,0,27.09-27.11V182.15A27.16,27.16,0,0,0,312.55,155Zm9,186.23a9.06,9.06,0,0,1-9,9H192.77a9.06,9.06,0,0,1-9-9V182.15a9.06,9.06,0,0,1,9-9h14.92v35.71h90.4V173.11h14.46a9.06,9.06,0,0,1,9,9Z"/><polygon class="cls-6" points="248.25 312.95 227.57 280.48 237.93 274.04 248.25 294.32 285.01 254.47 291.67 264.46 248.25 312.95"/><path class="cls-6" d="M244.55,173.82v-9a9,9,0,0,1,18.08,0v9h18.08v17.63H226.47V173.82Zm68.71-18.08h-34.1a27.12,27.12,0,0,0-51.14,0H193.48a27.15,27.15,0,0,0-27.12,27.12V342a27.15,27.15,0,0,0,27.12,27.12h119.8A27.16,27.16,0,0,0,340.38,342V182.86A27.16,27.16,0,0,0,313.26,155.74Zm9,186.22a9.06,9.06,0,0,1-9,9H193.48a9,9,0,0,1-9-9V182.86a9,9,0,0,1,9-9h14.91v35.71h90.4V173.82h14.47a9.06,9.06,0,0,1,9,9Z"/><polygon class="cls-6" points="248.96 313.66 228.28 281.19 238.63 274.75 248.96 295.03 285.72 255.18 292.38 265.16 248.96 313.66"/><path class="cls-6" d="M245.26,174.53v-9a9,9,0,1,1,18.08,0v9h18.08v17.62H227.18V174.53ZM314,156.45H279.87a27.12,27.12,0,0,0-51.14,0H194.18a27.14,27.14,0,0,0-27.12,27.12v159.1a27.16,27.16,0,0,0,27.12,27.12H314a27.16,27.16,0,0,0,27.09-27.12V183.57A27.14,27.14,0,0,0,314,156.45Zm9,186.22a9.05,9.05,0,0,1-9,9H194.18a9.06,9.06,0,0,1-9-9V183.57a9,9,0,0,1,9-9H209.1v35.7h90.4v-35.7H314a9,9,0,0,1,9,9Z"/><polygon class="cls-6" points="249.66 314.36 228.99 281.89 239.34 275.45 249.66 295.74 286.43 255.88 293.08 265.87 249.66 314.36"/><path class="cls-6" d="M246,175.23v-9a9,9,0,0,1,18.08,0v9h18.08v17.63H227.89V175.23Zm68.7-18.08H280.58a27.13,27.13,0,0,0-51.15,0H194.89a27.16,27.16,0,0,0-27.12,27.12v159.1a27.15,27.15,0,0,0,27.12,27.12H314.7a27.15,27.15,0,0,0,27.09-27.12V184.27A27.16,27.16,0,0,0,314.67,157.15Zm9,186.22a9,9,0,0,1-9,9H194.89a9,9,0,0,1-9-9V184.27a9.06,9.06,0,0,1,9-9h14.92v35.71H300.2V175.23h14.47a9.06,9.06,0,0,1,9,9Z"/><polygon class="cls-6" points="250.37 315.07 229.69 282.6 240.04 276.16 250.37 296.44 287.13 256.59 293.79 266.58 250.37 315.07"/><path class="cls-6" d="M246.67,175.94v-9a9,9,0,1,1,18.08,0v9h18.08v17.63H228.59V175.94Zm68.71-18.08h-34.1a27.12,27.12,0,0,0-51.14,0H195.6A27.15,27.15,0,0,0,168.48,185v159.1A27.15,27.15,0,0,0,195.6,371.2H315.4a27.16,27.16,0,0,0,27.09-27.12V185A27.14,27.14,0,0,0,315.38,157.86Zm9,186.22a9,9,0,0,1-9,9H195.6a9,9,0,0,1-9-9V185a9,9,0,0,1,9-9h14.91v35.71h90.4V175.94h14.47a9,9,0,0,1,9,9Z"/><polygon class="cls-6" points="251.07 315.77 230.4 283.3 240.75 276.86 251.07 297.15 287.84 257.3 294.5 267.28 251.07 315.77"/><path class="cls-6" d="M247.38,176.64v-9a9,9,0,1,1,18.08,0v9h18.08v17.63H229.3V176.64Zm68.7-18.08H282a27.12,27.12,0,0,0-51.14,0H196.3a27.16,27.16,0,0,0-27.12,27.12V344.79a27.16,27.16,0,0,0,27.12,27.12H316.11a27.16,27.16,0,0,0,27.09-27.12V185.68A27.16,27.16,0,0,0,316.08,158.56Zm9,186.23a9.06,9.06,0,0,1-9,9H196.3a9.06,9.06,0,0,1-9-9V185.68a9.06,9.06,0,0,1,9-9h14.92v35.71h90.4V176.64h14.46a9,9,0,0,1,9,9Z"/><polygon class="cls-6" points="251.78 316.48 231.11 284.01 241.46 277.57 251.78 297.86 288.55 258 295.2 267.99 251.78 316.48"/><path class="cls-6" d="M248.08,177.35v-9a9,9,0,0,1,18.08,0v9h18.08V195H230V177.35Zm68.71-18.08H282.7a27.13,27.13,0,0,0-51.15,0H197a27.16,27.16,0,0,0-27.12,27.12v159.1A27.15,27.15,0,0,0,197,372.61H316.82a27.16,27.16,0,0,0,27.09-27.12V186.39A27.16,27.16,0,0,0,316.79,159.27Zm9,186.22a9,9,0,0,1-9,9H197a9,9,0,0,1-9-9V186.39a9.06,9.06,0,0,1,9-9h14.91v35.71h90.4V177.35h14.47a9.06,9.06,0,0,1,9,9Z"/><polygon class="cls-6" points="252.49 317.19 231.81 284.72 242.16 278.28 252.49 298.56 289.25 258.71 295.91 268.69 252.49 317.19"/><path class="cls-6" d="M248.79,178.06v-9a9,9,0,0,1,18.08,0v9H285v17.62H230.71V178.06ZM317.49,160H283.4a27.12,27.12,0,0,0-51.14,0H197.72A27.14,27.14,0,0,0,170.6,187.1V346.2a27.14,27.14,0,0,0,27.12,27.12h119.8a27.16,27.16,0,0,0,27.09-27.12V187.1A27.14,27.14,0,0,0,317.49,160Zm9,186.22a9,9,0,0,1-9,9H197.72a9,9,0,0,1-9-9V187.1a9,9,0,0,1,9-9h14.91v35.7H303v-35.7h14.46a9,9,0,0,1,9,9Z"/><polygon class="cls-6" points="253.19 317.89 232.52 285.42 242.87 278.98 253.19 299.27 289.96 259.42 296.62 269.4 253.19 317.89"/><path class="cls-6" d="M249.5,178.76v-9a9,9,0,1,1,18.08,0v9h18.08v17.63H231.42V178.76Zm68.7-18.08H284.11a27.12,27.12,0,0,0-51.14,0H198.42A27.16,27.16,0,0,0,171.3,187.8V346.91A27.14,27.14,0,0,0,198.42,374H318.23a27.15,27.15,0,0,0,27.09-27.11V187.8A27.16,27.16,0,0,0,318.2,160.68Zm9,186.23a9.06,9.06,0,0,1-9,9H198.42a9.06,9.06,0,0,1-9-9V187.8a9.06,9.06,0,0,1,9-9h14.92v35.71h90.4V178.76H318.2a9.06,9.06,0,0,1,9,9Z"/><polygon class="cls-6" points="253.9 318.6 233.22 286.13 243.57 279.69 253.9 299.98 290.66 260.12 297.32 270.11 253.9 318.6"/><path class="cls-6" d="M250.2,179.47v-9a9,9,0,1,1,18.08,0v9h18.08V197.1H232.12V179.47Zm68.71-18.08h-34.1a27.12,27.12,0,0,0-51.14,0H199.13A27.15,27.15,0,0,0,172,188.51v159.1a27.15,27.15,0,0,0,27.12,27.12h119.8A27.16,27.16,0,0,0,346,347.61V188.51A27.16,27.16,0,0,0,318.91,161.39Zm9,186.22a9.06,9.06,0,0,1-9,9H199.13a9,9,0,0,1-9-9V188.51a9,9,0,0,1,9-9H214v35.71h90.4V179.47h14.47a9.06,9.06,0,0,1,9,9Z"/><polygon class="cls-6" points="254.6 319.31 233.93 286.83 244.28 280.39 254.6 300.68 291.37 260.83 298.03 270.81 254.6 319.31"/><path class="cls-6" d="M250.91,180.18v-9a9,9,0,0,1,18.08,0v9h18.08V197.8H232.83V180.18Zm68.7-18.08H285.52a27.12,27.12,0,0,0-51.14,0H199.83a27.14,27.14,0,0,0-27.12,27.12v159.1a27.16,27.16,0,0,0,27.12,27.12H319.64a27.16,27.16,0,0,0,27.09-27.12V189.22A27.14,27.14,0,0,0,319.61,162.1Zm9,186.22a9.05,9.05,0,0,1-9,9H199.83a9.06,9.06,0,0,1-9-9V189.22a9,9,0,0,1,9-9h14.92v35.7h90.4v-35.7h14.46a9,9,0,0,1,9,9Z"/><polygon class="cls-6" points="255.31 320.01 234.64 287.54 244.99 281.1 255.31 301.39 292.08 261.54 298.74 271.52 255.31 320.01"/><path class="cls-6" d="M251.62,180.88v-9a9,9,0,1,1,18.08,0v9h18.08v17.63H233.54V180.88Zm68.7-18.08H286.23a27.13,27.13,0,0,0-51.15,0H200.54a27.16,27.16,0,0,0-27.12,27.12V349a27.15,27.15,0,0,0,27.12,27.12H320.35A27.15,27.15,0,0,0,347.44,349V189.92A27.16,27.16,0,0,0,320.32,162.8Zm9,186.22a9,9,0,0,1-9,9H200.54a9,9,0,0,1-9-9V189.92a9.06,9.06,0,0,1,9-9h14.92v35.71h90.39V180.88h14.47a9.06,9.06,0,0,1,9,9Z"/><polygon class="cls-6" points="256.02 320.72 235.34 288.25 245.69 281.81 256.02 302.09 292.78 262.24 299.44 272.23 256.02 320.72"/><path class="cls-6" d="M252.32,181.59v-9a9,9,0,1,1,18.08,0v9h18.08v17.63H234.24V181.59ZM321,163.51H286.93a27.12,27.12,0,0,0-51.14,0H201.25a27.14,27.14,0,0,0-27.12,27.12v159.1a27.15,27.15,0,0,0,27.12,27.12h119.8a27.16,27.16,0,0,0,27.09-27.12V190.63A27.14,27.14,0,0,0,321,163.51Zm9,186.22a9,9,0,0,1-9,9H201.25a9,9,0,0,1-9-9V190.63a9,9,0,0,1,9-9h14.91V217.3h90.4V181.59H321a9,9,0,0,1,9,9Z"/><polygon class="cls-6" points="256.72 321.43 236.05 288.95 246.4 282.51 256.72 302.8 293.49 262.95 300.15 272.93 256.72 321.43"/><path class="cls-6" d="M253,182.29v-9a9,9,0,0,1,18.08,0v9h18.08v17.63H235V182.29Zm68.7-18.08H287.64a27.12,27.12,0,0,0-51.14,0H202a27.16,27.16,0,0,0-27.12,27.12V350.44A27.16,27.16,0,0,0,202,377.56H321.76a27.16,27.16,0,0,0,27.09-27.12V191.33A27.16,27.16,0,0,0,321.73,164.21Zm9,186.23a9.06,9.06,0,0,1-9,9H202a9.06,9.06,0,0,1-9-9V191.33a9.06,9.06,0,0,1,9-9h14.92V218h90.4V182.29h14.46a9,9,0,0,1,9,9Z"/><polygon class="cls-6" points="257.43 322.13 236.76 289.66 247.11 283.22 257.43 303.51 294.19 263.65 300.85 273.64 257.43 322.13"/><path class="cls-6" d="M253.73,183v-9a9,9,0,0,1,18.08,0v9h18.08v17.63H235.65V183Zm68.71-18.08H288.35a27.13,27.13,0,0,0-51.15,0H202.66A27.16,27.16,0,0,0,175.54,192v159.1a27.15,27.15,0,0,0,27.12,27.12H322.47a27.16,27.16,0,0,0,27.09-27.12V192A27.16,27.16,0,0,0,322.44,164.92Zm9,186.22a9,9,0,0,1-9,9H202.66a9,9,0,0,1-9-9V192a9.06,9.06,0,0,1,9-9h14.91v35.71H308V183h14.47a9.06,9.06,0,0,1,9,9Z"/><polygon class="cls-6" points="258.14 322.84 237.46 290.37 247.81 283.93 258.14 304.21 294.9 264.36 301.56 274.34 258.14 322.84"/><path class="cls-6" d="M254.44,183.71v-9a9,9,0,1,1,18.08,0v9H290.6v17.62H236.36V183.71Zm68.7-18.08H289.05a27.12,27.12,0,0,0-51.14,0H203.37a27.14,27.14,0,0,0-27.12,27.12v159.1A27.14,27.14,0,0,0,203.37,379h119.8a27.16,27.16,0,0,0,27.09-27.12V192.75A27.14,27.14,0,0,0,323.14,165.63Zm9,186.22a9,9,0,0,1-9,9H203.37a9,9,0,0,1-9-9V192.75a9,9,0,0,1,9-9h14.91v35.7h90.4v-35.7h14.46a9,9,0,0,1,9,9Z"/><polygon class="cls-6" points="258.84 323.54 238.17 291.07 248.52 284.63 258.84 304.92 295.61 265.07 302.27 275.05 258.84 323.54"/><path class="cls-6" d="M255.15,184.41v-9a9,9,0,0,1,18.08,0v9h18.08V202H237.07V184.41Zm68.7-18.08H289.76a27.12,27.12,0,0,0-51.14,0H204.07A27.16,27.16,0,0,0,177,193.45V352.56a27.14,27.14,0,0,0,27.12,27.11H323.88A27.15,27.15,0,0,0,351,352.56V193.45A27.16,27.16,0,0,0,323.85,166.33Zm9,186.23a9,9,0,0,1-9,9H204.07a9,9,0,0,1-9-9V193.45a9.06,9.06,0,0,1,9-9H219v35.71h90.4V184.41h14.46a9.06,9.06,0,0,1,9,9Z"/><polygon class="cls-6" points="259.55 324.25 238.88 291.78 249.22 285.34 259.55 305.63 296.31 265.77 302.97 275.76 259.55 324.25"/><path class="cls-6" d="M255.85,185.12v-9a9,9,0,0,1,18.08,0v9H292v17.63H237.77V185.12ZM324.56,167h-34.1a27.12,27.12,0,0,0-51.14,0H204.78a27.15,27.15,0,0,0-27.12,27.12v159.1a27.15,27.15,0,0,0,27.12,27.12h119.8a27.16,27.16,0,0,0,27.1-27.12V194.16A27.16,27.16,0,0,0,324.56,167Zm9,186.22a9.06,9.06,0,0,1-9,9H204.78a9,9,0,0,1-9-9V194.16a9,9,0,0,1,9-9h14.91v35.71h90.4V185.12h14.47a9.06,9.06,0,0,1,9,9Z"/><polygon class="cls-6" points="260.25 324.96 239.58 292.49 249.93 286.05 260.25 306.33 297.02 266.48 303.68 276.46 260.25 324.96"/><path class="cls-6" d="M256.56,185.83v-9a9,9,0,1,1,18.08,0v9h18.08v17.62H238.48V185.83Zm68.7-18.08H291.17a27.12,27.12,0,0,0-51.14,0H205.48a27.14,27.14,0,0,0-27.12,27.12V354a27.16,27.16,0,0,0,27.12,27.12H325.29A27.16,27.16,0,0,0,352.38,354V194.87A27.14,27.14,0,0,0,325.26,167.75Zm9,186.22a9.05,9.05,0,0,1-9,9H205.48a9.06,9.06,0,0,1-9-9V194.87a9,9,0,0,1,9-9H220.4v35.7h90.4v-35.7h14.46a9,9,0,0,1,9,9Z"/><polygon class="cls-6" points="260.96 325.66 240.29 293.19 250.64 286.75 260.96 307.04 297.73 267.19 304.38 277.17 260.96 325.66"/><path class="cls-6" d="M257.27,186.53v-9a9,9,0,0,1,18.08,0v9h18.07v17.63H239.19V186.53ZM326,168.45H291.88a27.13,27.13,0,0,0-51.15,0H206.19a27.16,27.16,0,0,0-27.12,27.12v159.1a27.15,27.15,0,0,0,27.12,27.12H326a27.15,27.15,0,0,0,27.09-27.12V195.57A27.16,27.16,0,0,0,326,168.45Zm9,186.22a9,9,0,0,1-9,9H206.19a9,9,0,0,1-9-9V195.57a9.06,9.06,0,0,1,9-9h14.92v35.71H311.5V186.53H326a9.06,9.06,0,0,1,9,9Z"/><polygon class="cls-6" points="261.67 326.37 240.99 293.9 251.34 287.46 261.67 307.74 298.43 267.89 305.09 277.88 261.67 326.37"/><path class="cls-6" d="M258,187.24v-9a9,9,0,0,1,18.08,0v9h18.08v17.63H239.89V187.24Zm68.7-18.08H292.58a27.12,27.12,0,0,0-51.14,0H206.9a27.14,27.14,0,0,0-27.12,27.12v159.1A27.15,27.15,0,0,0,206.9,382.5H326.7a27.16,27.16,0,0,0,27.09-27.12V196.28A27.14,27.14,0,0,0,326.67,169.16Zm9,186.22a9,9,0,0,1-9,9H206.9a9,9,0,0,1-9-9V196.28a9,9,0,0,1,9-9h14.91V223h90.4V187.24h14.46a9,9,0,0,1,9,9Z"/><polygon class="cls-6" points="262.37 327.07 241.7 294.6 252.05 288.16 262.37 308.45 299.14 268.6 305.8 278.58 262.37 327.07"/><path class="cls-6" d="M258.68,187.94v-9a9,9,0,1,1,18.08,0v9h18.08v17.63H240.6V187.94Zm68.7-18.08H293.29a27.12,27.12,0,0,0-51.14,0H207.6A27.16,27.16,0,0,0,180.48,197V356.09a27.16,27.16,0,0,0,27.12,27.12H327.41a27.16,27.16,0,0,0,27.09-27.12V197A27.16,27.16,0,0,0,327.38,169.86Zm9,186.23a9.06,9.06,0,0,1-9,9H207.6a9.06,9.06,0,0,1-9-9V197a9.06,9.06,0,0,1,9-9h14.92v35.71h90.4V187.94h14.46a9.06,9.06,0,0,1,9,9Z"/><polygon class="cls-6" points="263.08 327.78 242.41 295.31 252.75 288.87 263.08 309.16 299.85 269.3 306.5 279.29 263.08 327.78"/><path class="cls-6" d="M259.38,188.65v-9a9,9,0,1,1,18.08,0v9h18.08v17.63H241.3V188.65Zm68.71-18.08H294a27.13,27.13,0,0,0-51.15,0H208.31a27.16,27.16,0,0,0-27.12,27.12v159.1a27.15,27.15,0,0,0,27.12,27.12H328.12a27.16,27.16,0,0,0,27.09-27.12V197.69A27.16,27.16,0,0,0,328.09,170.57Zm9,186.22a9.05,9.05,0,0,1-9,9H208.31a9,9,0,0,1-9-9V197.69a9,9,0,0,1,9-9h14.91v35.71h90.4V188.65h14.47a9.06,9.06,0,0,1,9,9Z"/><polygon class="cls-6" points="263.79 328.49 243.11 296.02 253.46 289.58 263.79 309.86 300.55 270.01 307.21 279.99 263.79 328.49"/><path class="cls-6" d="M260.09,189.36v-9a9,9,0,0,1,18.08,0v9h18.08V207H242V189.36Zm68.7-18.08H294.7a27.12,27.12,0,0,0-51.14,0H209A27.14,27.14,0,0,0,181.9,198.4V357.5A27.14,27.14,0,0,0,209,384.62h119.8a27.16,27.16,0,0,0,27.09-27.12V198.4A27.14,27.14,0,0,0,328.79,171.28Zm9,186.22a9,9,0,0,1-9,9H209a9,9,0,0,1-9-9V198.4a9,9,0,0,1,9-9h14.91v35.7h90.4v-35.7h14.46a9,9,0,0,1,9,9Z"/><polygon class="cls-6" points="264.49 329.19 243.82 296.72 254.17 290.28 264.49 310.57 301.26 270.72 307.92 280.7 264.49 329.19"/><path class="cls-6" d="M260.8,190.06v-9a9,9,0,0,1,18.08,0v9H297v17.63H242.72V190.06ZM329.5,172H295.41a27.12,27.12,0,0,0-51.14,0H209.72A27.16,27.16,0,0,0,182.6,199.1V358.2a27.14,27.14,0,0,0,27.12,27.12H329.53a27.15,27.15,0,0,0,27.09-27.12V199.1A27.16,27.16,0,0,0,329.5,172Zm9,186.22a9,9,0,0,1-9,9H209.72a9,9,0,0,1-9-9V199.1a9.06,9.06,0,0,1,9-9h14.92v35.71H315V190.06H329.5a9.06,9.06,0,0,1,9,9Z"/><polygon class="cls-6" points="265.2 329.9 244.53 297.43 254.87 290.99 265.2 311.27 301.96 271.42 308.62 281.41 265.2 329.9"/><path class="cls-6" d="M261.5,190.77v-9a9,9,0,1,1,18.08,0v9h18.08V208.4H243.42V190.77Zm68.71-18.08h-34.1a27.12,27.12,0,0,0-51.14,0H210.43a27.15,27.15,0,0,0-27.12,27.12v159.1A27.15,27.15,0,0,0,210.43,386h119.8a27.16,27.16,0,0,0,27.1-27.12V199.81A27.16,27.16,0,0,0,330.21,172.69Zm9,186.22a9.06,9.06,0,0,1-9,9H210.43a9,9,0,0,1-9-9V199.81a9,9,0,0,1,9-9h14.91v35.71h90.4V190.77h14.47a9.06,9.06,0,0,1,9,9Z"/><polygon class="cls-6" points="265.9 330.61 245.23 298.13 255.58 291.69 265.9 311.98 302.67 272.13 309.33 282.11 265.9 330.61"/><path class="cls-6" d="M262.21,191.48v-9a9,9,0,0,1,18.08,0v9h18.08V209.1H244.13V191.48Zm68.7-18.08H296.82a27.12,27.12,0,0,0-51.14,0H211.13A27.14,27.14,0,0,0,184,200.52v159.1a27.16,27.16,0,0,0,27.12,27.12H330.94A27.16,27.16,0,0,0,358,359.62V200.52A27.14,27.14,0,0,0,330.91,173.4Zm9,186.22a9.05,9.05,0,0,1-9,9H211.13a9.06,9.06,0,0,1-9-9V200.52a9,9,0,0,1,9-9h14.92v35.7h90.4v-35.7h14.46a9,9,0,0,1,9,9Z"/><polygon class="cls-6" points="266.61 331.31 245.94 298.84 256.29 292.4 266.61 312.69 303.38 272.83 310.04 282.82 266.61 331.31"/><path class="cls-6" d="M262.92,192.18v-9a9,9,0,0,1,18.08,0v9h18.07v17.63H244.84V192.18Zm68.7-18.08H297.53a27.13,27.13,0,0,0-51.15,0H211.84a27.16,27.16,0,0,0-27.12,27.12v159.1a27.15,27.15,0,0,0,27.12,27.12H331.65a27.15,27.15,0,0,0,27.09-27.12V201.22A27.16,27.16,0,0,0,331.62,174.1Zm9,186.22a9,9,0,0,1-9,9H211.84a9,9,0,0,1-9-9V201.22a9.06,9.06,0,0,1,9-9h14.92v35.71h90.39V192.18h14.47a9.06,9.06,0,0,1,9,9Z"/><polygon class="cls-6" points="267.32 332.02 246.64 299.55 256.99 293.11 267.32 313.39 304.08 273.54 310.74 283.52 267.32 332.02"/><path class="cls-6" d="M263.62,192.89v-9a9,9,0,1,1,18.08,0v9h18.08v17.63H245.54V192.89Zm68.7-18.08H298.23a27.12,27.12,0,0,0-51.14,0H212.55a27.14,27.14,0,0,0-27.12,27.12V361a27.15,27.15,0,0,0,27.12,27.12h119.8A27.16,27.16,0,0,0,359.44,361V201.93A27.14,27.14,0,0,0,332.32,174.81Zm9,186.22a9,9,0,0,1-9,9H212.55a9,9,0,0,1-9-9V201.93a9,9,0,0,1,9-9h14.91V228.6h90.4V192.89h14.46a9,9,0,0,1,9,9Z"/><polygon class="cls-6" points="268.02 332.73 247.35 300.25 257.7 293.81 268.02 314.1 304.79 274.25 311.45 284.23 268.02 332.73"/><path class="cls-6" d="M264.33,193.59v-9a9,9,0,1,1,18.08,0v9h18.08v17.63H246.25V193.59ZM333,175.51H298.94a27.12,27.12,0,0,0-51.14,0H213.25a27.16,27.16,0,0,0-27.12,27.12V361.74a27.16,27.16,0,0,0,27.12,27.12H333.06a27.16,27.16,0,0,0,27.09-27.12V202.63A27.16,27.16,0,0,0,333,175.51Zm9,186.23a9.06,9.06,0,0,1-9,9H213.25a9.06,9.06,0,0,1-9-9V202.63a9.06,9.06,0,0,1,9-9h14.92V229.3h90.4V193.59H333a9.06,9.06,0,0,1,9,9Z"/><polygon class="cls-6" points="268.73 333.43 248.06 300.96 258.4 294.52 268.73 314.81 305.5 274.95 312.15 284.94 268.73 333.43"/><path class="cls-6" d="M265,194.3v-9a9,9,0,0,1,18.08,0v9h18.08v17.63H247V194.3Zm68.71-18.08H299.65a27.13,27.13,0,0,0-51.15,0H214a27.16,27.16,0,0,0-27.12,27.12v159.1A27.15,27.15,0,0,0,214,389.56H333.77a27.16,27.16,0,0,0,27.09-27.12V203.34A27.16,27.16,0,0,0,333.74,176.22Zm9,186.22a9.05,9.05,0,0,1-9,9H214a9,9,0,0,1-9-9V203.34a9,9,0,0,1,9-9h14.91V230h90.4V194.3h14.47a9.06,9.06,0,0,1,9,9Z"/><polygon class="cls-6" points="269.44 334.14 248.76 301.67 259.11 295.23 269.44 315.51 306.2 275.66 312.86 285.64 269.44 334.14"/><path class="cls-6" d="M265.74,195v-9a9,9,0,0,1,18.08,0v9H301.9v17.62H247.66V195Zm68.7-18.08H300.35a27.12,27.12,0,0,0-51.14,0H214.66a27.13,27.13,0,0,0-27.11,27.12v159.1a27.14,27.14,0,0,0,27.11,27.12H334.47a27.16,27.16,0,0,0,27.09-27.12V204.05A27.14,27.14,0,0,0,334.44,176.93Zm9,186.22a9,9,0,0,1-9,9H214.66a9,9,0,0,1-9-9V204.05a9,9,0,0,1,9-9h14.92v35.7H320V195h14.46a9,9,0,0,1,9,9Z"/><polygon class="cls-6" points="270.14 334.84 249.47 302.37 259.82 295.93 270.14 316.22 306.91 276.37 313.57 286.35 270.14 334.84"/><path class="cls-6" d="M266.45,195.71v-9a9,9,0,1,1,18.08,0v9h18.08v17.63H248.37V195.71Zm68.7-18.08H301.06a27.12,27.12,0,0,0-51.14,0H215.37a27.16,27.16,0,0,0-27.12,27.12v159.1A27.14,27.14,0,0,0,215.37,391H335.18a27.15,27.15,0,0,0,27.09-27.12V204.75A27.16,27.16,0,0,0,335.15,177.63Zm9,186.22a9,9,0,0,1-9,9H215.37a9,9,0,0,1-9-9V204.75a9.06,9.06,0,0,1,9-9h14.92v35.71h90.4V195.71h14.46a9.06,9.06,0,0,1,9,9Z"/><polygon class="cls-6" points="270.85 335.55 250.18 303.08 260.52 296.64 270.85 316.92 307.61 277.07 314.27 287.06 270.85 335.55"/><path class="cls-6" d="M267.15,196.42v-9a9,9,0,0,1,18.08,0v9h18.08v17.63H249.07V196.42Zm68.71-18.08h-34.1a27.12,27.12,0,0,0-51.14,0H216.08A27.15,27.15,0,0,0,189,205.46v159.1a27.15,27.15,0,0,0,27.12,27.12h119.8A27.16,27.16,0,0,0,363,364.56V205.46A27.16,27.16,0,0,0,335.86,178.34Zm9,186.22a9.06,9.06,0,0,1-9,9H216.08a9,9,0,0,1-9-9V205.46a9,9,0,0,1,9-9H231v35.71h90.4V196.42h14.47a9.06,9.06,0,0,1,9,9Z"/><polygon class="cls-6" points="271.55 336.26 250.88 303.79 261.23 297.35 271.55 317.63 308.32 277.78 314.98 287.76 271.55 336.26"/><path class="cls-6" d="M267.86,197.13v-9a9,9,0,0,1,18.08,0v9H304v17.62H249.78V197.13Zm68.7-18.08H302.47a27.12,27.12,0,0,0-51.14,0H216.78a27.14,27.14,0,0,0-27.12,27.12v159.1a27.16,27.16,0,0,0,27.12,27.12H336.59a27.16,27.16,0,0,0,27.09-27.12V206.17A27.14,27.14,0,0,0,336.56,179.05Zm9,186.22a9.05,9.05,0,0,1-9,9H216.78a9.06,9.06,0,0,1-9-9V206.17a9,9,0,0,1,9-9H231.7v35.7h90.4v-35.7h14.46a9,9,0,0,1,9,9Z"/><polygon class="cls-6" points="272.26 336.96 251.59 304.49 261.94 298.05 272.26 318.34 309.03 278.49 315.69 288.47 272.26 336.96"/><path class="cls-6" d="M268.57,197.83v-9a9,9,0,1,1,18.08,0v9h18.07v17.63H250.49V197.83Zm68.7-18.08H303.18a27.13,27.13,0,0,0-51.15,0H217.49a27.16,27.16,0,0,0-27.12,27.12V366a27.15,27.15,0,0,0,27.12,27.12H337.3A27.15,27.15,0,0,0,364.39,366V206.87A27.16,27.16,0,0,0,337.27,179.75Zm9,186.22a9,9,0,0,1-9,9H217.49a9,9,0,0,1-9-9V206.87a9.06,9.06,0,0,1,9-9h14.92v35.71H322.8V197.83h14.47a9.06,9.06,0,0,1,9,9Z"/><polygon class="cls-6" points="272.97 337.67 252.29 305.2 262.64 298.76 272.97 319.04 309.73 279.19 316.39 289.18 272.97 337.67"/><path class="cls-6" d="M269.27,198.54v-9a9,9,0,0,1,18.08,0v9h18.08v17.63H251.19V198.54ZM338,180.46H303.88a27.12,27.12,0,0,0-51.14,0H218.2a27.14,27.14,0,0,0-27.12,27.12v159.1A27.15,27.15,0,0,0,218.2,393.8H338a27.16,27.16,0,0,0,27.09-27.12V207.58A27.14,27.14,0,0,0,338,180.46Zm9,186.22a9,9,0,0,1-9,9H218.2a9,9,0,0,1-9-9V207.58a9,9,0,0,1,9-9h14.91v35.71h90.4V198.54H338a9,9,0,0,1,9,9Z"/><polygon class="cls-6" points="273.67 338.38 253 305.9 263.35 299.46 273.67 319.75 310.44 279.9 317.1 289.88 273.67 338.38"/><path class="cls-6" d="M270,199.24v-9a9,9,0,0,1,18.08,0v9h18.08v17.63H251.9V199.24Zm68.7-18.08H304.59a27.12,27.12,0,0,0-51.14,0H218.9a27.16,27.16,0,0,0-27.12,27.12V367.39a27.16,27.16,0,0,0,27.12,27.12H338.71a27.16,27.16,0,0,0,27.09-27.12V208.28A27.16,27.16,0,0,0,338.68,181.16Zm9,186.23a9.06,9.06,0,0,1-9,9H218.9a9.06,9.06,0,0,1-9-9V208.28a9.06,9.06,0,0,1,9-9h14.92V235h90.4V199.24h14.46a9.06,9.06,0,0,1,9,9Z"/><polygon class="cls-6" points="274.38 339.08 253.71 306.61 264.06 300.17 274.38 320.45 311.14 280.6 317.8 290.59 274.38 339.08"/><path class="cls-6" d="M270.68,200v-9a9,9,0,1,1,18.08,0v9h18.08v17.63H252.6V200Zm68.71-18.08h-34.1a27.12,27.12,0,0,0-51.14,0H219.61A27.16,27.16,0,0,0,192.49,209v159.1a27.15,27.15,0,0,0,27.12,27.12H339.42a27.16,27.16,0,0,0,27.09-27.12V209A27.16,27.16,0,0,0,339.39,181.87Zm9,186.22a9.05,9.05,0,0,1-9,9H219.61a9,9,0,0,1-9-9V209a9,9,0,0,1,9-9h14.91v35.71h90.4V200h14.47a9.06,9.06,0,0,1,9,9Z"/><polygon class="cls-6" points="275.09 339.79 254.41 307.32 264.76 300.88 275.09 321.16 311.85 281.31 318.51 291.29 275.09 339.79"/><path class="cls-6" d="M271.39,200.66v-9a9,9,0,0,1,18.08,0v9h18.08v17.62H253.31V200.66Zm68.7-18.08H306a27.12,27.12,0,0,0-51.14,0H220.31A27.13,27.13,0,0,0,193.2,209.7V368.8a27.14,27.14,0,0,0,27.11,27.12H340.12a27.16,27.16,0,0,0,27.09-27.12V209.7A27.14,27.14,0,0,0,340.09,182.58Zm9,186.22a9,9,0,0,1-9,9H220.31a9.06,9.06,0,0,1-9-9V209.7a9,9,0,0,1,9-9h14.92v35.7h90.4v-35.7h14.46a9,9,0,0,1,9,9Z"/><polygon class="cls-6" points="275.79 340.49 255.12 308.02 265.47 301.58 275.79 321.87 312.56 282.02 319.22 292 275.79 340.49"/><path class="cls-6" d="M272.1,201.36v-9a9,9,0,0,1,18.08,0v9h18.08V219H254V201.36Zm68.7-18.08H306.71a27.12,27.12,0,0,0-51.14,0H221A27.16,27.16,0,0,0,193.9,210.4V369.5A27.14,27.14,0,0,0,221,396.62H340.83a27.15,27.15,0,0,0,27.09-27.12V210.4A27.16,27.16,0,0,0,340.8,183.28Zm9,186.22a9,9,0,0,1-9,9H221a9,9,0,0,1-9-9V210.4a9.06,9.06,0,0,1,9-9h14.92v35.71h90.4V201.36H340.8a9.06,9.06,0,0,1,9,9Z"/><polygon class="cls-6" points="276.5 341.2 255.82 308.73 266.17 302.29 276.5 322.57 313.26 282.72 319.92 292.71 276.5 341.2"/><path class="cls-6" d="M272.8,202.07v-9a9,9,0,0,1,18.08,0v9H309V219.7H254.72V202.07ZM341.51,184h-34.1a27.12,27.12,0,0,0-51.14,0H221.73a27.15,27.15,0,0,0-27.12,27.12v159.1a27.15,27.15,0,0,0,27.12,27.12h119.8a27.16,27.16,0,0,0,27.1-27.12V211.11A27.16,27.16,0,0,0,341.51,184Zm9,186.22a9.06,9.06,0,0,1-9,9H221.73a9,9,0,0,1-9-9V211.11a9,9,0,0,1,9-9h14.91v35.71H327V202.07h14.47a9.06,9.06,0,0,1,9,9Z"/><polygon class="cls-6" points="277.2 341.91 256.53 309.44 266.88 303 277.2 323.28 313.97 283.43 320.63 293.41 277.2 341.91"/><path class="cls-6" d="M273.51,202.78v-9a9,9,0,1,1,18.08,0v9h18.08V220.4H255.43V202.78Zm68.7-18.08H308.12a27.12,27.12,0,0,0-51.14,0H222.43a27.14,27.14,0,0,0-27.12,27.12v159.1A27.16,27.16,0,0,0,222.43,398H342.24a27.16,27.16,0,0,0,27.09-27.12V211.82A27.14,27.14,0,0,0,342.21,184.7Zm9,186.22a9.05,9.05,0,0,1-9,9H222.43a9.06,9.06,0,0,1-9-9V211.82a9,9,0,0,1,9-9h14.92v35.7h90.4v-35.7h14.46a9,9,0,0,1,9,9Z"/><polygon class="cls-6" points="277.91 342.61 257.24 310.14 267.59 303.7 277.91 323.99 314.68 284.13 321.33 294.12 277.91 342.61"/><path class="cls-6" d="M274.22,203.48v-9a9,9,0,1,1,18.07,0v9h18.08v17.63H256.14V203.48Zm68.7-18.08H308.83a27.13,27.13,0,0,0-51.15,0H223.14A27.16,27.16,0,0,0,196,212.52v159.1a27.15,27.15,0,0,0,27.12,27.12H343A27.15,27.15,0,0,0,370,371.62V212.52A27.16,27.16,0,0,0,342.92,185.4Zm9,186.22a9,9,0,0,1-9,9H223.14a9,9,0,0,1-9-9V212.52a9.06,9.06,0,0,1,9-9h14.92v35.71h90.39V203.48h14.47a9.06,9.06,0,0,1,9,9Z"/><polygon class="cls-6" points="278.62 343.32 257.94 310.85 268.29 304.41 278.62 324.69 315.38 284.84 322.04 294.82 278.62 343.32"/><path class="cls-6" d="M274.92,204.19v-9a9,9,0,0,1,18.08,0v9h18.08v17.63H256.84V204.19Zm68.7-18.08H309.53a27.12,27.12,0,0,0-51.14,0H223.85a27.14,27.14,0,0,0-27.12,27.12v159.1a27.15,27.15,0,0,0,27.12,27.12h119.8a27.16,27.16,0,0,0,27.09-27.12V213.23A27.14,27.14,0,0,0,343.62,186.11Zm9,186.22a9,9,0,0,1-9,9H223.85a9,9,0,0,1-9-9V213.23a9,9,0,0,1,9-9h14.91V239.9h90.4V204.19h14.46a9,9,0,0,1,9,9Z"/><polygon class="cls-6" points="279.32 344.02 258.65 311.55 269 305.11 279.32 325.4 316.09 285.55 322.75 295.53 279.32 344.02"/><path class="cls-6" d="M275.63,204.89v-9a9,9,0,1,1,18.08,0v9h18.08v17.63H257.55V204.89Zm68.7-18.08H310.24a27.12,27.12,0,0,0-51.14,0H224.55a27.16,27.16,0,0,0-27.12,27.12V373a27.16,27.16,0,0,0,27.12,27.12H344.36A27.16,27.16,0,0,0,371.45,373V213.93A27.16,27.16,0,0,0,344.33,186.81Zm9,186.23a9.06,9.06,0,0,1-9,9H224.55a9.06,9.06,0,0,1-9-9V213.93a9.06,9.06,0,0,1,9-9h14.92V240.6h90.4V204.89h14.46a9.06,9.06,0,0,1,9,9Z"/><polygon class="cls-6" points="280.03 344.73 259.36 312.26 269.7 305.82 280.03 326.11 316.8 286.25 323.45 296.24 280.03 344.73"/><path class="cls-6" d="M276.33,205.6v-9a9,9,0,0,1,18.08,0v9h18.08v17.63H258.25V205.6ZM345,187.52h-34.1a27.12,27.12,0,0,0-51.14,0H225.26a27.16,27.16,0,0,0-27.12,27.12v159.1a27.15,27.15,0,0,0,27.12,27.12H345.07a27.16,27.16,0,0,0,27.09-27.12V214.64A27.16,27.16,0,0,0,345,187.52Zm9,186.22a9.05,9.05,0,0,1-9,9H225.26a9,9,0,0,1-9-9V214.64a9,9,0,0,1,9-9h14.91v35.71h90.4V205.6H345a9.06,9.06,0,0,1,9,9Z"/><polygon class="cls-6" points="280.74 345.44 260.06 312.97 270.41 306.53 280.74 326.81 317.5 286.96 324.16 296.94 280.74 345.44"/><g id="Group_1984-2" data-name="Group 1984"><g id="Assign_Task-2-2" data-name="Assign Task"><g id="Assign_Task-2-3" data-name="Assign Task-2"><path id="_014-audit-2" data-name=" 014-audit" class="cls-6" d="M277,206.31v-9a9,9,0,0,1,18.08,0v9H313.2v17.62H259V206.31Zm68.7-18.08H311.65a27.12,27.12,0,0,0-51.14,0H226a27.13,27.13,0,0,0-27.11,27.12v159.1A27.14,27.14,0,0,0,226,401.57H345.77a27.16,27.16,0,0,0,27.09-27.12V215.35A27.14,27.14,0,0,0,345.74,188.23Zm9,186.22a9,9,0,0,1-9,9H226a9.06,9.06,0,0,1-9-9V215.35a9,9,0,0,1,9-9h14.92V242h90.4v-35.7h14.46a9,9,0,0,1,9,9Z"/></g></g><g id="_062-check-2-2" data-name=" 062-check"><path id="_062-check-2-3" data-name=" 062-check-2" class="cls-6" d="M281.44,346.14l-20.67-32.47,10.35-6.44,10.32,20.29,36.77-39.85,6.66,10Z"/></g></g></g></g><g id="Group_1984-3" data-name="Group 1984"><g id="Assign_Task-3" data-name="Assign Task"><g id="Assign_Task-2-4" data-name="Assign Task-2"><path id="_014-audit-3" data-name=" 014-audit" class="cls-3" d="M226.39,68.87H192.3a27.13,27.13,0,0,0-51.15,0H106.61A27.16,27.16,0,0,0,79.49,96v159.1a27.14,27.14,0,0,0,27.12,27.12H226.42a27.15,27.15,0,0,0,27.09-27.12V96A27.16,27.16,0,0,0,226.39,68.87ZM157.69,87v-9a9,9,0,0,1,18.08,0v9h18.08v17.63H139.61V87Zm77.74,168.14a9,9,0,0,1-9,9H106.61a9,9,0,0,1-9-9V96a9.06,9.06,0,0,1,9-9h14.92v35.71h90.4V87h14.46a9.06,9.06,0,0,1,9,9Z"/></g></g><g id="_062-check-3" data-name=" 062-check"><path id="_062-check-2-4" data-name=" 062-check-2" class="cls-3" d="M162.09,226.79l-20.68-32.47,10.35-6.44,10.33,20.28,36.76-39.85,6.66,10Z"/></g></g><g id="Group_1984-4" data-name="Group 1984" class="cls-7"><g id="Assign_Task-4" data-name="Assign Task"><g id="Assign_Task-2-5" data-name="Assign Task-2"><path id="_014-audit-4" data-name=" 014-audit" class="cls-8" d="M226.39,68.87H192.3a27.13,27.13,0,0,0-51.15,0H106.61A27.16,27.16,0,0,0,79.49,96v159.1a27.14,27.14,0,0,0,27.12,27.12H226.42a27.15,27.15,0,0,0,27.09-27.12V96A27.16,27.16,0,0,0,226.39,68.87ZM157.69,87v-9a9,9,0,0,1,18.08,0v9h18.08v17.63H139.61V87Zm77.74,168.14a9,9,0,0,1-9,9H106.61a9,9,0,0,1-9-9V96a9.06,9.06,0,0,1,9-9h14.92v35.71h90.4V87h14.46a9.06,9.06,0,0,1,9,9Z"/></g></g><g id="_062-check-4" data-name=" 062-check"><path id="_062-check-2-5" data-name=" 062-check-2" class="cls-8" d="M162.09,226.79l-20.68-32.47,10.35-6.44,10.33,20.28,36.76-39.85,6.66,10Z"/></g></g><path class="cls-8" d="M205.73,82.31h34.09a26.92,26.92,0,0,1,11.24,2.45,27.16,27.16,0,0,0-24.67-15.89h-31A27,27,0,0,1,205.73,82.31Z"/><path class="cls-8" d="M239.82,100.39h-4.39v154.7a9,9,0,0,1-9,9H111v4.4a9.06,9.06,0,0,0,9,9h119.8a9.29,9.29,0,0,0,2.06-.26,27.21,27.21,0,0,0,6.71-6.7,8.91,8.91,0,0,0,.25-2.08V109.43A9,9,0,0,0,239.82,100.39Z"/><path class="cls-8" d="M154.59,82.31A26.66,26.66,0,0,1,158,75.79a9,9,0,0,1,6.66-6.66,27.11,27.11,0,0,1,26.79-2.46,27.13,27.13,0,0,0-50.25,2.2H106.61A27.16,27.16,0,0,0,79.49,96v159.1a27.12,27.12,0,0,0,15.88,24.67,27.15,27.15,0,0,1-2.45-11.23V109.43A27.07,27.07,0,0,1,97.83,93.9a9,9,0,0,1,6.69-6.69A27,27,0,0,1,120,82.31Z"/><polygon class="cls-8" points="151.76 187.88 141.41 194.32 162.09 226.79 205.51 178.3 198.85 168.31 162.09 208.16 151.76 187.88"/></g></g></g></svg>