<?xml version="1.0" ?><svg id="Layer_1" style="enable-background:new 0 0 54 54;" version="1.1" viewBox="0 0 54 54" xml:space="preserve" xmlns="http://www.w3.org/2000/svg" xmlns:xlink="http://www.w3.org/1999/xlink"><g><path d="M51.4,22.9c1.6-1,2.6-2.8,2.6-4.8c0-3.2-2.6-5.7-5.7-5.7s-5.7,2.6-5.7,5.7c0,2.1,1.1,3.9,2.8,4.9c-1,0.8-1.6,1.9-1.8,3.2   l0,0c-2-1.3-4.5-2.4-7.3-3.2v-3.8c0-3.5-2.8-6.3-6.3-6.3c-0.3,0-0.6,0.2-0.8,0.5l-2.3,3.9l-2.3-3.9c-0.2-0.3-0.5-0.5-0.8-0.5   c-3.5,0-6.3,2.8-6.3,6.3v3.8c-2.8,0.7-5.2,1.8-7.1,3.1c-0.2-1.3-0.8-2.4-1.7-3.1c1.7-1,2.8-2.8,2.8-4.9c0-3.2-2.6-5.7-5.7-5.7   C2.6,12.4,0,15,0,18.1c0,2,1,3.8,2.6,4.8c-1.2,0.9-2,2.3-2,3.9v7.8c0,0.5,0.4,1,1,1h3.8c0.9,4.4,5.8,8,12.6,9.7   c-1.3,1.8-2.1,4-2.1,6.5c0,0.5,0.4,1,1,1h20.1c0.5,0,1-0.4,1-1c0-2.4-0.8-4.6-2.1-6.5c6.8-1.7,11.7-5.3,12.6-9.7h4c0.5,0,1-0.4,1-1   v-7.8C53.4,25.2,52.6,23.8,51.4,22.9z M48.3,14.3c2.1,0,3.8,1.7,3.8,3.8s-1.7,3.8-3.8,3.8c-2.1,0-3.8-1.7-3.8-3.8   S46.2,14.3,48.3,14.3z M19.4,19.4c0-2.3,1.7-4.1,3.9-4.4l2.8,4.7c0.2,0.3,0.5,0.5,0.8,0.5s0.6-0.2,0.8-0.5l2.8-4.7   c2.2,0.3,3.9,2.1,3.9,4.4v3.3c-2.3-0.5-4.9-0.7-7.5-0.7c-2.7,0-5.2,0.3-7.5,0.7V19.4z M5.7,14.3c2.1,0,3.8,1.7,3.8,3.8   s-1.7,3.8-3.8,3.8c-2.1,0-3.8-1.7-3.8-3.8S3.6,14.3,5.7,14.3z M2.5,26.8c0-1.6,1.3-3,3-3c1.5,0,2.8,1.1,3,2.7l0.1,1   c-2,1.8-3.2,3.9-3.3,6.2H2.5V26.8z M17.8,50.8c0.5-4.6,4.4-8.2,9.1-8.2s8.6,3.6,9.1,8.2H17.8z M22.4,36.2c0-2.5,2-4.5,4.5-4.5   s4.5,2,4.5,4.5c0,2.5-2,4.5-4.5,4.5S22.4,38.7,22.4,36.2z M34.3,43.6c-1.1-1-2.3-1.7-3.7-2.2c1.6-1.2,2.6-3,2.6-5.2   c0-3.5-2.9-6.4-6.4-6.4s-6.4,2.9-6.4,6.4c0,2.1,1,4,2.6,5.2c-1.4,0.5-2.6,1.3-3.7,2.2c-7.2-1.6-12.4-5.3-12.4-9.5   c0-5.6,9.1-10.3,19.8-10.3s19.8,4.7,19.8,10.3C46.7,38.4,41.5,42.1,34.3,43.6z M51.5,33.7h-2.9c-0.1-2.2-1.2-4.3-3.1-6l0.1-1.2   c0.2-1.5,1.4-2.7,3-2.7c1.6,0,3,1.3,3,3V33.7z"/><path d="M26.9,12.3c3,0,5.5-2.5,5.5-5.5s-2.5-5.5-5.5-5.5c-3,0-5.5,2.5-5.5,5.5S23.9,12.3,26.9,12.3z M26.9,3.2   c2,0,3.6,1.6,3.6,3.6s-1.6,3.6-3.6,3.6s-3.6-1.6-3.6-3.6S24.9,3.2,26.9,3.2z"/></g></svg>