<?xml version="1.0" ?><svg baseProfile="tiny" height="64px" version="1.2" viewBox="0 0 64 64" width="64px" xml:space="preserve" xmlns="http://www.w3.org/2000/svg" xmlns:xlink="http://www.w3.org/1999/xlink"><g id="box"><rect fill="none" height="64" width="64"/></g><g id="icon"><g><path d="M43.6456,23.5296c5.5479,0,10.0612-4.5135,10.0612-10.0613S49.1935,3.4069,43.6456,3.4069    S33.5842,7.9204,33.5842,13.4683S38.0978,23.5296,43.6456,23.5296z M43.6456,6.4069c3.8936,0,7.0612,3.1678,7.0612,7.0614    s-3.1677,7.0613-7.0612,7.0613c-3.8937,0-7.0614-3.1677-7.0614-7.0613S39.7519,6.4069,43.6456,6.4069z M42.71,13.9163v4.1051    c0.0051,1.212,1.8786,1.2759,1.8732-0.0078v-4.5492c-0.0013-0.2811-0.1284-0.5468-0.3466-0.724l-3.6112-2.9319    c-0.9622-0.7806-2.1448,0.6741-1.1819,1.4557L42.71,13.9163z M54.1537,48.6603L42.8201,35.2849    c-0.8824-1.0415-2.3925-1.3911-3.6694-0.7561l-9.4094,4.6789l-5.0131-11.4762c-0.9639-2.1873-3.4586-3.345-5.7757-2.5815    c-2.4644,0.8121-3.8037,3.4682-2.9916,5.9325c0,0,4.578,13.8662,4.6444,14.0183c1.1077,2.5358,3.8422,3.5813,5.8979,3.1406    l12.6993-2.5397l4.6113,13.1057c1.1396,3.2087,5.9978,1.7321,5.1292-1.5734l-2.2189-8.444l3.4766,3.4987    C52.6125,54.702,56.3647,51.2692,54.1537,48.6603z M16.6725,23.4088c2.8436,0.6369,5.6545-1.151,6.2884-3.9858    c0.6393-2.8405-1.1406-5.6512-3.9757-6.2896c-2.8328-0.6454-5.6506,1.1417-6.2926,3.9793    C12.0593,19.9459,13.8412,22.7648,16.6725,23.4088z M36.3727,48.8399c-0.045,0.0085-4.5497,0.8571-9.8444,1.901    c-4.3809,0.8635-7.7969-2.3036-8.9065-5.8789c-1.3738-4.4266-4.8905-15.2753-4.9259-15.3843    c-0.7339-2.2632-4.1514-1.1494-3.4192,1.1087c0.0353,0.1088,3.545,10.9358,4.9122,15.341c1.622,5.2267,6.67,9.5941,13.0347,8.3401    c5.2788-1.0407,9.7694-1.8867,9.8141-1.8951C39.371,51.9329,38.7098,48.4011,36.3727,48.8399z" fill="#565D64"/></g></g></svg>