<?xml version="1.0" ?><svg baseProfile="tiny" height="64px" version="1.2" viewBox="0 0 64 64" width="64px" xml:space="preserve" xmlns="http://www.w3.org/2000/svg" xmlns:xlink="http://www.w3.org/1999/xlink"><g id="_x36_4px_boxes"><rect fill="none" height="64" width="64"/></g><g id="Production"><g><path d="M27,22.6273V29h5v-6.3727c9-2.853,7.2183-16.6233-2.5-16.6233C19.7791,6.004,18,19.7749,27,22.6273z     M29.4553,11.0039c1.9298,0,3.5002,1.5703,3.5002,3.4999s-1.5704,3.4999-3.5002,3.4999c-1.9297,0-3.5-1.5703-3.5-3.4999    S27.5256,11.0039,29.4553,11.0039z M47.2284,22.2123l-3.5353,3.5341l7.2229,7.2628c-34.6315-0.0015-8.3705-0.0005-38.9314-0.0019    l-6.2584-6.2989l-3.5353,3.535l5.2288,5.2294L2.188,40.7135l3.5353,3.5433L11.9961,38H27v20h5V38h18.9241l-7.2368,7.2208    l3.5353,3.5273l13.2679-13.2713L47.2284,22.2123z" fill="#565D64"/></g></g></svg>