<?xml version="1.0" ?><svg id="Layer_1_1_" style="enable-background:new 0 0 64 64;" version="1.1" viewBox="0 0 64 64" xml:space="preserve" xmlns="http://www.w3.org/2000/svg" xmlns:xlink="http://www.w3.org/1999/xlink"><g id="Guide"><g/><g/><g/><g/><g/><g/><g/><g/><g/><g/><g/><g/><g/><g/><g/><g/><g/><g/><g/><g/><g/><g/><g/><g/><g/><g/><g/><g/><g/><g/><g/><g/><g/><g/><g/><g/></g><path d="M57,2H7C4.243,2,2,4.243,2,7v50c0,2.757,2.243,5,5,5h50c2.757,0,5-2.243,5-5V7C62,4.243,59.757,2,57,2z M38,41H4V23h34V41z   M7,4h31v17H4V7C4,5.346,5.346,4,7,4z M4,57V43h34v17H7C5.346,60,4,58.654,4,57z M60,57c0,1.654-1.346,3-3,3H40V4h17  c1.654,0,3,1.346,3,3V57z"/><path d="M43,20h11c0.553,0,1-0.447,1-1v-4h-2v3h-9V9h3V7h-4c-0.553,0-1,0.447-1,1v11C42,19.553,42.447,20,43,20z"/><path d="M49,13.586l-2.293-2.293l-1.414,1.414l3,3C48.488,15.902,48.744,16,49,16s0.512-0.098,0.707-0.293l7-7l-1.414-1.414  L49,13.586z"/><path d="M53,36h-9v-9h3v-2h-4c-0.553,0-1,0.447-1,1v11c0,0.553,0.447,1,1,1h11c0.553,0,1-0.447,1-1v-4h-2V36z"/><path d="M49,31.586l-2.293-2.293l-1.414,1.414l3,3C48.488,33.902,48.744,34,49,34s0.512-0.098,0.707-0.293l7-7l-1.414-1.414  L49,31.586z"/><path d="M54,44H43c-0.553,0-1,0.447-1,1v11c0,0.553,0.447,1,1,1h11c0.553,0,1-0.447,1-1V45C55,44.447,54.553,44,54,44z M53,55h-9v-9  h9V55z"/><rect height="2" width="13" x="6" y="11"/><rect height="2" width="13" x="13" y="31"/><rect height="2" width="13" x="23" y="50"/></svg>