<?xml version="1.0" ?><!DOCTYPE svg  PUBLIC '-//W3C//DTD SVG 1.1//EN'  'http://www.w3.org/Graphics/SVG/1.1/DTD/svg11.dtd'><svg enable-background="new 0 0 512 512" height="512px" id="Layer_1" version="1.1" viewBox="0 0 512 512" width="512px" xml:space="preserve" xmlns="http://www.w3.org/2000/svg" xmlns:xlink="http://www.w3.org/1999/xlink"><path d="M213.756,330.346c5.693-7.469,12.458-15.418,19.984-23.761H113.552c-6.596,0-11.923,5.327-11.923,11.895  c0,6.54,5.328,11.866,11.923,11.866H213.756z M112.453,195.699h90.338c6.596,0,11.923-5.328,11.923-11.923  c0-6.567-5.327-11.895-11.923-11.895h-90.338c-6.539,0-11.923,5.327-11.923,11.895C100.53,190.371,105.914,195.699,112.453,195.699z   M287.957,239.219H113.552c-6.596,0-11.923,5.355-11.923,11.895c0,6.539,5.328,11.894,11.923,11.894h162.792l20.125-20.153  C294.327,240.628,291.283,239.219,287.957,239.219z M361.524,322.736l-18.097,18.067v103.05c0,3.017-1.24,6.061-3.382,8.26  c-2.198,2.142-5.243,3.382-8.286,3.382H68.679c-3.1,0-6.116-1.24-8.315-3.382c-2.17-2.199-3.438-5.243-3.438-8.26V68.408  c0-3.101,1.268-6.145,3.438-8.315c2.199-2.17,5.215-3.411,8.315-3.411h190.034c-0.395,1.325-1.184,2.508-1.184,3.946v69.847  c0,7.977,6.469,14.432,14.418,14.432h70.974c0.226,0.902,0.507,1.776,0.507,2.706v46.282l25.594-25.593v-20.689  c0-9.781-3.945-19.364-10.823-26.298l-71.595-78.415c-7.609-7.78-17.25-11.811-27.157-11.811H68.679  c-9.809,0-19.392,3.946-26.354,10.88c-6.99,6.99-10.964,16.602-10.964,26.439v375.446c0,9.697,3.946,19.28,10.824,26.242  c7.188,7.074,16.771,10.992,26.495,10.992H331.76c9.695,0,19.279-3.918,26.213-10.738c7.104-7.188,11.049-16.771,11.049-26.496  V329.388c-1.409-1.015-3.044-1.606-4.284-2.875C363.554,325.329,362.482,324.061,361.524,322.736z M478.499,212.61  c-1.86-1.832-4.228-2.734-6.652-2.734c-2.368,0-4.792,0.902-6.596,2.762l-8.399,8.4l-12.064-12.092l3.664-3.664  c9.076-9.048,16.18-16.349,19.449-25.65c4.51-12.628,1.354-19.815-7.666-28.892c-6.145-6.116-12.459-8.851-18.998-8.851  c-11.219,0-23,7.977-35.628,20.576l-115.622,115.65l42.844,42.815l98.71-98.709l12.12,12.092l-59.248,59.474  c-3.664,3.665-3.664,9.583,0,13.276c1.859,1.804,4.228,2.734,6.652,2.734c2.367-0.029,4.791-0.931,6.651-2.764l80.783-81.148  C482.163,222.222,482.163,216.303,478.499,212.61z M134.438,423.334c1.804,1.635,4.341,3.045,7.977,3.045  c3.665,0,8.4-1.41,14.629-5.469c2.537-2.621,10.711-9.33,18.181-8.71c3.974,0.339,7.526,2.875,10.795,7.724  c2.199,3.27,6.68,4.199,10.006,1.944c1.55-1.043,2.424-2.621,2.847-4.284c0.057-0.057,0.113-0.028,0.169-0.084l4.256-4.257  c0.93,0.282,1.663,1.099,2.678,1.099c0.564-0.027,1.043-0.027,1.55-0.111c2.227-0.396,42.59-10.543,97.851-65.845l18.264-18.293  l-42.787-42.815l-18.32,18.265c-57.177,57.219-65.577,96.032-65.859,98.118c-0.197,1.635,0.113,3.213,0.677,4.734l-1.24,1.24  c-6.793-8.652-14.347-11.359-19.703-11.81c-15.841-1.747-28.384,11.612-28.44,12.007c-1.917,1.213-3.241,1.776-3.805,2.171  c-0.451-3.017,0.648-10.569,5.018-19.28c7.188-14.375,3.608-25.311-2.142-30.751c-6.568-6.229-16.63-6.681-26.355-1.128  c-13.219,7.611-23.226,29.23-29.314,46.001c-1.353,3.749,0.592,7.893,4.341,9.245c3.805,1.354,7.892-0.592,9.245-4.34  c7.188-19.929,15.785-34.275,22.944-38.391c3.862-2.227,7.441-2.594,9.217-0.874c2.058,1.917,2.593,6.935-0.846,13.783  C130.126,398.559,125.954,415.639,134.438,423.334z" fill="#4D4D4D"/></svg>