<?xml version="1.0"?>
<svg xmlns="http://www.w3.org/2000/svg" xmlns:xlink="http://www.w3.org/1999/xlink" xmlns:svgjs="http://svgjs.com/svgjs" version="1.1" width="512" height="512" x="0" y="0" viewBox="0 0 512 512" style="enable-background:new 0 0 512 512" xml:space="preserve" class=""><g><g xmlns="http://www.w3.org/2000/svg"><path d="m366 150c0-60.654-49.346-110-110-110s-110 49.346-110 110 49.346 110 110 110 110-49.346 110-110zm-200 0c0-49.626 40.374-90 90-90s90 40.374 90 90-40.374 90-90 90-90-40.374-90-90z" fill="#bdbdbd" data-original="#000000" style="" class=""/><path d="m266 210v-11.72c11.639-4.128 20-15.243 20-28.28 0-16.542-13.458-30-30-30-5.514 0-10-4.486-10-10s4.486-10 10-10c3.175 0 6.093 1.46 8.005 4.005 3.317 4.415 9.585 5.307 14.002 1.989 4.416-3.316 5.306-9.586 1.989-14.001-3.575-4.759-8.489-8.297-13.996-10.255v-11.738c0-5.522-4.477-10-10-10s-10 4.478-10 10v11.72c-11.639 4.128-20 15.243-20 28.28 0 16.542 13.458 30 30 30 5.514 0 10 4.486 10 10s-4.486 10-10 10c-3.175 0-6.093-1.46-8.005-4.005-3.317-4.416-9.587-5.309-14.002-1.989-4.416 3.316-5.306 9.586-1.989 14.001 3.575 4.759 8.489 8.297 13.996 10.255v11.738c0 5.522 4.477 10 10 10s10-4.478 10-10z" fill="#bdbdbd" data-original="#000000" style="" class=""/><path d="m385.615 359.253c-1.226-4.293-5.15-7.253-9.615-7.253h-72.3c9.494-11.351 19.894-24.377 30.351-38.568 47.741-64.793 71.949-119.78 71.949-163.432 0-82.71-67.29-150-150-150s-150 67.29-150 150c0 43.652 24.208 98.639 71.949 163.432 10.457 14.191 20.856 27.218 30.351 38.568h-72.3c-4.465 0-8.389 2.96-9.615 7.253l-40 140c-.862 3.017-.258 6.264 1.632 8.769 1.889 2.505 4.845 3.978 7.983 3.978h55c5.523 0 10-4.478 10-10s-4.477-10-10-10h-41.743l11.429-40h165.314v40h-45c-5.523 0-10 4.478-10 10s4.477 10 10 10h175c3.138 0 6.094-1.473 7.983-3.979 1.89-2.505 2.494-5.752 1.632-8.769zm-259.615-209.253c0-71.683 58.318-130 130-130s130 58.317 130 130c0 82.066-101.932 195.815-130 225.576-28.068-29.761-130-143.51-130-225.576zm122.929 247.071c1.875 1.875 4.419 2.929 7.071 2.929s5.196-1.054 7.071-2.929c.734-.734 9.932-9.972 23.373-25.071h82.012l17.143 60h-179.599v-60h19.555c13.441 15.099 22.64 24.337 23.374 25.071zm-105.386-25.071h42.457v60h-59.6zm162.457 120v-40h85.314l11.429 40z" fill="#bdbdbd" data-original="#000000" style="" class=""/><circle cx="196" cy="502" r="10" fill="#bdbdbd" data-original="#000000" style="" class=""/></g></g></svg>
